<svg width="41" height="15" viewBox="0 0 41 15" fill="none" xmlns="http://www.w3.org/2000/svg">
<path d="M4.41557 4.12039H1.62589V11.6023H3.10089V9.14395H4.41557C5.85851 9.14395 6.97011 8.03236 6.97011 6.63217C6.97011 5.23199 5.85851 4.12039 4.41557 4.12039ZM4.41557 7.76515H3.10089V5.4992H4.41557C5.04619 5.4992 5.50579 5.98018 5.50579 6.63217C5.50579 7.27348 5.04619 7.76515 4.41557 7.76515ZM9.28295 7.17728V6.25808H7.90414V11.6023H9.28295V9.04776C9.28295 7.92547 10.1915 7.60482 10.9076 7.69033V6.15119C10.2342 6.15119 9.56085 6.45047 9.28295 7.17728ZM12.5507 5.61677C13.021 5.61677 13.4058 5.23199 13.4058 4.77238C13.4058 4.31278 13.021 3.91731 12.5507 3.91731C12.0911 3.91731 11.7063 4.31278 11.7063 4.77238C11.7063 5.23199 12.0911 5.61677 12.5507 5.61677ZM11.8667 11.6023H13.2455V6.25808H11.8667V11.6023ZM20.5709 6.10844C19.8441 6.10844 19.3096 6.39703 18.9783 6.87801C18.679 6.38634 18.1873 6.10844 17.5247 6.10844C16.8406 6.10844 16.3382 6.37565 16.039 6.82456V6.25808H14.6602V11.6023H16.039V8.59884C16.039 7.79721 16.4558 7.39105 17.0437 7.39105C17.6209 7.39105 17.9415 7.77583 17.9415 8.40645V11.6023H19.3203V8.59884C19.3203 7.79721 19.7051 7.39105 20.3143 7.39105C20.8915 7.39105 21.2122 7.77583 21.2122 8.40645V11.6023H22.591V8.31026C22.591 6.9742 21.7893 6.10844 20.5709 6.10844ZM27.9763 6.25808V6.88869C27.5915 6.40771 27.0144 6.10844 26.2341 6.10844C24.8126 6.10844 23.6368 7.33761 23.6368 8.93019C23.6368 10.5228 24.8126 11.7519 26.2341 11.7519C27.0144 11.7519 27.5915 11.4527 27.9763 10.9717V11.6023H29.3551V6.25808H27.9763ZM26.4906 10.4373C25.6463 10.4373 25.0156 9.82801 25.0156 8.93019C25.0156 8.03236 25.6463 7.42312 26.4906 7.42312C27.3457 7.42312 27.9763 8.03236 27.9763 8.93019C27.9763 9.82801 27.3457 10.4373 26.4906 10.4373ZM32.1369 7.17728V6.25808H30.7581V11.6023H32.1369V9.04776C32.1369 7.92547 33.0455 7.60482 33.7616 7.69033V6.15119C33.0882 6.15119 32.4148 6.45047 32.1369 7.17728ZM38.3199 6.25808L37.1335 9.84939L35.744 6.25808H34.2369L36.4281 11.4313C36.1715 12.1474 35.7868 12.4681 35.0279 12.4574V13.74C36.3853 13.8148 37.2938 13.1414 37.8496 11.6023L39.7949 6.25808H38.3199Z" fill="#0D0D0D"/>
</svg>
