<svg width="110" height="16" viewBox="0 0 110 16" fill="none" xmlns="http://www.w3.org/2000/svg">
<path d="M4.40976 4.11195H1.51343V11.8799H3.04482V9.32756H4.40976C5.90786 9.32756 7.06195 8.17347 7.06195 6.71976C7.06195 5.26604 5.90786 4.11195 4.40976 4.11195ZM4.40976 7.89604H3.04482V5.54347H4.40976C5.06448 5.54347 5.54166 6.04284 5.54166 6.71976C5.54166 7.38558 5.06448 7.89604 4.40976 7.89604ZM9.46321 7.28571V6.33136H8.03169V11.8799H9.46321V9.22769C9.46321 8.0625 10.4065 7.72959 11.15 7.81836V6.22039C10.4508 6.22039 9.75174 6.53111 9.46321 7.28571ZM12.8559 5.66554C13.3442 5.66554 13.7437 5.26604 13.7437 4.78887C13.7437 4.3117 13.3442 3.90111 12.8559 3.90111C12.3788 3.90111 11.9793 4.3117 11.9793 4.78887C11.9793 5.26604 12.3788 5.66554 12.8559 5.66554ZM12.1457 11.8799H13.5772V6.33136H12.1457V11.8799ZM21.1827 6.176C20.4281 6.176 19.8732 6.47562 19.5292 6.97499C19.2185 6.46452 18.708 6.176 18.02 6.176C17.3098 6.176 16.7882 6.45343 16.4775 6.9195V6.33136H15.046V11.8799H16.4775V8.76161C16.4775 7.92933 16.9103 7.50765 17.5206 7.50765C18.1199 7.50765 18.4528 7.90714 18.4528 8.56187V11.8799H19.8843V8.76161C19.8843 7.92933 20.2838 7.50765 20.9163 7.50765C21.5156 7.50765 21.8485 7.90714 21.8485 8.56187V11.8799H23.28V8.46199C23.28 7.07486 22.4477 6.176 21.1827 6.176ZM28.8712 6.33136V6.98609C28.4717 6.48672 27.8725 6.176 27.0624 6.176C25.5865 6.176 24.3658 7.45216 24.3658 9.10562C24.3658 10.7591 25.5865 12.0352 27.0624 12.0352C27.8725 12.0352 28.4717 11.7245 28.8712 11.2252V11.8799H30.3027V6.33136H28.8712ZM27.3287 10.6703C26.4521 10.6703 25.7973 10.0378 25.7973 9.10562C25.7973 8.17347 26.4521 7.54094 27.3287 7.54094C28.2165 7.54094 28.8712 8.17347 28.8712 9.10562C28.8712 10.0378 28.2165 10.6703 27.3287 10.6703ZM33.1909 7.28571V6.33136H31.7594V11.8799H33.1909V9.22769C33.1909 8.0625 34.1341 7.72959 34.8776 7.81836V6.22039C34.1785 6.22039 33.4794 6.53111 33.1909 7.28571ZM39.6102 6.33136L38.3785 10.06L36.9358 6.33136H35.3712L37.6461 11.7023C37.3797 12.4458 36.9802 12.7787 36.1923 12.7676V14.0993C37.6017 14.177 38.5449 13.4779 39.122 11.8799L41.1416 6.33136H39.6102ZM48.1434 6.176C47.3334 6.176 46.7452 6.47562 46.3457 6.98609V4.11195H44.9142V11.8799H46.3457V11.2252C46.7452 11.7356 47.3334 12.0352 48.1434 12.0352C49.6304 12.0352 50.8511 10.7591 50.8511 9.10562C50.8511 7.45216 49.6304 6.176 48.1434 6.176ZM47.8771 10.6703C47.0004 10.6703 46.3457 10.0378 46.3457 9.10562C46.3457 8.17347 47.0004 7.54094 47.8771 7.54094C48.7649 7.54094 49.4196 8.17347 49.4196 9.10562C49.4196 10.0378 48.7649 10.6703 47.8771 10.6703ZM55.6812 6.33136V9.32756C55.6812 10.293 55.1597 10.7036 54.4606 10.7036C53.8169 10.7036 53.362 10.3152 53.362 9.5606V6.33136H51.9304V9.73815C51.9304 11.2141 52.8515 12.0352 54.0278 12.0352C54.7713 12.0352 55.3483 11.7578 55.6812 11.2584V11.8799H57.1128V6.33136H55.6812ZM61.7561 7.70739V6.33136H60.5022V4.77777L59.0707 5.21056V6.33136H58.1052V7.70739H59.0707V10.0156C59.0707 11.5137 59.7476 12.1018 61.7561 11.8799V10.5815C60.935 10.6259 60.5022 10.6148 60.5022 10.0156V7.70739H61.7561ZM65.881 7.70739V6.33136H64.627V4.77777L63.1955 5.21056V6.33136H62.2301V7.70739H63.1955V10.0156C63.1955 11.5137 63.8724 12.1018 65.881 11.8799V10.5815C65.0598 10.6259 64.627 10.6148 64.627 10.0156V7.70739H65.881ZM69.5165 12.0352C71.1478 12.0352 72.4573 10.7591 72.4573 9.10562C72.4573 7.45216 71.1478 6.176 69.5165 6.176C67.8853 6.176 66.5869 7.45216 66.5869 9.10562C66.5869 10.7591 67.8853 12.0352 69.5165 12.0352ZM69.5165 10.637C68.6732 10.637 68.0184 10.0045 68.0184 9.10562C68.0184 8.20676 68.6732 7.57423 69.5165 7.57423C70.371 7.57423 71.0257 8.20676 71.0257 9.10562C71.0257 10.0045 70.371 10.637 69.5165 10.637ZM76.7078 6.176C75.9643 6.176 75.3873 6.45343 75.0544 6.95279V6.33136H73.6229V11.8799H75.0544V8.88368C75.0544 7.91824 75.5759 7.50765 76.275 7.50765C76.9187 7.50765 77.3737 7.89604 77.3737 8.65064V11.8799H78.8052V8.47309C78.8052 6.99718 77.8841 6.176 76.7078 6.176ZM81.5066 7.90714C81.5066 7.60752 81.7951 7.45216 82.1502 7.45216C82.5608 7.45216 82.8715 7.66301 83.038 8.01811L84.2586 7.35229C83.8259 6.58659 83.0491 6.176 82.1502 6.176C81.0072 6.176 80.0418 6.80853 80.0418 7.94043C80.0418 9.89351 82.9048 9.44963 82.9048 10.2597C82.9048 10.5815 82.5941 10.7369 82.1391 10.7369C81.5842 10.7369 81.2069 10.4706 81.0516 10.0156L79.8087 10.7147C80.2082 11.5692 81.0294 12.0352 82.1391 12.0352C83.3265 12.0352 84.3696 11.4582 84.3696 10.2597C84.3696 8.21786 81.5066 8.72832 81.5066 7.90714Z" fill="white"/>
<path d="M94.7409 7.81219H94.1733L94.1733 8.94742H94.7409L94.7409 7.81219ZM94.7409 8.94742L109.121 8.94742V7.81219L94.7409 7.81219L94.7409 8.94742ZM106.38 5.35254C106.38 7.32027 107.928 8.94745 109.877 8.94745V7.81221C108.59 7.81221 107.515 6.72867 107.515 5.35254L106.38 5.35254ZM109.877 7.81221C107.929 7.81221 106.38 9.43938 106.38 11.4071H107.515C107.515 10.031 108.59 8.94745 109.877 8.94745V7.81221Z" fill="white"/>
</svg>
