<svg width="97" height="20" viewBox="0 0 97 20" fill="none" xmlns="http://www.w3.org/2000/svg">
<path d="M4.86092 4.69069H1.21055V14.481H3.14063V11.2642H4.86092C6.74904 11.2642 8.2036 9.8096 8.2036 7.97742C8.2036 6.14524 6.74904 4.69069 4.86092 4.69069ZM4.86092 9.45995H3.14063V6.4949H4.86092C5.6861 6.4949 6.2875 7.12427 6.2875 7.97742C6.2875 8.81659 5.6861 9.45995 4.86092 9.45995ZM9.57605 14.481H11.3803V4.27111H9.57605V14.481ZM18.5461 7.48791V8.31309C18.0426 7.68371 17.2874 7.2921 16.2664 7.2921C14.4062 7.2921 12.8678 8.9005 12.8678 10.9844C12.8678 13.0684 14.4062 14.6768 16.2664 14.6768C17.2874 14.6768 18.0426 14.2852 18.5461 13.6558V14.481H20.3503V7.48791H18.5461ZM16.602 12.9565C15.4971 12.9565 14.672 12.1593 14.672 10.9844C14.672 9.8096 15.4971 9.01239 16.602 9.01239C17.7209 9.01239 18.5461 9.8096 18.5461 10.9844C18.5461 12.1593 17.7209 12.9565 16.602 12.9565ZM26.7456 7.48791L25.1932 12.1872L23.375 7.48791H21.4029L24.2701 14.2572C23.9344 15.1942 23.4309 15.6138 22.4379 15.5998V17.2782C24.2142 17.3761 25.403 16.495 26.1302 14.481L28.6757 7.48791H26.7456ZM37.3186 7.2921C36.3815 7.2921 35.6542 7.64176 35.2347 8.27113V7.48791H33.4305V14.481H35.2347V10.7047C35.2347 9.48792 35.892 8.97043 36.7731 8.97043C37.5843 8.97043 38.1578 9.45995 38.1578 10.411V14.481H39.962V10.1872C39.962 8.32707 38.8011 7.2921 37.3186 7.2921ZM45.031 14.6768C47.087 14.6768 48.7373 13.0684 48.7373 10.9844C48.7373 8.9005 47.087 7.2921 45.031 7.2921C42.975 7.2921 41.3387 8.9005 41.3387 10.9844C41.3387 13.0684 42.975 14.6768 45.031 14.6768ZM45.031 12.9145C43.9681 12.9145 43.1429 12.1173 43.1429 10.9844C43.1429 9.85156 43.9681 9.05435 45.031 9.05435C46.1079 9.05435 46.9331 9.85156 46.9331 10.9844C46.9331 12.1173 46.1079 12.9145 45.031 12.9145ZM57.8074 7.48791L56.6185 11.7956L55.3458 7.48791H53.6395L52.3668 11.7816L51.178 7.48791H49.2619L51.4856 14.481H53.2059L54.4927 10.2432L55.7794 14.481H57.4997L59.7235 7.48791H57.8074Z" fill="#0D0D0D"/>
<path d="M75.2078 9.36209L74.4585 9.36209L74.4585 10.8606H75.2078L75.2078 9.36209ZM75.2078 10.8606L95.5393 10.8606V9.36209L75.2078 9.36209L75.2078 10.8606ZM91.7179 5.83105C91.7179 8.58547 93.8849 10.8606 96.6094 10.8606V9.36213C94.7585 9.36213 93.2164 7.80456 93.2164 5.83105L91.7179 5.83105ZM96.6094 9.36213C93.885 9.36213 91.7178 11.6373 91.7178 14.3917H93.2163C93.2163 12.4182 94.7584 10.8606 96.6094 10.8606V9.36213Z" fill="#0D0D0D"/>
</svg>
