<svg width="55" height="11" viewBox="0 0 55 11" fill="none" xmlns="http://www.w3.org/2000/svg">
<path d="M3.0918 8.59495C4.68437 8.59495 5.80666 7.73988 5.80666 6.33969C5.80666 4.81124 4.54542 4.41577 3.35901 4.04168C2.22603 3.69965 1.93745 3.45381 1.93745 2.99421C1.93745 2.56667 2.30085 2.24602 2.92078 2.24602C3.67966 2.24602 4.08582 2.64149 4.35303 3.20798L5.59289 2.49185C5.09053 1.44439 4.14995 0.813768 2.92078 0.813768C1.63817 0.813768 0.462441 1.62609 0.462441 3.03696C0.462441 4.45853 1.57404 4.93951 2.7177 5.27085C3.8293 5.5915 4.33166 5.80527 4.33166 6.36107C4.33166 6.77792 4.02169 7.15201 3.13455 7.15201C2.20466 7.15201 1.68092 6.7031 1.41371 6.00835L0.152477 6.74585C0.558637 7.85745 1.56335 8.59495 3.0918 8.59495ZM8.16843 6.33969H12.198C12.23 6.15799 12.2514 5.97628 12.2514 5.7732C12.2514 4.202 11.1291 2.95146 9.54724 2.95146C7.86916 2.95146 6.7255 4.18063 6.7255 5.7732C6.7255 7.36578 7.85847 8.59495 9.65413 8.59495C10.6802 8.59495 11.4818 8.1781 11.9842 7.45129L10.8726 6.80998C10.6375 7.11995 10.2099 7.3444 9.6755 7.3444C8.94869 7.3444 8.36083 7.04513 8.16843 6.33969ZM8.14706 5.27085C8.30738 4.58679 8.80974 4.19131 9.54724 4.19131C10.1244 4.19131 10.7016 4.50128 10.8726 5.27085H8.14706ZM15.8687 8.59495C16.9162 8.59495 17.8247 8.03915 18.2843 7.20545L17.0872 6.52139C16.8735 6.95962 16.4139 7.22683 15.8581 7.22683C15.0351 7.22683 14.4258 6.61759 14.4258 5.7732C14.4258 4.91813 15.0351 4.30889 15.8581 4.30889C16.4032 4.30889 16.8628 4.58679 17.0765 5.02501L18.263 4.33026C17.8247 3.50725 16.9162 2.95146 15.8687 2.95146C14.2441 2.95146 13.047 4.18063 13.047 5.7732C13.047 7.36578 14.2441 8.59495 15.8687 8.59495ZM21.6266 8.59495C23.1978 8.59495 24.459 7.36578 24.459 5.7732C24.459 4.18063 23.1978 2.95146 21.6266 2.95146C20.0554 2.95146 18.8049 4.18063 18.8049 5.7732C18.8049 7.36578 20.0554 8.59495 21.6266 8.59495ZM21.6266 7.24821C20.8143 7.24821 20.1837 6.63897 20.1837 5.7732C20.1837 4.90744 20.8143 4.2982 21.6266 4.2982C22.4496 4.2982 23.0802 4.90744 23.0802 5.7732C23.0802 6.63897 22.4496 7.24821 21.6266 7.24821ZM28.5531 2.95146C27.837 2.95146 27.2812 3.21867 26.9605 3.69965V3.10109H25.5817V8.44531H26.9605V5.55943C26.9605 4.62954 27.4629 4.23407 28.1362 4.23407C28.7562 4.23407 29.1944 4.60816 29.1944 5.33498V8.44531H30.5732V5.16396C30.5732 3.7424 29.6861 2.95146 28.5531 2.95146ZM35.9541 0.963406V3.73171C35.5694 3.24004 35.0029 2.95146 34.2226 2.95146C32.7904 2.95146 31.6146 4.18063 31.6146 5.7732C31.6146 7.36578 32.7904 8.59495 34.2226 8.59495C35.0029 8.59495 35.5694 8.30636 35.9541 7.81469V8.44531H37.3329V0.963406H35.9541ZM34.4791 7.28027C33.6241 7.28027 32.9934 6.67103 32.9934 5.7732C32.9934 4.87537 33.6241 4.26613 34.4791 4.26613C35.3235 4.26613 35.9541 4.87537 35.9541 5.7732C35.9541 6.67103 35.3235 7.28027 34.4791 7.28027ZM42.8082 3.10109V3.73171C42.4234 3.25073 41.8463 2.95146 41.066 2.95146C39.6445 2.95146 38.4687 4.18063 38.4687 5.7732C38.4687 7.36578 39.6445 8.59495 41.066 8.59495C41.8463 8.59495 42.4234 8.29567 42.8082 7.81469V8.44531H44.187V3.10109H42.8082ZM41.3225 7.28027C40.4781 7.28027 39.8475 6.67103 39.8475 5.7732C39.8475 4.87537 40.4781 4.26613 41.3225 4.26613C42.1776 4.26613 42.8082 4.87537 42.8082 5.7732C42.8082 6.67103 42.1776 7.28027 41.3225 7.28027ZM46.9688 4.0203V3.10109H45.59V8.44531H46.9688V5.89078C46.9688 4.76849 47.8773 4.44784 48.5935 4.53334V2.99421C47.9201 2.99421 47.2467 3.29349 46.9688 4.0203ZM53.1518 3.10109L51.9654 6.69241L50.5759 3.10109H49.0688L51.26 8.2743C51.0034 8.99042 50.6186 9.31108 49.8598 9.30039V10.583C51.2172 10.6578 52.1257 9.98445 52.6815 8.44531L54.6268 3.10109H53.1518Z" fill="white"/>
</svg>
