<svg width="117" height="16" viewBox="0 0 117 16" fill="none" xmlns="http://www.w3.org/2000/svg">
<path d="M14.5314 14.6003H10.6881V15.4872H15.4183V10.7571H14.5314V14.6003Z" fill="white"/>
<path d="M1.16873 1.23773H5.01198V0.35083H0.28183V5.08098H1.16873V1.23773Z" fill="white"/>
<path d="M10.6881 0.35083V1.23773H14.5314V5.08098H15.4183V0.35083H10.6881Z" fill="white"/>
<path d="M1.16873 10.7571H0.28183V15.4872H5.01198V14.6003H1.16873V10.7571Z" fill="white"/>
<path fill-rule="evenodd" clip-rule="evenodd" d="M7.87868 5.6988L11.768 4.65664L11.4882 3.6123L6.55451 4.93429L7.73664 9.34604L3.84684 10.3883L4.12667 11.4326L9.0608 10.1105L7.87868 5.6988Z" fill="#8DD04A"/>
<path d="M29.9917 11.256C31.5704 11.256 32.683 10.4084 32.683 9.02035C32.683 7.50519 31.4327 7.11315 30.2566 6.74231C29.1335 6.40325 28.8474 6.15955 28.8474 5.70395C28.8474 5.28013 29.2076 4.96226 29.8222 4.96226C30.5745 4.96226 30.9771 5.35429 31.242 5.91586L32.4711 5.20596C31.9731 4.1676 31.0407 3.54246 29.8222 3.54246C28.5507 3.54246 27.3852 4.34772 27.3852 5.74633C27.3852 7.15553 28.4871 7.63233 29.6209 7.96079C30.7228 8.27866 31.2208 8.49057 31.2208 9.04154C31.2208 9.45476 30.9135 9.82561 30.0341 9.82561C29.1123 9.82561 28.5931 9.3806 28.3282 8.69189L27.0779 9.42298C27.4806 10.5249 28.4765 11.256 29.9917 11.256ZM36.391 11.256C37.4294 11.256 38.33 10.705 38.7856 9.87858L37.5989 9.20047C37.387 9.63489 36.9314 9.89978 36.3804 9.89978C35.5646 9.89978 34.9606 9.29583 34.9606 8.45878C34.9606 7.61114 35.5646 7.0072 36.3804 7.0072C36.9208 7.0072 37.3764 7.28268 37.5883 7.7171L38.7644 7.02839C38.33 6.21253 37.4294 5.66157 36.391 5.66157C34.7805 5.66157 33.5938 6.88005 33.5938 8.45878C33.5938 10.0375 34.7805 11.256 36.391 11.256ZM43.6034 5.8099V6.43504C43.222 5.95824 42.6498 5.66157 41.8763 5.66157C40.4671 5.66157 39.3016 6.88005 39.3016 8.45878C39.3016 10.0375 40.4671 11.256 41.8763 11.256C42.6498 11.256 43.222 10.9593 43.6034 10.4825V11.1077H44.9702V5.8099H43.6034ZM42.1306 9.95275C41.2936 9.95275 40.6684 9.34881 40.6684 8.45878C40.6684 7.56876 41.2936 6.96481 42.1306 6.96481C42.9783 6.96481 43.6034 7.56876 43.6034 8.45878C43.6034 9.34881 42.9783 9.95275 42.1306 9.95275ZM49.3066 5.66157C48.5967 5.66157 48.0457 5.92645 47.7278 6.40325V5.8099H46.361V11.1077H47.7278V8.24687C47.7278 7.32506 48.2258 6.93303 48.8934 6.93303C49.5079 6.93303 49.9423 7.30387 49.9423 8.02437V11.1077H51.3091V7.85484C51.3091 6.44563 50.4297 5.66157 49.3066 5.66157ZM59.4435 5.8099V6.43504C59.0621 5.94764 58.5005 5.66157 57.7271 5.66157C56.3073 5.66157 55.1417 6.88005 55.1417 8.45878C55.1417 10.0375 56.3073 11.256 57.7271 11.256C58.5005 11.256 59.0621 10.9699 59.4435 10.4825V13.2268H60.8104V5.8099H59.4435ZM57.9813 9.95275C57.1337 9.95275 56.5086 9.34881 56.5086 8.45878C56.5086 7.56876 57.1337 6.96481 57.9813 6.96481C58.8184 6.96481 59.4435 7.56876 59.4435 8.45878C59.4435 9.34881 58.8184 9.95275 57.9813 9.95275ZM63.5786 6.72112V5.8099H62.2117V11.1077H63.5786V8.57534C63.5786 7.4628 64.4792 7.14494 65.1891 7.2297V5.70395C64.5216 5.70395 63.854 6.00062 63.5786 6.72112ZM71.4618 11.256C72.5002 11.256 73.4008 10.705 73.8564 9.87858L72.6697 9.20047C72.4578 9.63489 72.0022 9.89978 71.4512 9.89978C70.6354 9.89978 70.0314 9.29583 70.0314 8.45878C70.0314 7.61114 70.6354 7.0072 71.4512 7.0072C71.9916 7.0072 72.4472 7.28268 72.6591 7.7171L73.8352 7.02839C73.4008 6.21253 72.5002 5.66157 71.4618 5.66157C69.8513 5.66157 68.6646 6.88005 68.6646 8.45878C68.6646 10.0375 69.8513 11.256 71.4618 11.256ZM77.1696 11.256C78.7272 11.256 79.9774 10.0375 79.9774 8.45878C79.9774 6.88005 78.7272 5.66157 77.1696 5.66157C75.6121 5.66157 74.3724 6.88005 74.3724 8.45878C74.3724 10.0375 75.6121 11.256 77.1696 11.256ZM77.1696 9.92097C76.3644 9.92097 75.7392 9.31702 75.7392 8.45878C75.7392 7.60055 76.3644 6.9966 77.1696 6.9966C77.9855 6.9966 78.6106 7.60055 78.6106 8.45878C78.6106 9.31702 77.9855 9.92097 77.1696 9.92097ZM85.106 3.6908V6.43504C84.7246 5.94764 84.163 5.66157 83.3896 5.66157C81.9698 5.66157 80.8043 6.88005 80.8043 8.45878C80.8043 10.0375 81.9698 11.256 83.3896 11.256C84.163 11.256 84.7246 10.9699 85.106 10.4825V11.1077H86.4729V3.6908H85.106ZM83.6439 9.95275C82.7962 9.95275 82.1711 9.34881 82.1711 8.45878C82.1711 7.56876 82.7962 6.96481 83.6439 6.96481C84.4809 6.96481 85.106 7.56876 85.106 8.45878C85.106 9.34881 84.4809 9.95275 83.6439 9.95275ZM89.0292 9.02035H93.0237C93.0555 8.84022 93.0767 8.6601 93.0767 8.45878C93.0767 6.90124 91.9641 5.66157 90.396 5.66157C88.7325 5.66157 87.5988 6.88005 87.5988 8.45878C87.5988 10.0375 88.7219 11.256 90.5019 11.256C91.5191 11.256 92.3138 10.8428 92.8118 10.1223L91.7098 9.48655C91.4767 9.79382 91.0529 10.0163 90.5231 10.0163C89.8026 10.0163 89.2199 9.71965 89.0292 9.02035ZM89.008 7.96079C89.1669 7.28268 89.6649 6.89065 90.396 6.89065C90.9682 6.89065 91.5403 7.19792 91.7098 7.96079H89.008Z" fill="white"/>
<path d="M101.696 7.35125H101.129L101.129 8.48648H101.696L101.696 7.35125ZM101.696 8.48648L116.076 8.48648V7.35125L101.696 7.35125L101.696 8.48648ZM113.335 4.8916C113.335 6.85933 114.884 8.48651 116.833 8.48651V7.35128C115.546 7.35128 114.471 6.26773 114.471 4.8916L113.335 4.8916ZM116.833 7.35128C114.884 7.35128 113.335 8.97844 113.335 10.9462H114.471C114.471 9.57008 115.546 8.48651 116.833 8.48651V7.35128Z" fill="white"/>
</svg>
