<svg width="80" height="15" viewBox="0 0 80 15" fill="none" xmlns="http://www.w3.org/2000/svg">
<path d="M5.94552 11H7.61008L4.88021 3.23207H2.98261L0.263836 11H1.9173L2.38337 9.60177H5.47945L5.94552 11ZM2.87164 8.17025L3.93696 4.9965L5.00227 8.17025H2.87164ZM12.5103 3.23207V6.1062C12.1108 5.59574 11.5227 5.29612 10.7126 5.29612C9.22562 5.29612 8.00494 6.57228 8.00494 8.22574C8.00494 9.8792 9.22562 11.1554 10.7126 11.1554C11.5227 11.1554 12.1108 10.8557 12.5103 10.3453V11H13.9419V3.23207H12.5103ZM10.979 9.79042C10.0912 9.79042 9.43646 9.15789 9.43646 8.22574C9.43646 7.29359 10.0912 6.66105 10.979 6.66105C11.8556 6.66105 12.5103 7.29359 12.5103 8.22574C12.5103 9.15789 11.8556 9.79042 10.979 9.79042ZM19.0605 5.45148L17.7067 9.33544L16.3639 5.45148H14.7881L16.8966 11H18.5279L20.6363 5.45148H19.0605ZM25.4852 5.45148V6.1062C25.0857 5.60684 24.4865 5.29612 23.6764 5.29612C22.2005 5.29612 20.9798 6.57228 20.9798 8.22574C20.9798 9.8792 22.2005 11.1554 23.6764 11.1554C24.4865 11.1554 25.0857 10.8446 25.4852 10.3453V11H26.9167V5.45148H25.4852ZM23.9427 9.79042C23.0661 9.79042 22.4113 9.15789 22.4113 8.22574C22.4113 7.29359 23.0661 6.66105 23.9427 6.66105C24.8305 6.66105 25.4852 7.29359 25.4852 8.22574C25.4852 9.15789 24.8305 9.79042 23.9427 9.79042ZM31.4583 5.29612C30.7148 5.29612 30.1378 5.57354 29.8049 6.07291V5.45148H28.3734V11H29.8049V8.0038C29.8049 7.03835 30.3265 6.62776 31.0256 6.62776C31.6692 6.62776 32.1242 7.01616 32.1242 7.77076V11H33.5557V7.59321C33.5557 6.1173 32.6346 5.29612 31.4583 5.29612ZM37.5776 11.1554C38.6652 11.1554 39.6084 10.5783 40.0856 9.71274L38.8427 9.00253C38.6208 9.45751 38.1436 9.73494 37.5665 9.73494C36.7121 9.73494 36.0795 9.10241 36.0795 8.22574C36.0795 7.33797 36.7121 6.70544 37.5665 6.70544C38.1325 6.70544 38.6097 6.99397 38.8316 7.44895L40.0634 6.72764C39.6084 5.87316 38.6652 5.29612 37.5776 5.29612C35.8909 5.29612 34.648 6.57228 34.648 8.22574C34.648 9.8792 35.8909 11.1554 37.5776 11.1554ZM42.1241 8.81388H46.3077C46.341 8.62523 46.3632 8.43658 46.3632 8.22574C46.3632 6.59447 45.198 5.29612 43.5556 5.29612C41.8134 5.29612 40.626 6.57228 40.626 8.22574C40.626 9.8792 41.8023 11.1554 43.6666 11.1554C44.7319 11.1554 45.5642 10.7226 46.0857 9.96797L44.9316 9.30215C44.6875 9.62397 44.2436 9.857 43.6888 9.857C42.9342 9.857 42.3238 9.54629 42.1241 8.81388ZM42.1019 7.70418C42.2684 6.99397 42.7899 6.58338 43.5556 6.58338C44.1549 6.58338 44.7541 6.90519 44.9316 7.70418H42.1019ZM51.6835 3.23207V6.1062C51.284 5.59574 50.6958 5.29612 49.8858 5.29612C48.3987 5.29612 47.1781 6.57228 47.1781 8.22574C47.1781 9.8792 48.3987 11.1554 49.8858 11.1554C50.6958 11.1554 51.284 10.8557 51.6835 10.3453V11H53.115V3.23207H51.6835ZM50.1521 9.79042C49.2643 9.79042 48.6096 9.15789 48.6096 8.22574C48.6096 7.29359 49.2643 6.66105 50.1521 6.66105C51.0287 6.66105 51.6835 7.29359 51.6835 8.22574C51.6835 9.15789 51.0287 9.79042 50.1521 9.79042Z" fill="#EFEFEF"/>
<path d="M64 6.93244L63.4324 6.93244L63.4324 8.06767L64 8.06767L64 6.93244ZM64 8.06767L78.3594 8.06767V6.93243L64 6.93244L64 8.06767ZM75.622 4.47705C75.622 6.44242 77.1685 8.0677 79.1151 8.0677V6.93246C77.8303 6.93246 76.7573 5.85082 76.7573 4.47705L75.622 4.47705ZM79.1151 6.93246C77.1686 6.93246 75.6219 8.55772 75.6219 10.5231H76.7572C76.7572 9.14935 77.8303 8.0677 79.1151 8.0677V6.93246Z" fill="#EFEFEF"/>
</svg>
