<svg width="96" height="16" viewBox="0 0 96 16" fill="none" xmlns="http://www.w3.org/2000/svg">
<path d="M9.65154 3.52113H8.07576L5.85635 7.19425L3.62585 3.52113H2.05007V11.2891H3.58146V6.2621L5.76758 9.85754H5.94513L8.13125 6.251V11.2891H9.65154V3.52113ZM15.4078 5.74054V6.39527C15.0083 5.8959 14.409 5.58518 13.5989 5.58518C12.123 5.58518 10.9024 6.86134 10.9024 8.5148C10.9024 10.1683 12.123 11.4444 13.5989 11.4444C14.409 11.4444 15.0083 11.1337 15.4078 10.6343V11.2891H16.8393V5.74054H15.4078ZM13.8653 10.0795C12.9886 10.0795 12.3339 9.44695 12.3339 8.5148C12.3339 7.58265 12.9886 6.95012 13.8653 6.95012C14.753 6.95012 15.4078 7.58265 15.4078 8.5148C15.4078 9.44695 14.753 10.0795 13.8653 10.0795ZM19.0061 5.07472C19.4944 5.07472 19.8939 4.67522 19.8939 4.19805C19.8939 3.72088 19.4944 3.31029 19.0061 3.31029C18.5289 3.31029 18.1294 3.72088 18.1294 4.19805C18.1294 4.67522 18.5289 5.07472 19.0061 5.07472ZM18.2959 11.2891H19.7274V5.74054H18.2959V11.2891ZM24.2812 5.58518C23.5377 5.58518 22.9606 5.86261 22.6277 6.36197V5.74054H21.1962V11.2891H22.6277V8.29286C22.6277 7.32742 23.1493 6.91683 23.8484 6.91683C24.492 6.91683 24.947 7.30522 24.947 8.05982V11.2891H26.3785V7.88227C26.3785 6.40636 25.4574 5.58518 24.2812 5.58518ZM33.9214 5.58518C33.1113 5.58518 32.5231 5.8848 32.1237 6.39527V3.52113H30.6921V11.2891H32.1237V10.6343C32.5231 11.1448 33.1113 11.4444 33.9214 11.4444C35.4084 11.4444 36.6291 10.1683 36.6291 8.5148C36.6291 6.86134 35.4084 5.58518 33.9214 5.58518ZM33.655 10.0795C32.7784 10.0795 32.1237 9.44695 32.1237 8.5148C32.1237 7.58265 32.7784 6.95012 33.655 6.95012C34.5428 6.95012 35.1975 7.58265 35.1975 8.5148C35.1975 9.44695 34.5428 10.0795 33.655 10.0795ZM41.4592 5.74054V8.73674C41.4592 9.70218 40.9376 10.1128 40.2385 10.1128C39.5949 10.1128 39.1399 9.72438 39.1399 8.96978V5.74054H37.7084V9.14733C37.7084 10.6232 38.6294 11.4444 39.8057 11.4444C40.5492 11.4444 41.1263 11.167 41.4592 10.6676V11.2891H42.8907V5.74054H41.4592ZM47.5341 7.11657V5.74054H46.2801V4.18695L44.8486 4.61974V5.74054H43.8832V7.11657H44.8486V9.42476C44.8486 10.9229 45.5255 11.511 47.5341 11.2891V9.99071C46.7129 10.0351 46.2801 10.024 46.2801 9.42476V7.11657H47.5341ZM51.6589 7.11657V5.74054H50.405V4.18695L48.9735 4.61974V5.74054H48.008V7.11657H48.9735V9.42476C48.9735 10.9229 49.6504 11.511 51.6589 11.2891V9.99071C50.8378 10.0351 50.405 10.024 50.405 9.42476V7.11657H51.6589ZM55.2945 11.4444C56.9257 11.4444 58.2352 10.1683 58.2352 8.5148C58.2352 6.86134 56.9257 5.58518 55.2945 5.58518C53.6632 5.58518 52.3649 6.86134 52.3649 8.5148C52.3649 10.1683 53.6632 11.4444 55.2945 11.4444ZM55.2945 10.0462C54.4511 10.0462 53.7964 9.41366 53.7964 8.5148C53.7964 7.61594 54.4511 6.98341 55.2945 6.98341C56.149 6.98341 56.8037 7.61594 56.8037 8.5148C56.8037 9.41366 56.149 10.0462 55.2945 10.0462ZM62.4858 5.58518C61.7423 5.58518 61.1652 5.86261 60.8323 6.36197V5.74054H59.4008V11.2891H60.8323V8.29286C60.8323 7.32742 61.3539 6.91683 62.053 6.91683C62.6966 6.91683 63.1516 7.30522 63.1516 8.05982V11.2891H64.5831V7.88227C64.5831 6.40636 63.6621 5.58518 62.4858 5.58518ZM67.2845 7.31632C67.2845 7.0167 67.573 6.86134 67.9281 6.86134C68.3387 6.86134 68.6494 7.07218 68.8159 7.42729L70.0366 6.76147C69.6038 5.99577 68.827 5.58518 67.9281 5.58518C66.7851 5.58518 65.8197 6.21771 65.8197 7.34961C65.8197 9.30269 68.6827 8.85881 68.6827 9.66889C68.6827 9.99071 68.372 10.1461 67.917 10.1461C67.3622 10.1461 66.9849 9.87974 66.8295 9.42476L65.5867 10.1239C65.9862 10.9783 66.8073 11.4444 67.917 11.4444C69.1044 11.4444 70.1475 10.8674 70.1475 9.66889C70.1475 7.62704 67.2845 8.1375 67.2845 7.31632Z" fill="white"/>
<path d="M80.5836 7.22137H80.016L80.016 8.3566H80.5836L80.5836 7.22137ZM80.5836 8.3566L94.9633 8.3566V7.22137L80.5836 7.22137L80.5836 8.3566ZM92.2228 4.76172C92.2228 6.72945 93.7712 8.35663 95.7201 8.35663V7.22139C94.433 7.22139 93.3581 6.13785 93.3581 4.76172L92.2228 4.76172ZM95.7201 7.22139C93.7712 7.22139 92.2228 8.84856 92.2228 10.8163H93.358C93.358 9.44019 94.433 8.35663 95.7201 8.35663V7.22139Z" fill="white"/>
</svg>
