<svg width="34" height="9" viewBox="0 0 34 9" fill="none" xmlns="http://www.w3.org/2000/svg">
<path d="M5.35796 4.1201C5.79619 3.76738 6.0634 3.26502 6.0634 2.62372C6.0634 1.37317 5.048 0.518094 3.78676 0.518094H0.836752V8H4.01122C5.30452 8 6.3413 7.11286 6.3413 5.83025C6.3413 5.04999 5.95651 4.46213 5.35796 4.1201ZM3.78676 1.8969C4.25705 1.8969 4.58839 2.24962 4.58839 2.71991C4.58839 3.1902 4.24636 3.54292 3.78676 3.54292H2.31176V1.8969H3.78676ZM4.01122 6.62119H2.31176V4.8576H4.01122C4.51357 4.8576 4.87698 5.23169 4.87698 5.73405C4.87698 6.2471 4.51357 6.62119 4.01122 6.62119ZM11.0388 2.65578V5.54166C11.0388 6.47155 10.5365 6.86703 9.8631 6.86703C9.24317 6.86703 8.80495 6.49293 8.80495 5.76612V2.65578H7.42614V5.93713C7.42614 7.35869 8.31328 8.14964 9.44625 8.14964C10.1624 8.14964 10.7182 7.88243 11.0388 7.40145V8H12.4176V2.65578H11.0388ZM16.89 3.98115V2.65578H15.6823V1.1594L14.3034 1.57625V2.65578H13.3735V3.98115H14.3034V6.20434C14.3034 7.64728 14.9554 8.21377 16.89 8V6.74945C16.0991 6.79221 15.6823 6.78152 15.6823 6.20434V3.98115H16.89ZM20.863 3.98115V2.65578H19.6552V1.1594L18.2764 1.57625V2.65578H17.3465V3.98115H18.2764V6.20434C18.2764 7.64728 18.9284 8.21377 20.863 8V6.74945C20.0721 6.79221 19.6552 6.78152 19.6552 6.20434V3.98115H20.863ZM24.3647 8.14964C25.9359 8.14964 27.1971 6.92047 27.1971 5.32789C27.1971 3.73531 25.9359 2.50614 24.3647 2.50614C22.7935 2.50614 21.5429 3.73531 21.5429 5.32789C21.5429 6.92047 22.7935 8.14964 24.3647 8.14964ZM24.3647 6.8029C23.5524 6.8029 22.9218 6.19365 22.9218 5.32789C22.9218 4.46213 23.5524 3.85289 24.3647 3.85289C25.1877 3.85289 25.8183 4.46213 25.8183 5.32789C25.8183 6.19365 25.1877 6.8029 24.3647 6.8029ZM31.2912 2.50614C30.5751 2.50614 30.0193 2.77335 29.6986 3.25433V2.65578H28.3198V8H29.6986V5.11412C29.6986 4.18423 30.201 3.78876 30.8743 3.78876C31.4943 3.78876 31.9325 4.16285 31.9325 4.88966V8H33.3113V4.71865C33.3113 3.29709 32.4242 2.50614 31.2912 2.50614Z" fill="#0E0E0E"/>
</svg>
