<svg width="63" height="19" viewBox="0 0 63 19" fill="none" xmlns="http://www.w3.org/2000/svg">
<path d="M4.19361 14.5957H6.58761L9.89161 4.7957H7.77761L5.39761 12.3277L3.00361 4.7957H0.903609L4.19361 14.5957ZM11.5746 6.7557C12.1906 6.7557 12.6946 6.2517 12.6946 5.6497C12.6946 5.0477 12.1906 4.5297 11.5746 4.5297C10.9726 4.5297 10.4686 5.0477 10.4686 5.6497C10.4686 6.2517 10.9726 6.7557 11.5746 6.7557ZM10.6786 14.5957H12.4846V7.5957H10.6786V14.5957ZM15.8636 11.8377H21.1416C21.1836 11.5997 21.2116 11.3617 21.2116 11.0957C21.2116 9.0377 19.7416 7.3997 17.6696 7.3997C15.4716 7.3997 13.9736 9.0097 13.9736 11.0957C13.9736 13.1817 15.4576 14.7917 17.8096 14.7917C19.1536 14.7917 20.2036 14.2457 20.8616 13.2937L19.4056 12.4537C19.0976 12.8597 18.5376 13.1537 17.8376 13.1537C16.8856 13.1537 16.1156 12.7617 15.8636 11.8377ZM15.8356 10.4377C16.0456 9.5417 16.7036 9.0237 17.6696 9.0237C18.4256 9.0237 19.1816 9.4297 19.4056 10.4377H15.8356ZM30.2809 7.5957L29.0909 11.9077L27.8169 7.5957H26.1089L24.8349 11.8937L23.6449 7.5957H21.7269L23.9529 14.5957H25.6749L26.9629 10.3537L28.2509 14.5957H29.9729L32.1989 7.5957H30.2809Z" fill="#0D0D0D"/>
<path d="M42.3464 8.84567H41.5964L41.5964 10.3457L42.3464 10.3457L42.3464 8.84567ZM42.3464 10.3457L61.3464 10.3457V8.84566L42.3464 8.84567L42.3464 10.3457ZM57.7254 5.5957C57.7254 8.19568 59.7713 10.3457 62.3464 10.3457V8.8457C60.6457 8.8457 59.2254 7.414 59.2254 5.5957L57.7254 5.5957ZM62.3464 8.8457C59.7713 8.8457 57.7253 10.9957 57.7253 13.5957H59.2253C59.2253 11.7774 60.6457 10.3457 62.3464 10.3457V8.8457Z" fill="#0D0D0D"/>
</svg>
