<svg width="127" height="16" viewBox="0 0 127 16" fill="none" xmlns="http://www.w3.org/2000/svg">
<path d="M3.90105 11.6251C5.55451 11.6251 6.7197 10.7373 6.7197 9.28361C6.7197 7.69673 5.41025 7.28614 4.17847 6.89774C3.00219 6.54264 2.70257 6.28741 2.70257 5.81023C2.70257 5.36635 3.07987 5.03344 3.7235 5.03344C4.51139 5.03344 4.93307 5.44403 5.2105 6.03217L6.49776 5.28867C5.9762 4.20116 4.99966 3.54644 3.7235 3.54644C2.39185 3.54644 1.17117 4.38981 1.17117 5.85462C1.17117 7.33053 2.32527 7.8299 3.51265 8.1739C4.66674 8.50682 5.18831 8.72876 5.18831 9.3058C5.18831 9.73859 4.86649 10.127 3.94544 10.127C2.97999 10.127 2.43624 9.66091 2.15881 8.9396L0.84936 9.7053C1.27105 10.8594 2.31417 11.6251 3.90105 11.6251ZM9.17176 9.28361H13.3553C13.3886 9.09496 13.4108 8.90631 13.4108 8.69547C13.4108 7.0642 12.2456 5.76584 10.6033 5.76584C8.86104 5.76584 7.67366 7.04201 7.67366 8.69547C7.67366 10.3489 8.84995 11.6251 10.7143 11.6251C11.7796 11.6251 12.6118 11.1923 13.1334 10.4377L11.9793 9.77188C11.7352 10.0937 11.2913 10.3267 10.7364 10.3267C9.98185 10.3267 9.37151 10.016 9.17176 9.28361ZM9.14957 8.1739C9.31602 7.46369 9.83758 7.0531 10.6033 7.0531C11.2025 7.0531 11.8018 7.37492 11.9793 8.1739H9.14957ZM17.1665 11.6251C18.254 11.6251 19.1972 11.048 19.6744 10.1825L18.4315 9.47226C18.2096 9.92724 17.7324 10.2047 17.1554 10.2047C16.3009 10.2047 15.6683 9.57213 15.6683 8.69547C15.6683 7.8077 16.3009 7.17517 17.1554 7.17517C17.7213 7.17517 18.1985 7.46369 18.4204 7.91867L19.6522 7.19736C19.1972 6.34289 18.254 5.76584 17.1665 5.76584C15.4797 5.76584 14.2368 7.04201 14.2368 8.69547C14.2368 10.3489 15.4797 11.6251 17.1665 11.6251ZM23.1444 11.6251C24.7757 11.6251 26.0851 10.3489 26.0851 8.69547C26.0851 7.04201 24.7757 5.76584 23.1444 5.76584C21.5132 5.76584 20.2148 7.04201 20.2148 8.69547C20.2148 10.3489 21.5132 11.6251 23.1444 11.6251ZM23.1444 10.2269C22.3011 10.2269 21.6463 9.59433 21.6463 8.69547C21.6463 7.7966 22.3011 7.16407 23.1444 7.16407C23.9989 7.16407 24.6536 7.7966 24.6536 8.69547C24.6536 9.59433 23.9989 10.2269 23.1444 10.2269ZM30.3357 5.76584C29.5922 5.76584 29.0152 6.04327 28.6822 6.54264V5.9212H27.2507V11.4697H28.6822V8.47352C28.6822 7.50808 29.2038 7.09749 29.9029 7.09749C30.5466 7.09749 31.0015 7.48589 31.0015 8.24049V11.4697H32.4331V8.06293C32.4331 6.58703 31.512 5.76584 30.3357 5.76584ZM38.0197 3.70179V6.57593C37.6202 6.06547 37.032 5.76584 36.222 5.76584C34.735 5.76584 33.5143 7.04201 33.5143 8.69547C33.5143 10.3489 34.735 11.6251 36.222 11.6251C37.032 11.6251 37.6202 11.3255 38.0197 10.815V11.4697H39.4512V3.70179H38.0197ZM36.4883 10.2601C35.6005 10.2601 34.9458 9.62762 34.9458 8.69547C34.9458 7.76331 35.6005 7.13078 36.4883 7.13078C37.365 7.13078 38.0197 7.76331 38.0197 8.69547C38.0197 9.62762 37.365 10.2601 36.4883 10.2601ZM45.1358 5.9212V6.57593C44.7363 6.07656 44.1371 5.76584 43.327 5.76584C41.8511 5.76584 40.6304 7.04201 40.6304 8.69547C40.6304 10.3489 41.8511 11.6251 43.327 11.6251C44.1371 11.6251 44.7363 11.3144 45.1358 10.815V11.4697H46.5673V5.9212H45.1358ZM43.5933 10.2601C42.7166 10.2601 42.0619 9.62762 42.0619 8.69547C42.0619 7.76331 42.7166 7.13078 43.5933 7.13078C44.4811 7.13078 45.1358 7.76331 45.1358 8.69547C45.1358 9.62762 44.4811 10.2601 43.5933 10.2601ZM49.4555 6.87555V5.9212H48.0239V11.4697H49.4555V8.81753C49.4555 7.65234 50.3987 7.31943 51.1422 7.40821V5.81023C50.4431 5.81023 49.744 6.12095 49.4555 6.87555ZM55.8748 5.9212L54.643 9.64981L53.2004 5.9212H51.6357L53.9106 11.2922C53.6443 12.0357 53.2448 12.3686 52.4569 12.3575V13.6891C53.8662 13.7668 54.8095 13.0677 55.3865 11.4697L57.4062 5.9212H55.8748ZM64.408 5.76584C63.5979 5.76584 63.0098 6.06547 62.6103 6.57593V3.70179H61.1788V11.4697H62.6103V10.815C63.0098 11.3255 63.5979 11.6251 64.408 11.6251C65.895 11.6251 67.1157 10.3489 67.1157 8.69547C67.1157 7.04201 65.895 5.76584 64.408 5.76584ZM64.1417 10.2601C63.265 10.2601 62.6103 9.62762 62.6103 8.69547C62.6103 7.76331 63.265 7.13078 64.1417 7.13078C65.0294 7.13078 65.6842 7.76331 65.6842 8.69547C65.6842 9.62762 65.0294 10.2601 64.1417 10.2601ZM71.9458 5.9212V8.91741C71.9458 9.88285 71.4243 10.2934 70.7252 10.2934C70.0815 10.2934 69.6265 9.90504 69.6265 9.15044V5.9212H68.195V9.328C68.195 10.8039 69.1161 11.6251 70.2924 11.6251C71.0359 11.6251 71.6129 11.3477 71.9458 10.8483V11.4697H73.3773V5.9212H71.9458ZM78.0207 7.29724V5.9212H76.7668V4.36762L75.3352 4.8004V5.9212H74.3698V7.29724H75.3352V9.60542C75.3352 11.1035 76.0122 11.6917 78.0207 11.4697V10.1714C77.1995 10.2158 76.7668 10.2047 76.7668 9.60542V7.29724H78.0207ZM82.1456 7.29724V5.9212H80.8916V4.36762L79.4601 4.8004V5.9212H78.4946V7.29724H79.4601V9.60542C79.4601 11.1035 80.137 11.6917 82.1456 11.4697V10.1714C81.3244 10.2158 80.8916 10.2047 80.8916 9.60542V7.29724H82.1456ZM85.7811 11.6251C87.4124 11.6251 88.7218 10.3489 88.7218 8.69547C88.7218 7.04201 87.4124 5.76584 85.7811 5.76584C84.1499 5.76584 82.8515 7.04201 82.8515 8.69547C82.8515 10.3489 84.1499 11.6251 85.7811 11.6251ZM85.7811 10.2269C84.9378 10.2269 84.283 9.59433 84.283 8.69547C84.283 7.7966 84.9378 7.16407 85.7811 7.16407C86.6356 7.16407 87.2903 7.7966 87.2903 8.69547C87.2903 9.59433 86.6356 10.2269 85.7811 10.2269ZM92.9724 5.76584C92.2289 5.76584 91.6519 6.04327 91.3189 6.54264V5.9212H89.8874V11.4697H91.3189V8.47352C91.3189 7.50808 91.8405 7.09749 92.5396 7.09749C93.1832 7.09749 93.6382 7.48589 93.6382 8.24049V11.4697H95.0697V8.06293C95.0697 6.58703 94.1487 5.76584 92.9724 5.76584ZM97.7711 7.49698C97.7711 7.19736 98.0597 7.04201 98.4148 7.04201C98.8254 7.04201 99.1361 7.25285 99.3025 7.60795L100.523 6.94213C100.09 6.17644 99.3136 5.76584 98.4148 5.76584C97.2718 5.76584 96.3063 6.39838 96.3063 7.53028C96.3063 9.48336 99.1694 9.03947 99.1694 9.84956C99.1694 10.1714 98.8587 10.3267 98.4037 10.3267C97.8488 10.3267 97.4715 10.0604 97.3162 9.60542L96.0733 10.3045C96.4728 11.159 97.294 11.6251 98.4037 11.6251C99.5911 11.6251 100.634 11.048 100.634 9.84956C100.634 7.8077 97.7711 8.31817 97.7711 7.49698Z" fill="white"/>
<path d="M111.241 7.40203H110.673L110.673 8.53727H111.241L111.241 7.40203ZM111.241 8.53727L125.621 8.53726V7.40203L111.241 7.40203L111.241 8.53727ZM122.88 4.94238C122.88 6.91011 124.428 8.53729 126.377 8.53729V7.40206C125.09 7.40206 124.015 6.31851 124.015 4.94238L122.88 4.94238ZM126.377 7.40206C124.429 7.40206 122.88 9.02922 122.88 10.997H124.015C124.015 9.62086 125.09 8.53729 126.377 8.53729V7.40206Z" fill="white"/>
</svg>
