<svg width="73" height="16" viewBox="0 0 73 16" fill="none" xmlns="http://www.w3.org/2000/svg">
<path d="M3.9374 11.2159C5.59086 11.2159 6.75605 10.3281 6.75605 8.87443C6.75605 7.28755 5.4466 6.87696 4.21483 6.48856C3.03854 6.13346 2.73892 5.87823 2.73892 5.40105C2.73892 4.95717 3.11622 4.62426 3.75985 4.62426C4.54774 4.62426 4.96943 5.03485 5.24686 5.62299L6.53411 4.87949C6.01255 3.79198 5.03601 3.13726 3.75985 3.13726C2.42821 3.13726 1.20753 3.98063 1.20753 5.44544C1.20753 6.92135 2.36162 7.42072 3.54901 7.76472C4.7031 8.09764 5.22466 8.31958 5.22466 8.89662C5.22466 9.32941 4.90285 9.7178 3.98179 9.7178C3.01635 9.7178 2.47259 9.25173 2.19517 8.53042L0.885716 9.29612C1.3074 10.4502 2.35053 11.2159 3.9374 11.2159ZM13.8777 5.51202L12.9345 8.92991L11.9246 5.51202H10.5708L9.56097 8.91882L8.61772 5.51202H7.09742L8.86185 11.0605H10.2268L11.2477 7.69814L12.2686 11.0605H13.6336L15.398 5.51202H13.8777ZM17.0383 4.8462C17.5266 4.8462 17.9261 4.44671 17.9261 3.96953C17.9261 3.49236 17.5266 3.08177 17.0383 3.08177C16.5612 3.08177 16.1617 3.49236 16.1617 3.96953C16.1617 4.44671 16.5612 4.8462 17.0383 4.8462ZM16.3281 11.0605H17.7597V5.51202H16.3281V11.0605ZM22.4022 6.88806V5.51202H21.1482V3.95844L19.7167 4.39122V5.51202H18.7512V6.88806H19.7167V9.19624C19.7167 10.6943 20.3936 11.2825 22.4022 11.0605V9.76219C21.581 9.80658 21.1482 9.79548 21.1482 9.19624V6.88806H22.4022ZM26.0377 11.2159C27.1252 11.2159 28.0685 10.6389 28.5456 9.77329L27.3028 9.06308C27.0808 9.51806 26.6037 9.79548 26.0266 9.79548C25.1721 9.79548 24.5396 9.16295 24.5396 8.28629C24.5396 7.39852 25.1721 6.76599 26.0266 6.76599C26.5926 6.76599 27.0697 7.05451 27.2917 7.50949L28.5235 6.78818C28.0685 5.93371 27.1252 5.35667 26.0377 5.35667C24.351 5.35667 23.1081 6.63283 23.1081 8.28629C23.1081 9.93975 24.351 11.2159 26.0377 11.2159ZM32.5463 5.35667C31.8028 5.35667 31.2257 5.63409 30.8928 6.13346V3.29261H29.4613V11.0605H30.8928V8.06434C30.8928 7.0989 31.4144 6.68831 32.1135 6.68831C32.7571 6.68831 33.2121 7.07671 33.2121 7.83131V11.0605H34.6436V7.65375C34.6436 6.17785 33.7226 5.35667 32.5463 5.35667ZM37.234 8.87443H41.4176C41.4509 8.68578 41.4731 8.49713 41.4731 8.28629C41.4731 6.65502 40.3079 5.35667 38.6656 5.35667C36.9233 5.35667 35.7359 6.63283 35.7359 8.28629C35.7359 9.93975 36.9122 11.2159 38.7765 11.2159C39.8418 11.2159 40.6741 10.7831 41.1957 10.0285L40.0416 9.3627C39.7975 9.68451 39.3536 9.91755 38.7987 9.91755C38.0441 9.91755 37.4338 9.60683 37.234 8.87443ZM37.2118 7.76472C37.3783 7.05451 37.8999 6.64392 38.6656 6.64392C39.2648 6.64392 39.864 6.96574 40.0416 7.76472H37.2118ZM43.7348 7.0878C43.7348 6.78818 44.0233 6.63283 44.3784 6.63283C44.789 6.63283 45.0997 6.84367 45.2662 7.19877L46.4869 6.53295C46.0541 5.76726 45.2773 5.35667 44.3784 5.35667C43.2354 5.35667 42.27 5.9892 42.27 7.1211C42.27 9.07418 45.133 8.63029 45.133 9.44038C45.133 9.76219 44.8223 9.91755 44.3673 9.91755C43.8125 9.91755 43.4352 9.65122 43.2798 9.19624L42.0369 9.89536C42.4364 10.7498 43.2576 11.2159 44.3673 11.2159C45.5547 11.2159 46.5978 10.6389 46.5978 9.44038C46.5978 7.39852 43.7348 7.90899 43.7348 7.0878Z" fill="white"/>
<path d="M57.2409 6.99285H56.6733L56.6733 8.12809H57.2409L57.2409 6.99285ZM57.2409 8.12809L71.6205 8.12808V6.99285L57.2409 6.99285L57.2409 8.12809ZM68.8801 4.5332C68.8801 6.50093 70.4285 8.12811 72.3774 8.12811V6.99288C71.0903 6.99288 70.0153 5.90933 70.0153 4.5332L68.8801 4.5332ZM72.3774 6.99288C70.4285 6.99288 68.88 8.62004 68.88 10.5878H70.0153C70.0153 9.21168 71.0902 8.12811 72.3774 8.12811V6.99288Z" fill="white"/>
</svg>
