<svg width="121" height="32" viewBox="0 0 121 32" fill="none" xmlns="http://www.w3.org/2000/svg">
<path d="M10.7576 7.6352C12.7496 7.6352 14.3336 8.2712 15.5096 9.5432C16.7096 10.8152 17.3096 12.9872 17.3096 16.0592C17.3096 19.1312 16.7096 21.3032 15.5096 22.5752C14.3336 23.8472 12.7496 24.4832 10.7576 24.4832C9.46161 24.4832 8.34561 24.1232 7.40961 23.4032C6.47361 22.6592 5.83761 21.7712 5.50161 20.7392V31.2152H0.389613V30.2792C0.989613 30.2792 1.40961 30.1712 1.64961 29.9552C1.91361 29.7392 2.04561 29.3192 2.04561 28.6952V10.4792C2.04561 9.8552 1.91361 9.4352 1.64961 9.2192C1.40961 9.0032 0.989613 8.8952 0.389613 8.8952V7.9592H5.50161V11.1272C5.81361 10.1672 6.43761 9.3512 7.37361 8.6792C8.30961 7.9832 9.43761 7.6352 10.7576 7.6352ZM9.85761 22.7552C11.3216 22.7552 12.3176 22.1792 12.8456 21.0272C13.3736 19.8752 13.6376 18.2192 13.6376 16.0592C13.6376 13.9472 13.3616 12.3032 12.8096 11.1272C12.2576 9.9512 11.2736 9.3632 9.85761 9.3632C8.65761 9.3632 7.62561 9.8792 6.76161 10.9112C5.92161 11.9432 5.50161 13.6592 5.50161 16.0592C5.50161 18.4592 5.92161 20.1752 6.76161 21.2072C7.62561 22.2392 8.65761 22.7552 9.85761 22.7552ZM29.6022 7.7432C30.2742 7.7432 30.8862 7.8752 31.4382 8.1392C32.0142 8.3792 32.4462 8.7272 32.7342 9.1832L31.5462 12.4952L31.1502 12.3872C31.1742 11.8592 30.9822 11.3912 30.5742 10.9832C30.1662 10.5752 29.6142 10.3712 28.9182 10.3712C27.6942 10.3712 26.6862 11.0672 25.8942 12.4592C25.1262 13.8272 24.7422 16.1432 24.7422 19.4072V21.7112C24.7422 22.3352 24.8622 22.7552 25.1022 22.9712C25.3662 23.1872 25.7982 23.2952 26.3982 23.2952V24.2312H19.6302V23.2952C20.2302 23.2952 20.6502 23.1872 20.8902 22.9712C21.1542 22.7552 21.2862 22.3352 21.2862 21.7112V10.4792C21.2862 9.8552 21.1542 9.4352 20.8902 9.2192C20.6502 9.0032 20.2302 8.8952 19.6302 8.8952V7.9592H24.7422V13.7192H24.8142C25.1022 12.0392 25.6182 10.6232 26.3622 9.4712C27.1062 8.3192 28.1862 7.7432 29.6022 7.7432ZM39.3178 21.7112C39.3178 22.3352 39.4378 22.7552 39.6778 22.9712C39.9418 23.1872 40.3738 23.2952 40.9738 23.2952V24.2312H34.2058V23.2952C34.8058 23.2952 35.2258 23.1872 35.4658 22.9712C35.7298 22.7552 35.8618 22.3352 35.8618 21.7112V10.4792C35.8618 9.8552 35.7298 9.4352 35.4658 9.2192C35.2258 9.0032 34.8058 8.8952 34.2058 8.8952V7.9592H39.3178V21.7112ZM37.5178 5.3672L34.9618 2.7752L37.5178 0.219199L40.1098 2.7752L37.5178 5.3672ZM68.2894 21.7112C68.2894 22.3352 68.4094 22.7552 68.6494 22.9712C68.9134 23.1872 69.3454 23.2952 69.9454 23.2952V24.2312H63.1774V23.2952C63.7774 23.2952 64.1974 23.1872 64.4374 22.9712C64.7014 22.7552 64.8334 22.3352 64.8334 21.7112V14.2592C64.8334 12.6032 64.6534 11.4152 64.2934 10.6952C63.9334 9.9752 63.2494 9.6152 62.2414 9.6152C61.0654 9.6152 60.0934 10.2392 59.3254 11.4872C58.5814 12.7352 58.2094 14.8232 58.2094 17.7512V21.7112C58.2094 22.3352 58.3294 22.7552 58.5694 22.9712C58.8334 23.1872 59.2654 23.2952 59.8654 23.2952V24.2312H53.0974V23.2952C53.6974 23.2952 54.1174 23.1872 54.3574 22.9712C54.6214 22.7552 54.7534 22.3352 54.7534 21.7112V14.2592C54.7534 12.6272 54.5734 11.4512 54.2134 10.7312C53.8534 9.9872 53.1694 9.6152 52.1614 9.6152C49.6174 9.6152 48.3454 12.3272 48.3454 17.7512V21.7112C48.3454 22.3352 48.4654 22.7552 48.7054 22.9712C48.9694 23.1872 49.4014 23.2952 50.0014 23.2952V24.2312H43.2334V23.2952C43.8334 23.2952 44.2534 23.1872 44.4934 22.9712C44.7574 22.7552 44.8894 22.3352 44.8894 21.7112V10.4792C44.8894 9.8552 44.7574 9.4352 44.4934 9.2192C44.2534 9.0032 43.8334 8.8952 43.2334 8.8952V7.9592H48.3454V12.1712H48.4174C48.5614 10.9712 49.0294 9.9152 49.8214 9.0032C50.6374 8.0912 51.8254 7.6352 53.3854 7.6352C56.2174 7.6352 57.8014 9.1952 58.1374 12.3152H58.2814C58.4494 10.9952 58.9534 9.8912 59.7934 9.0032C60.6334 8.0912 61.7974 7.6352 63.2854 7.6352C66.6214 7.6352 68.2894 9.6272 68.2894 13.6112V21.7112ZM85.0775 21.7112C85.0775 22.3352 85.1975 22.7552 85.4375 22.9712C85.7015 23.1872 86.1335 23.2952 86.7335 23.2952V24.2312H82.0535V19.6592H81.9455C81.6575 21.0512 81.1175 22.2032 80.3255 23.1152C79.5575 24.0272 78.4295 24.4832 76.9415 24.4832C73.7255 24.4832 72.1175 22.6352 72.1175 18.9392C72.1175 17.7872 72.2975 16.7912 72.6575 15.9512L81.8735 14.9432V14.3312C81.8735 11.0192 80.7935 9.3632 78.6335 9.3632C77.7215 9.3632 77.0255 9.6152 76.5455 10.1192C76.0655 10.5992 75.8255 11.2352 75.8255 12.0272C75.8255 12.3872 75.8855 12.7832 76.0055 13.2152V13.3232L72.8735 13.6112C72.6815 13.0352 72.5855 12.5672 72.5855 12.2072C72.5855 10.8872 73.1495 9.7952 74.2775 8.9312C75.4295 8.0672 76.9415 7.6352 78.8135 7.6352C80.6615 7.6352 82.0415 8.0192 82.9535 8.7872C83.8895 9.5552 84.4775 10.4792 84.7175 11.5592C84.9575 12.6392 85.0775 13.9112 85.0775 15.3752V21.7112ZM77.7695 22.5032C78.8015 22.5032 79.6895 21.9512 80.4335 20.8472C81.2015 19.7432 81.6575 18.1232 81.8015 15.9872L75.7535 17.2112C75.5375 17.7392 75.4295 18.4472 75.4295 19.3352C75.4295 20.2952 75.6215 21.0632 76.0055 21.6392C76.4135 22.2152 77.0015 22.5032 77.7695 22.5032ZM98.9218 7.7432C99.5938 7.7432 100.206 7.8752 100.758 8.1392C101.334 8.3792 101.766 8.7272 102.054 9.1832L100.866 12.4952L100.47 12.3872C100.494 11.8592 100.302 11.3912 99.8938 10.9832C99.4858 10.5752 98.9338 10.3712 98.2378 10.3712C97.0138 10.3712 96.0058 11.0672 95.2138 12.4592C94.4458 13.8272 94.0618 16.1432 94.0618 19.4072V21.7112C94.0618 22.3352 94.1818 22.7552 94.4218 22.9712C94.6858 23.1872 95.1178 23.2952 95.7178 23.2952V24.2312H88.9498V23.2952C89.5498 23.2952 89.9698 23.1872 90.2098 22.9712C90.4738 22.7552 90.6058 22.3352 90.6058 21.7112V10.4792C90.6058 9.8552 90.4738 9.4352 90.2098 9.2192C89.9698 9.0032 89.5498 8.8952 88.9498 8.8952V7.9592H94.0618V13.7192H94.1338C94.4218 12.0392 94.9378 10.6232 95.6818 9.4712C96.4258 8.3192 97.5058 7.7432 98.9218 7.7432ZM120.426 8.8952C119.778 8.8952 119.25 9.0032 118.842 9.2192C118.458 9.4112 118.17 9.7952 117.978 10.3712L112.506 27.1832C112.122 28.3832 111.714 29.2952 111.282 29.9192C110.85 30.5432 110.358 30.9752 109.806 31.2152C109.278 31.4552 108.594 31.5752 107.754 31.5752C106.242 31.5752 105.09 31.1912 104.298 30.4232C103.53 29.6552 103.146 28.6592 103.146 27.4352C103.146 27.1232 103.158 26.8832 103.182 26.7152L106.278 26.9672C106.254 27.0872 106.242 27.2552 106.242 27.4712C106.242 28.2152 106.422 28.7792 106.782 29.1632C107.142 29.5472 107.562 29.7392 108.042 29.7392C108.594 29.7392 109.038 29.5592 109.374 29.1992C109.71 28.8392 110.034 28.1672 110.346 27.1832L111.318 24.2312H109.158L104.658 10.3712C104.466 9.7952 104.166 9.4112 103.758 9.2192C103.374 9.0032 102.858 8.8952 102.21 8.8952V7.9592H107.502L112.038 21.9632L115.818 10.3712C115.89 10.1552 115.926 9.9752 115.926 9.8312C115.926 9.4472 115.698 9.1952 115.242 9.0752C114.81 8.9552 114.042 8.8952 112.938 8.8952V7.9592H120.426V8.8952Z" fill="white"/>
</svg>
