<svg width="137" height="24" viewBox="0 0 137 24" fill="none" xmlns="http://www.w3.org/2000/svg">
<path d="M13.3908 20.48C13.3908 21.104 13.5108 21.524 13.7508 21.74C14.0148 21.956 14.4468 22.064 15.0468 22.064V23H10.3668V18.428H10.2588C9.97078 19.82 9.43078 20.972 8.63878 21.884C7.87078 22.796 6.74278 23.252 5.25478 23.252C2.03878 23.252 0.430784 21.404 0.430784 17.708C0.430784 16.556 0.610784 15.56 0.970784 14.72L10.1868 13.712V13.1C10.1868 9.788 9.10679 8.132 6.94678 8.132C6.03478 8.132 5.33878 8.384 4.85878 8.888C4.37878 9.368 4.13878 10.004 4.13878 10.796C4.13878 11.156 4.19878 11.552 4.31878 11.984V12.092L1.18678 12.38C0.994784 11.804 0.898784 11.336 0.898784 10.976C0.898784 9.656 1.46278 8.564 2.59078 7.7C3.74278 6.836 5.25478 6.404 7.12678 6.404C8.97478 6.404 10.3548 6.788 11.2668 7.556C12.2028 8.324 12.7908 9.248 13.0308 10.328C13.2708 11.408 13.3908 12.68 13.3908 14.144V20.48ZM6.08278 21.272C7.11478 21.272 8.00278 20.72 8.74678 19.616C9.51478 18.512 9.97078 16.892 10.1148 14.756L4.06678 15.98C3.85078 16.508 3.74278 17.216 3.74278 18.104C3.74278 19.064 3.93478 19.832 4.31878 20.408C4.72678 20.984 5.31478 21.272 6.08278 21.272ZM31.9612 20.48C31.9612 21.104 32.0812 21.524 32.3212 21.74C32.5852 21.956 33.0172 22.064 33.6172 22.064V23H28.5052V19.508C28.1692 20.54 27.5332 21.428 26.5972 22.172C25.6612 22.892 24.5452 23.252 23.2492 23.252C21.2572 23.252 19.6612 22.616 18.4612 21.344C17.2852 20.072 16.6972 17.9 16.6972 14.828C16.6972 11.756 17.2852 9.584 18.4612 8.312C19.6612 7.04 21.2572 6.404 23.2492 6.404C24.5692 6.404 25.6972 6.752 26.6332 7.448C27.5692 8.12 28.1932 8.936 28.5052 9.896V2.588C28.5052 1.964 28.3732 1.544 28.1092 1.328C27.8692 1.112 27.4492 1.004 26.8492 1.004V0.0679991H31.9612V20.48ZM24.1492 21.524C25.3492 21.524 26.3692 21.008 27.2092 19.976C28.0732 18.944 28.5052 17.228 28.5052 14.828C28.5052 12.428 28.0732 10.712 27.2092 9.68C26.3692 8.648 25.3492 8.132 24.1492 8.132C22.7332 8.132 21.7492 8.72 21.1972 9.896C20.6452 11.072 20.3692 12.716 20.3692 14.828C20.3692 16.988 20.6332 18.644 21.1612 19.796C21.6892 20.948 22.6852 21.524 24.1492 21.524ZM50.4877 7.664C49.8637 7.664 49.3597 7.772 48.9757 7.988C48.5917 8.18 48.3277 8.576 48.1837 9.176L44.4757 23H40.1917L36.3397 9.14C36.1717 8.564 35.8957 8.18 35.5117 7.988C35.1277 7.772 34.6237 7.664 33.9997 7.664V6.728H39.1477L42.9997 20.696L46.0237 9.176C46.0717 8.888 46.0957 8.708 46.0957 8.636C46.0957 8.252 45.9037 8 45.5197 7.88C45.1597 7.736 44.5117 7.664 43.5757 7.664V6.728H50.4877V7.664ZM63.9478 20.48C63.9478 21.104 64.0678 21.524 64.3078 21.74C64.5718 21.956 65.0038 22.064 65.6038 22.064V23H60.9238V18.428H60.8158C60.5278 19.82 59.9878 20.972 59.1958 21.884C58.4278 22.796 57.2998 23.252 55.8118 23.252C52.5958 23.252 50.9878 21.404 50.9878 17.708C50.9878 16.556 51.1678 15.56 51.5278 14.72L60.7438 13.712V13.1C60.7438 9.788 59.6638 8.132 57.5038 8.132C56.5918 8.132 55.8958 8.384 55.4158 8.888C54.9358 9.368 54.6958 10.004 54.6958 10.796C54.6958 11.156 54.7558 11.552 54.8758 11.984V12.092L51.7438 12.38C51.5518 11.804 51.4558 11.336 51.4558 10.976C51.4558 9.656 52.0198 8.564 53.1478 7.7C54.2998 6.836 55.8118 6.404 57.6838 6.404C59.5318 6.404 60.9118 6.788 61.8238 7.556C62.7598 8.324 63.3478 9.248 63.5878 10.328C63.8278 11.408 63.9478 12.68 63.9478 14.144V20.48ZM56.6398 21.272C57.6718 21.272 58.5598 20.72 59.3038 19.616C60.0718 18.512 60.5278 16.892 60.6718 14.756L54.6238 15.98C54.4078 16.508 54.2998 17.216 54.2998 18.104C54.2998 19.064 54.4918 19.832 54.8758 20.408C55.2838 20.984 55.8718 21.272 56.6398 21.272ZM83.0121 20.48C83.0121 21.104 83.1321 21.524 83.3721 21.74C83.6361 21.956 84.0681 22.064 84.6681 22.064V23H77.9001V22.064C78.5001 22.064 78.9201 21.956 79.1601 21.74C79.4241 21.524 79.5561 21.104 79.5561 20.48V13.028C79.5561 11.372 79.3761 10.184 79.0161 9.464C78.6561 8.744 77.9721 8.384 76.9641 8.384C75.7881 8.384 74.8161 9.008 74.0481 10.256C73.3041 11.504 72.9321 13.592 72.9321 16.52V20.48C72.9321 21.104 73.0521 21.524 73.2921 21.74C73.5561 21.956 73.9881 22.064 74.5881 22.064V23H67.8201V22.064C68.4201 22.064 68.8401 21.956 69.0801 21.74C69.3441 21.524 69.4761 21.104 69.4761 20.48V9.248C69.4761 8.624 69.3441 8.204 69.0801 7.988C68.8401 7.772 68.4201 7.664 67.8201 7.664V6.728H72.9321V11.084H73.0041C73.1721 9.764 73.6761 8.66 74.5161 7.772C75.3561 6.86 76.5201 6.404 78.0081 6.404C81.3441 6.404 83.0121 8.396 83.0121 12.38V20.48ZM96.8091 13.316C96.9531 12.548 97.0251 11.864 97.0251 11.264C97.0251 10.256 96.7611 9.488 96.2331 8.96C95.7291 8.408 94.9851 8.132 94.0011 8.132C92.6331 8.132 91.5651 8.696 90.7971 9.824C90.0291 10.952 89.6451 12.572 89.6451 14.684C89.6451 16.82 90.1131 18.464 91.0491 19.616C91.9851 20.744 93.3051 21.308 95.0091 21.308C96.2811 21.308 97.3131 20.996 98.1051 20.372C98.8971 19.724 99.4851 18.98 99.8691 18.14L100.589 18.428C100.181 19.652 99.4731 20.768 98.4651 21.776C97.4571 22.76 96.0291 23.252 94.1811 23.252C91.7571 23.252 89.8371 22.52 88.4211 21.056C87.0291 19.592 86.3331 17.528 86.3331 14.864C86.3331 12.152 87.0411 10.064 88.4571 8.6C89.8971 7.136 91.7931 6.404 94.1451 6.404C96.2091 6.404 97.7571 6.896 98.7891 7.88C99.8451 8.864 100.373 10.268 100.373 12.092C100.373 12.548 100.337 13.052 100.265 13.604L96.8091 13.316ZM117.207 18.428C116.799 19.676 116.103 20.792 115.119 21.776C114.135 22.76 112.719 23.252 110.871 23.252C108.423 23.252 106.491 22.532 105.075 21.092C103.659 19.628 102.951 17.516 102.951 14.756C102.951 12.044 103.611 9.98 104.931 8.564C106.275 7.124 108.111 6.404 110.439 6.404C112.551 6.404 114.171 6.98 115.299 8.132C116.451 9.26 117.027 10.832 117.027 12.848C117.027 13.64 117.003 14.228 116.955 14.612L106.263 14.936C106.311 16.976 106.803 18.536 107.739 19.616C108.699 20.696 110.019 21.236 111.699 21.236C113.883 21.236 115.479 20.204 116.487 18.14L117.207 18.428ZM110.547 8.132C109.323 8.132 108.327 8.588 107.559 9.5C106.815 10.388 106.395 11.804 106.299 13.748L113.607 13.172C113.727 12.644 113.787 12.116 113.787 11.588C113.787 10.628 113.487 9.812 112.887 9.14C112.311 8.468 111.531 8.132 110.547 8.132ZM134.833 20.48C134.833 21.104 134.953 21.524 135.193 21.74C135.457 21.956 135.889 22.064 136.489 22.064V23H131.377V19.508C131.041 20.54 130.405 21.428 129.469 22.172C128.533 22.892 127.417 23.252 126.121 23.252C124.129 23.252 122.533 22.616 121.333 21.344C120.157 20.072 119.569 17.9 119.569 14.828C119.569 11.756 120.157 9.584 121.333 8.312C122.533 7.04 124.129 6.404 126.121 6.404C127.441 6.404 128.569 6.752 129.505 7.448C130.441 8.12 131.065 8.936 131.377 9.896V2.588C131.377 1.964 131.245 1.544 130.981 1.328C130.741 1.112 130.321 1.004 129.721 1.004V0.0679991H134.833V20.48ZM127.021 21.524C128.221 21.524 129.241 21.008 130.081 19.976C130.945 18.944 131.377 17.228 131.377 14.828C131.377 12.428 130.945 10.712 130.081 9.68C129.241 8.648 128.221 8.132 127.021 8.132C125.605 8.132 124.621 8.72 124.069 9.896C123.517 11.072 123.241 12.716 123.241 14.828C123.241 16.988 123.505 18.644 124.033 19.796C124.561 20.948 125.557 21.524 127.021 21.524Z" fill="white"/>
</svg>
