<svg width="111" height="24" viewBox="0 0 111 24" fill="none" xmlns="http://www.w3.org/2000/svg">
<path d="M10.5856 6.6352C12.5776 6.6352 14.1616 7.2712 15.3376 8.5432C16.5376 9.8152 17.1376 11.9872 17.1376 15.0592C17.1376 18.1312 16.5376 20.3032 15.3376 21.5752C14.1616 22.8472 12.5776 23.4832 10.5856 23.4832C9.28961 23.4832 8.17361 23.1232 7.23761 22.4032C6.30161 21.6592 5.66561 20.7712 5.32961 19.7392V23.2312H0.217613V22.2952C0.817613 22.2952 1.23761 22.1872 1.47761 21.9712C1.74161 21.7552 1.87361 21.3352 1.87361 20.7112V2.8192C1.87361 2.1952 1.74161 1.7752 1.47761 1.5592C1.23761 1.3432 0.817613 1.2352 0.217613 1.2352V0.2992H5.32961V10.1272C5.64161 9.1672 6.26561 8.3512 7.20161 7.6792C8.13761 6.9832 9.26561 6.6352 10.5856 6.6352ZM9.68561 21.7552C11.1496 21.7552 12.1456 21.1792 12.6736 20.0272C13.2016 18.8752 13.4656 17.2192 13.4656 15.0592C13.4656 12.9472 13.1896 11.3032 12.6376 10.1272C12.0856 8.9512 11.1016 8.3632 9.68561 8.3632C8.48561 8.3632 7.45361 8.8792 6.58961 9.9112C5.74961 10.9432 5.32961 12.6592 5.32961 15.0592C5.32961 17.4592 5.74961 19.1752 6.58961 20.2072C7.45361 21.2392 8.48561 21.7552 9.68561 21.7552ZM33.6571 20.7112C33.6571 21.3352 33.7771 21.7552 34.0171 21.9712C34.2811 22.1872 34.7131 22.2952 35.3131 22.2952V23.2312H30.2011V19.4512C29.9371 20.6032 29.3851 21.5632 28.5451 22.3312C27.7051 23.0992 26.6011 23.4832 25.2331 23.4832C23.5291 23.4832 22.2691 23.0272 21.4531 22.1152C20.6371 21.2032 20.2291 19.7872 20.2291 17.8672V9.4792C20.2291 8.8552 20.0971 8.4352 19.8331 8.2192C19.5931 8.0032 19.1731 7.8952 18.5731 7.8952V6.9592H23.6851V16.8592C23.6851 18.5152 23.8651 19.7032 24.2251 20.4232C24.5851 21.1432 25.2691 21.5032 26.2771 21.5032C27.4291 21.5032 28.3651 20.8792 29.0851 19.6312C29.8291 18.3832 30.2011 16.2952 30.2011 13.3672V9.4792C30.2011 8.8552 30.0691 8.4352 29.8051 8.2192C29.5651 8.0032 29.1451 7.8952 28.5451 7.8952V6.9592H33.6571V20.7112ZM47.8856 8.9752H42.1616V18.5512C42.1616 19.4152 42.3776 20.0872 42.8096 20.5672C43.2416 21.0472 43.8416 21.2872 44.6096 21.2872C45.9296 21.2872 46.6976 20.3872 46.9136 18.5872H47.6336C47.5616 21.8512 46.0976 23.4832 43.2416 23.4832C41.7776 23.4832 40.6496 23.0392 39.8576 22.1512C39.0896 21.2632 38.7056 19.9912 38.7056 18.3352V8.9752H36.0416V7.5712C37.6496 7.3552 38.8256 6.7912 39.5696 5.8792C40.3376 4.9672 40.7936 3.6592 40.9376 1.9552H42.1616V7.5712L45.0776 6.9592H47.8856V8.9752ZM60.32 8.9752H54.596V18.5512C54.596 19.4152 54.812 20.0872 55.244 20.5672C55.676 21.0472 56.276 21.2872 57.044 21.2872C58.364 21.2872 59.132 20.3872 59.348 18.5872H60.068C59.996 21.8512 58.532 23.4832 55.676 23.4832C54.212 23.4832 53.084 23.0392 52.292 22.1512C51.524 21.2632 51.14 19.9912 51.14 18.3352V8.9752H48.476V7.5712C50.084 7.3552 51.26 6.7912 52.004 5.8792C52.772 4.9672 53.228 3.6592 53.372 1.9552H54.596V7.5712L57.512 6.9592H60.32V8.9752ZM69.5771 6.6352C72.0251 6.6352 73.9331 7.3912 75.3011 8.9032C76.6691 10.4152 77.3531 12.4672 77.3531 15.0592C77.3531 17.6512 76.6691 19.7032 75.3011 21.2152C73.9331 22.7272 72.0251 23.4832 69.5771 23.4832C67.1291 23.4832 65.2211 22.7272 63.8531 21.2152C62.4851 19.7032 61.8011 17.6512 61.8011 15.0592C61.8011 12.4672 62.4851 10.4152 63.8531 8.9032C65.2211 7.3912 67.1291 6.6352 69.5771 6.6352ZM69.5771 21.7552C70.9931 21.7552 72.0251 21.1552 72.6731 19.9552C73.3451 18.7312 73.6811 17.0992 73.6811 15.0592C73.6811 13.0192 73.3451 11.3992 72.6731 10.1992C72.0251 8.9752 70.9931 8.3632 69.5771 8.3632C68.1611 8.3632 67.1171 8.9752 66.4451 10.1992C65.7971 11.3992 65.4731 13.0192 65.4731 15.0592C65.4731 17.0992 65.7971 18.7312 66.4451 19.9552C67.1171 21.1552 68.1611 21.7552 69.5771 21.7552ZM94.634 20.7112C94.634 21.3352 94.754 21.7552 94.994 21.9712C95.258 22.1872 95.69 22.2952 96.29 22.2952V23.2312H89.522V22.2952C90.122 22.2952 90.542 22.1872 90.782 21.9712C91.046 21.7552 91.178 21.3352 91.178 20.7112V13.2592C91.178 11.6032 90.998 10.4152 90.638 9.6952C90.278 8.9752 89.594 8.6152 88.586 8.6152C87.41 8.6152 86.438 9.2392 85.67 10.4872C84.926 11.7352 84.554 13.8232 84.554 16.7512V20.7112C84.554 21.3352 84.674 21.7552 84.914 21.9712C85.178 22.1872 85.61 22.2952 86.21 22.2952V23.2312H79.442V22.2952C80.042 22.2952 80.462 22.1872 80.702 21.9712C80.966 21.7552 81.098 21.3352 81.098 20.7112V9.4792C81.098 8.8552 80.966 8.4352 80.702 8.2192C80.462 8.0032 80.042 7.8952 79.442 7.8952V6.9592H84.554V11.3152H84.626C84.794 9.9952 85.298 8.8912 86.138 8.0032C86.978 7.0912 88.142 6.6352 89.63 6.6352C92.966 6.6352 94.634 8.6272 94.634 12.6112V20.7112ZM106.872 13.7992C108.36 14.2072 109.392 14.8312 109.968 15.6712C110.544 16.4872 110.832 17.4832 110.832 18.6592C110.832 20.5072 110.208 21.7792 108.96 22.4752C107.736 23.1472 106.26 23.4832 104.532 23.4832C102.972 23.4832 101.664 23.2312 100.608 22.7272C99.576 22.1992 98.784 21.5872 98.232 20.8912V16.3912H98.844C99.204 18.1912 99.852 19.5352 100.788 20.4232C101.748 21.3112 102.96 21.7552 104.424 21.7552C105.456 21.7552 106.26 21.5152 106.836 21.0352C107.436 20.5552 107.736 19.8712 107.736 18.9832C107.736 17.7112 106.968 16.8712 105.432 16.4632L102.228 15.6352C99.804 15.0112 98.592 13.6672 98.592 11.6032C98.592 10.1632 99.144 8.9752 100.248 8.0392C101.352 7.1032 102.876 6.6352 104.82 6.6352C105.828 6.6352 106.788 6.7912 107.7 7.1032C108.636 7.3912 109.416 7.8112 110.04 8.3632L110.4 12.6112L109.788 12.6832C109.26 11.2432 108.6 10.1632 107.808 9.4432C107.04 8.7232 106.044 8.3632 104.82 8.3632C103.932 8.3632 103.188 8.5912 102.588 9.0472C101.988 9.5032 101.688 10.0912 101.688 10.8112C101.688 11.3872 101.844 11.8432 102.156 12.1792C102.492 12.4912 103.14 12.7792 104.1 13.0432L106.872 13.7992Z" fill="white"/>
</svg>
