<svg width="153" height="32" viewBox="0 0 153 32" fill="none" xmlns="http://www.w3.org/2000/svg">
<path d="M9.37667 14.462C10.8647 14.87 11.8967 15.494 12.4727 16.334C13.0487 17.15 13.3367 18.146 13.3367 19.322C13.3367 21.17 12.7127 22.442 11.4647 23.138C10.2407 23.81 8.76467 24.146 7.03667 24.146C5.47667 24.146 4.16867 23.894 3.11267 23.39C2.08067 22.862 1.28867 22.25 0.73667 21.554V17.054H1.34867C1.70867 18.854 2.35667 20.198 3.29267 21.086C4.25267 21.974 5.46467 22.418 6.92867 22.418C7.96067 22.418 8.76467 22.178 9.34067 21.698C9.94067 21.218 10.2407 20.534 10.2407 19.646C10.2407 18.374 9.47267 17.534 7.93667 17.126L4.73267 16.298C2.30867 15.674 1.09667 14.33 1.09667 12.266C1.09667 10.826 1.64867 9.63804 2.75267 8.70204C3.85667 7.76604 5.38067 7.29804 7.32467 7.29804C8.33267 7.29804 9.29267 7.45404 10.2047 7.76604C11.1407 8.05404 11.9207 8.47404 12.5447 9.02604L12.9047 13.274L12.2927 13.346C11.7647 11.906 11.1047 10.826 10.3127 10.106C9.54467 9.38604 8.54867 9.02604 7.32467 9.02604C6.43667 9.02604 5.69267 9.25404 5.09267 9.71004C4.49267 10.166 4.19267 10.754 4.19267 11.474C4.19267 12.05 4.34867 12.506 4.66067 12.842C4.99667 13.154 5.64467 13.442 6.60467 13.706L9.37667 14.462ZM29.8219 19.322C29.4139 20.57 28.7179 21.686 27.7339 22.67C26.7499 23.654 25.3339 24.146 23.4859 24.146C21.0379 24.146 19.1059 23.426 17.6899 21.986C16.2739 20.522 15.5659 18.41 15.5659 15.65C15.5659 12.938 16.2259 10.874 17.5459 9.45804C18.8899 8.01804 20.7259 7.29804 23.0539 7.29804C25.1659 7.29804 26.7859 7.87404 27.9139 9.02604C29.0659 10.154 29.6419 11.726 29.6419 13.742C29.6419 14.534 29.6179 15.122 29.5699 15.506L18.8779 15.83C18.9259 17.87 19.4179 19.43 20.3539 20.51C21.3139 21.59 22.6339 22.13 24.3139 22.13C26.4979 22.13 28.0939 21.098 29.1019 19.034L29.8219 19.322ZM23.1619 9.02604C21.9379 9.02604 20.9419 9.48204 20.1739 10.394C19.4299 11.282 19.0099 12.698 18.9139 14.642L26.2219 14.066C26.3419 13.538 26.4019 13.01 26.4019 12.482C26.4019 11.522 26.1019 10.706 25.5019 10.034C24.9259 9.36204 24.1459 9.02604 23.1619 9.02604ZM42.6599 14.21C42.8039 13.442 42.8759 12.758 42.8759 12.158C42.8759 11.15 42.6119 10.382 42.0839 9.85404C41.5799 9.30204 40.8359 9.02604 39.8519 9.02604C38.4839 9.02604 37.4159 9.59004 36.6479 10.718C35.8799 11.846 35.4959 13.466 35.4959 15.578C35.4959 17.714 35.9639 19.358 36.8999 20.51C37.8359 21.638 39.1559 22.202 40.8599 22.202C42.1319 22.202 43.1639 21.89 43.9559 21.266C44.7479 20.618 45.3359 19.874 45.7199 19.034L46.4399 19.322C46.0319 20.546 45.3239 21.662 44.3159 22.67C43.3079 23.654 41.8799 24.146 40.0319 24.146C37.6079 24.146 35.6879 23.414 34.2719 21.95C32.8799 20.486 32.1839 18.422 32.1839 15.758C32.1839 13.046 32.8919 10.958 34.3079 9.49404C35.7479 8.03004 37.6439 7.29804 39.9959 7.29804C42.0599 7.29804 43.6079 7.79004 44.6399 8.77404C45.6959 9.75804 46.2239 11.162 46.2239 12.986C46.2239 13.442 46.1879 13.946 46.1159 14.498L42.6599 14.21ZM56.4724 7.29804C58.9204 7.29804 60.8284 8.05404 62.1964 9.56604C63.5644 11.078 64.2484 13.13 64.2484 15.722C64.2484 18.314 63.5644 20.366 62.1964 21.878C60.8284 23.39 58.9204 24.146 56.4724 24.146C54.0244 24.146 52.1164 23.39 50.7484 21.878C49.3804 20.366 48.6964 18.314 48.6964 15.722C48.6964 13.13 49.3804 11.078 50.7484 9.56604C52.1164 8.05404 54.0244 7.29804 56.4724 7.29804ZM56.4724 22.418C57.8884 22.418 58.9204 21.818 59.5684 20.618C60.2404 19.394 60.5764 17.762 60.5764 15.722C60.5764 13.682 60.2404 12.062 59.5684 10.862C58.9204 9.63804 57.8884 9.02604 56.4724 9.02604C55.0564 9.02604 54.0124 9.63804 53.3404 10.862C52.6924 12.062 52.3684 13.682 52.3684 15.722C52.3684 17.762 52.6924 19.394 53.3404 20.618C54.0124 21.818 55.0564 22.418 56.4724 22.418ZM81.5292 21.374C81.5292 21.998 81.6492 22.418 81.8892 22.634C82.1532 22.85 82.5852 22.958 83.1852 22.958V23.894H76.4172V22.958C77.0172 22.958 77.4372 22.85 77.6772 22.634C77.9412 22.418 78.0732 21.998 78.0732 21.374V13.922C78.0732 12.266 77.8932 11.078 77.5332 10.358C77.1732 9.63804 76.4892 9.27804 75.4812 9.27804C74.3052 9.27804 73.3332 9.90204 72.5652 11.15C71.8212 12.398 71.4492 14.486 71.4492 17.414V21.374C71.4492 21.998 71.5692 22.418 71.8092 22.634C72.0732 22.85 72.5052 22.958 73.1052 22.958V23.894H66.3372V22.958C66.9372 22.958 67.3572 22.85 67.5972 22.634C67.8612 22.418 67.9932 21.998 67.9932 21.374V10.142C67.9932 9.51804 67.8612 9.09804 67.5972 8.88204C67.3572 8.66604 66.9372 8.55804 66.3372 8.55804V7.62204H71.4492V11.978H71.5212C71.6892 10.658 72.1932 9.55404 73.0332 8.66604C73.8732 7.75404 75.0372 7.29804 76.5252 7.29804C79.8612 7.29804 81.5292 9.29004 81.5292 13.274V21.374ZM100.396 21.374C100.396 21.998 100.516 22.418 100.756 22.634C101.02 22.85 101.452 22.958 102.052 22.958V23.894H96.9395V20.402C96.6035 21.434 95.9675 22.322 95.0315 23.066C94.0955 23.786 92.9795 24.146 91.6835 24.146C89.6915 24.146 88.0955 23.51 86.8955 22.238C85.7195 20.966 85.1315 18.794 85.1315 15.722C85.1315 12.65 85.7195 10.478 86.8955 9.20604C88.0955 7.93404 89.6915 7.29804 91.6835 7.29804C93.0035 7.29804 94.1315 7.64604 95.0675 8.34204C96.0035 9.01404 96.6275 9.83004 96.9395 10.79V3.48204C96.9395 2.85804 96.8075 2.43804 96.5435 2.22204C96.3035 2.00604 95.8835 1.89804 95.2835 1.89804V0.962042H100.396V21.374ZM92.5835 22.418C93.7835 22.418 94.8035 21.902 95.6435 20.87C96.5075 19.838 96.9395 18.122 96.9395 15.722C96.9395 13.322 96.5075 11.606 95.6435 10.574C94.8035 9.54204 93.7835 9.02604 92.5835 9.02604C91.1675 9.02604 90.1835 9.61404 89.6315 10.79C89.0795 11.966 88.8035 13.61 88.8035 15.722C88.8035 17.882 89.0675 19.538 89.5955 20.69C90.1235 21.842 91.1195 22.418 92.5835 22.418ZM117.452 21.374C117.452 21.998 117.572 22.418 117.812 22.634C118.076 22.85 118.508 22.958 119.108 22.958V23.894H114.428V19.322H114.32C114.032 20.714 113.492 21.866 112.7 22.778C111.932 23.69 110.804 24.146 109.316 24.146C106.1 24.146 104.492 22.298 104.492 18.602C104.492 17.45 104.672 16.454 105.032 15.614L114.248 14.606V13.994C114.248 10.682 113.168 9.02604 111.008 9.02604C110.096 9.02604 109.4 9.27804 108.92 9.78204C108.44 10.262 108.2 10.898 108.2 11.69C108.2 12.05 108.26 12.446 108.38 12.878V12.986L105.248 13.274C105.056 12.698 104.96 12.23 104.96 11.87C104.96 10.55 105.524 9.45804 106.652 8.59404C107.804 7.73004 109.316 7.29804 111.188 7.29804C113.036 7.29804 114.416 7.68204 115.328 8.45004C116.264 9.21804 116.852 10.142 117.092 11.222C117.332 12.302 117.452 13.574 117.452 15.038V21.374ZM110.144 22.166C111.176 22.166 112.064 21.614 112.808 20.51C113.576 19.406 114.032 17.786 114.176 15.65L108.128 16.874C107.912 17.402 107.804 18.11 107.804 18.998C107.804 19.958 107.996 20.726 108.38 21.302C108.788 21.878 109.376 22.166 110.144 22.166ZM131.296 7.40604C131.968 7.40604 132.58 7.53804 133.132 7.80204C133.708 8.04204 134.14 8.39004 134.428 8.84604L133.24 12.158L132.844 12.05C132.868 11.522 132.676 11.054 132.268 10.646C131.86 10.238 131.308 10.034 130.612 10.034C129.388 10.034 128.38 10.73 127.588 12.122C126.82 13.49 126.436 15.806 126.436 19.07V21.374C126.436 21.998 126.556 22.418 126.796 22.634C127.06 22.85 127.492 22.958 128.092 22.958V23.894H121.324V22.958C121.924 22.958 122.344 22.85 122.584 22.634C122.848 22.418 122.98 21.998 122.98 21.374V10.142C122.98 9.51804 122.848 9.09804 122.584 8.88204C122.344 8.66604 121.924 8.55804 121.324 8.55804V7.62204H126.436V13.382H126.508C126.796 11.702 127.312 10.286 128.056 9.13404C128.8 7.98204 129.88 7.40604 131.296 7.40604ZM152.8 8.55804C152.152 8.55804 151.624 8.66604 151.216 8.88204C150.832 9.07404 150.544 9.45804 150.352 10.034L144.88 26.846C144.496 28.046 144.088 28.958 143.656 29.582C143.224 30.206 142.732 30.638 142.18 30.878C141.652 31.118 140.968 31.238 140.128 31.238C138.616 31.238 137.464 30.854 136.672 30.086C135.904 29.318 135.52 28.322 135.52 27.098C135.52 26.786 135.532 26.546 135.556 26.378L138.652 26.63C138.628 26.75 138.616 26.918 138.616 27.134C138.616 27.878 138.796 28.442 139.156 28.826C139.516 29.21 139.936 29.402 140.416 29.402C140.968 29.402 141.412 29.222 141.748 28.862C142.084 28.502 142.408 27.83 142.72 26.846L143.692 23.894H141.532L137.032 10.034C136.84 9.45804 136.54 9.07404 136.132 8.88204C135.748 8.66604 135.232 8.55804 134.584 8.55804V7.62204H139.876L144.412 21.626L148.192 10.034C148.264 9.81804 148.3 9.63804 148.3 9.49404C148.3 9.11004 148.072 8.85804 147.616 8.73804C147.184 8.61804 146.416 8.55804 145.312 8.55804V7.62204H152.8V8.55804Z" fill="white"/>
</svg>
