<svg width="34" height="44" viewBox="0 0 34 44" fill="none" xmlns="http://www.w3.org/2000/svg">
<path opacity="0.95" fill-rule="evenodd" clip-rule="evenodd" d="M29.0061 41.9799H27.8497L27.8558 37.2019L29.0061 37.2006C30.3037 37.2006 31.2 38.1533 31.2 39.586C31.2 41.0184 30.3037 41.9799 29.0061 41.9799ZM29.0065 35.4076H25.9628V43.7642H29.0065C31.283 43.7642 33.0171 41.9497 33.0171 39.586C33.0171 37.2222 31.283 35.4076 29.0065 35.4076ZM13.6026 39.3594H12.1826V37.2037H13.6026C14.1233 37.2037 14.5492 37.6707 14.5492 38.2815C14.5492 38.8924 14.1233 39.3594 13.6026 39.3594ZM14.9169 40.7128C15.8282 40.2457 16.4435 39.3116 16.4435 38.2816C16.4435 36.6887 15.1772 35.4072 13.6034 35.4072H10.29V43.7908H12.1834V41.0362H13.0827L14.6448 43.7908H16.6801L14.9169 40.7128ZM23.8929 41.9799V43.773H18.5144V35.4076H23.8929V37.2006H20.4037V38.6343H23.4748V40.4507H20.4037V41.9799H23.8929ZM0.659576 39.5997C0.659576 37.2272 2.40071 35.4076 4.80177 35.4076C6.24697 35.4076 7.52152 36.1331 8.21568 37.2732L6.64531 38.1947C6.29257 37.5728 5.60977 37.2042 4.80177 37.2042C3.39069 37.2042 2.48032 38.1601 2.48032 39.5997C2.48032 41.0393 3.39069 41.9953 4.80177 41.9953C5.60977 41.9953 6.30385 41.6267 6.64531 41.0048L8.21568 41.9262C7.53288 43.0663 6.25837 43.7919 4.80177 43.7919C2.40071 43.7919 0.659576 41.9722 0.659576 39.5997ZM12.9648 13.0386V17.2904L16.8177 19.4748L21.0764 17.0733L21.7936 18.3717L17.1754 20.976C17.064 21.0389 16.9404 21.0703 16.8168 21.0703C16.6926 21.0703 16.5685 21.0387 16.4567 20.9752L11.8689 18.3742C11.6368 18.2426 11.4931 17.9947 11.4931 17.7258V13.0386H12.9648ZM7.80434 19.9113V8.38929C7.80434 7.97868 8.13385 7.64574 8.54023 7.64574H20.4974V9.1328H9.27609V19.4741L16.8179 23.7125L24.364 19.4656V14.8976H25.8357V19.9026C25.8357 20.1723 25.6911 20.4209 25.4579 20.5522L17.1761 25.213C17.0649 25.2756 16.9415 25.3069 16.818 25.3069C16.6948 25.3069 16.5716 25.2757 16.4604 25.2132L8.18252 20.5611C7.94915 20.4299 7.80434 20.1812 7.80434 19.9113ZM24.3618 5.41041H11.2987V3.92335H25.0976C25.504 3.92335 25.8335 4.25628 25.8335 4.6669V11.1798H24.3618V5.41041ZM28.0822 21.6574L16.818 27.8863L5.59399 21.6582V1.69514H28.0822V21.6574ZM28.8171 0.208252H4.85715C4.4508 0.208252 4.1213 0.541185 4.1213 0.951801V22.0983C4.1213 22.3696 4.26753 22.6194 4.50288 22.75L16.4622 29.3861C16.5725 29.4473 16.6945 29.4779 16.8165 29.4779C16.9381 29.4779 17.0597 29.4475 17.1697 29.3866L29.1703 22.7505C29.4062 22.6201 29.553 22.3701 29.553 22.0983V0.951801C29.553 0.541185 29.2235 0.208252 28.8171 0.208252Z" fill="white"/>
</svg>
