<svg width="259" height="141" viewBox="0 0 259 141" fill="none" xmlns="http://www.w3.org/2000/svg">
<path d="M71.1758 31.5375C71.1758 32.5082 71.3625 33.1615 71.7358 33.4975C72.1465 33.8335 72.8185 34.0015 73.7518 34.0015V35.4575H63.2238V34.0015C64.1572 34.0015 64.8105 33.8335 65.1838 33.4975C65.5945 33.1615 65.7998 32.5082 65.7998 31.5375V19.9455C65.7998 17.3695 65.5198 15.5215 64.9598 14.4015C64.3998 13.2815 63.3358 12.7215 61.7678 12.7215C59.9385 12.7215 58.4265 13.6922 57.2318 15.6335C56.0745 17.5749 55.4958 20.8229 55.4958 25.3775V31.5375C55.4958 32.5082 55.6825 33.1615 56.0558 33.4975C56.4665 33.8335 57.1385 34.0015 58.0718 34.0015V35.4575H47.5438V34.0015C48.4772 34.0015 49.1305 33.8335 49.5038 33.4975C49.9145 33.1615 50.1198 32.5082 50.1198 31.5375V14.0655C50.1198 13.0949 49.9145 12.4415 49.5038 12.1055C49.1305 11.7695 48.4772 11.6015 47.5438 11.6015V10.1455H55.4958V16.9215H55.6078C55.8692 14.8682 56.6532 13.1509 57.9598 11.7695C59.2665 10.3509 61.0772 9.64152 63.3918 9.64152C68.5812 9.64152 71.1758 12.7402 71.1758 18.9375V31.5375ZM99.5005 28.3455C98.8659 30.2869 97.7832 32.0229 96.2525 33.5535C94.7219 35.0842 92.5192 35.8495 89.6445 35.8495C85.8365 35.8495 82.8312 34.7295 80.6285 32.4895C78.4259 30.2122 77.3245 26.9269 77.3245 22.6335C77.3245 18.4149 78.3512 15.2042 80.4045 13.0015C82.4952 10.7615 85.3512 9.64152 88.9725 9.64152C92.2579 9.64152 94.7779 10.5375 96.5325 12.3295C98.3245 14.0842 99.2205 16.5295 99.2205 19.6655C99.2205 20.8975 99.1832 21.8122 99.1085 22.4095L82.4765 22.9135C82.5512 26.0869 83.3165 28.5135 84.7725 30.1935C86.2659 31.8735 88.3192 32.7135 90.9325 32.7135C94.3299 32.7135 96.8125 31.1082 98.3805 27.8975L99.5005 28.3455ZM89.1405 12.3295C87.2365 12.3295 85.6872 13.0389 84.4925 14.4575C83.3352 15.8389 82.6819 18.0415 82.5325 21.0655L93.9005 20.1695C94.0872 19.3482 94.1805 18.5269 94.1805 17.7055C94.1805 16.2122 93.7139 14.9429 92.7805 13.8975C91.8845 12.8522 90.6712 12.3295 89.1405 12.3295ZM115.16 9.64152C118.968 9.64152 121.936 10.8175 124.064 13.1695C126.192 15.5215 127.256 18.7135 127.256 22.7455C127.256 26.7775 126.192 29.9695 124.064 32.3215C121.936 34.6735 118.968 35.8495 115.16 35.8495C111.352 35.8495 108.384 34.6735 106.256 32.3215C104.128 29.9695 103.064 26.7775 103.064 22.7455C103.064 18.7135 104.128 15.5215 106.256 13.1695C108.384 10.8175 111.352 9.64152 115.16 9.64152ZM115.16 33.1615C117.362 33.1615 118.968 32.2282 119.976 30.3615C121.021 28.4575 121.544 25.9189 121.544 22.7455C121.544 19.5722 121.021 17.0522 119.976 15.1855C118.968 13.2815 117.362 12.3295 115.16 12.3295C112.957 12.3295 111.333 13.2815 110.288 15.1855C109.28 17.0522 108.776 19.5722 108.776 22.7455C108.776 25.9189 109.28 28.4575 110.288 30.3615C111.333 32.2282 112.957 33.1615 115.16 33.1615ZM145.614 9.64152C148.713 9.64152 151.177 10.6309 153.006 12.6095C154.873 14.5882 155.806 17.9669 155.806 22.7455C155.806 27.5242 154.873 30.9029 153.006 32.8815C151.177 34.8602 148.713 35.8495 145.614 35.8495C143.598 35.8495 141.862 35.2895 140.406 34.1695C138.95 33.0122 137.961 31.6309 137.438 30.0255V46.3215H129.486V44.8655C130.419 44.8655 131.073 44.6975 131.446 44.3615C131.857 44.0255 132.062 43.3722 132.062 42.4015V14.0655C132.062 13.0949 131.857 12.4415 131.446 12.1055C131.073 11.7695 130.419 11.6015 129.486 11.6015V10.1455H137.438V15.0735C137.923 13.5802 138.894 12.3109 140.35 11.2655C141.806 10.1829 143.561 9.64152 145.614 9.64152ZM144.214 33.1615C146.491 33.1615 148.041 32.2655 148.862 30.4735C149.683 28.6815 150.094 26.1055 150.094 22.7455C150.094 19.4602 149.665 16.9029 148.806 15.0735C147.947 13.2442 146.417 12.3295 144.214 12.3295C142.347 12.3295 140.742 13.1322 139.398 14.7375C138.091 16.3429 137.438 19.0122 137.438 22.7455C137.438 26.4789 138.091 29.1482 139.398 30.7535C140.742 32.3589 142.347 33.1615 144.214 33.1615ZM171.45 9.64152C175.258 9.64152 178.226 10.8175 180.354 13.1695C182.482 15.5215 183.546 18.7135 183.546 22.7455C183.546 26.7775 182.482 29.9695 180.354 32.3215C178.226 34.6735 175.258 35.8495 171.45 35.8495C167.642 35.8495 164.674 34.6735 162.546 32.3215C160.418 29.9695 159.354 26.7775 159.354 22.7455C159.354 18.7135 160.418 15.5215 162.546 13.1695C164.674 10.8175 167.642 9.64152 171.45 9.64152ZM171.45 33.1615C173.653 33.1615 175.258 32.2282 176.266 30.3615C177.312 28.4575 177.834 25.9189 177.834 22.7455C177.834 19.5722 177.312 17.0522 176.266 15.1855C175.258 13.2815 173.653 12.3295 171.45 12.3295C169.248 12.3295 167.624 13.2815 166.578 15.1855C165.57 17.0522 165.066 19.5722 165.066 22.7455C165.066 25.9189 165.57 28.4575 166.578 30.3615C167.624 32.2282 169.248 33.1615 171.45 33.1615ZM201.905 9.64152C205.003 9.64152 207.467 10.6309 209.297 12.6095C211.163 14.5882 212.097 17.9669 212.097 22.7455C212.097 27.5242 211.163 30.9029 209.297 32.8815C207.467 34.8602 205.003 35.8495 201.905 35.8495C199.889 35.8495 198.153 35.2895 196.697 34.1695C195.241 33.0122 194.251 31.6309 193.729 30.0255V46.3215H185.777V44.8655C186.71 44.8655 187.363 44.6975 187.737 44.3615C188.147 44.0255 188.353 43.3722 188.353 42.4015V14.0655C188.353 13.0949 188.147 12.4415 187.737 12.1055C187.363 11.7695 186.71 11.6015 185.777 11.6015V10.1455H193.729V15.0735C194.214 13.5802 195.185 12.3109 196.641 11.2655C198.097 10.1829 199.851 9.64152 201.905 9.64152ZM200.505 33.1615C202.782 33.1615 204.331 32.2655 205.153 30.4735C205.974 28.6815 206.385 26.1055 206.385 22.7455C206.385 19.4602 205.955 16.9029 205.097 15.0735C204.238 13.2442 202.707 12.3295 200.505 12.3295C198.638 12.3295 197.033 13.1322 195.689 14.7375C194.382 16.3429 193.729 19.0122 193.729 22.7455C193.729 26.4789 194.382 29.1482 195.689 30.7535C197.033 32.3589 198.638 33.1615 200.505 33.1615Z" fill="#D9D9D9"/>
<path d="M11.2428 66.055L15.7228 65.103H20.0908V68.239H11.2428V86.495C11.2428 87.4657 11.4295 88.119 11.8028 88.455C12.2135 88.791 12.8855 88.959 13.8188 88.959V90.415H3.29083V88.959C4.22416 88.959 4.8775 88.791 5.25083 88.455C5.6615 88.119 5.86683 87.4657 5.86683 86.495V68.631L1.83483 67.679V65.103H5.86683V63.927C5.86683 60.7164 6.80016 58.2897 8.66683 56.647C10.5335 55.0044 13.1095 54.183 16.3948 54.183C17.7762 54.183 19.1762 54.4817 20.5948 55.079C22.0508 55.6764 23.2082 56.7404 24.0668 58.271L18.8588 61.855L18.4668 61.463C18.7655 60.9777 18.9148 60.3804 18.9148 59.671C18.9148 58.8124 18.6535 58.103 18.1308 57.543C17.6082 56.9457 16.8428 56.647 15.8348 56.647C14.3042 56.647 13.1468 57.1884 12.3628 58.271C11.6162 59.3537 11.2428 60.9217 11.2428 62.975V66.055ZM38.073 64.767C39.1184 64.767 40.0704 64.9724 40.929 65.383C41.825 65.7564 42.497 66.2977 42.945 67.007L41.097 72.159L40.481 71.991C40.5184 71.1697 40.2197 70.4417 39.585 69.807C38.9504 69.1724 38.0917 68.855 37.009 68.855C35.105 68.855 33.537 69.9377 32.305 72.103C31.1104 74.231 30.513 77.8337 30.513 82.911V86.495C30.513 87.4657 30.6997 88.119 31.073 88.455C31.4837 88.791 32.1557 88.959 33.089 88.959V90.415H22.561V88.959C23.4944 88.959 24.1477 88.791 24.521 88.455C24.9317 88.119 25.137 87.4657 25.137 86.495V69.023C25.137 68.0524 24.9317 67.399 24.521 67.063C24.1477 66.727 23.4944 66.559 22.561 66.559V65.103H30.513V74.063H30.625C31.073 71.4497 31.8757 69.247 33.033 67.455C34.1904 65.663 35.8704 64.767 38.073 64.767ZM64.8455 86.495C64.8455 87.4657 65.0321 88.119 65.4055 88.455C65.8161 88.791 66.4881 88.959 67.4215 88.959V90.415H60.1415V83.303H59.9735C59.5255 85.4684 58.6855 87.2604 57.4535 88.679C56.2588 90.0977 54.5041 90.807 52.1895 90.807C47.1868 90.807 44.6855 87.9324 44.6855 82.183C44.6855 80.391 44.9655 78.8417 45.5255 77.535L59.8615 75.967V75.015C59.8615 69.863 58.1815 67.287 54.8215 67.287C53.4028 67.287 52.3201 67.679 51.5735 68.463C50.8268 69.2097 50.4535 70.199 50.4535 71.431C50.4535 71.991 50.5468 72.607 50.7335 73.279V73.447L45.8615 73.895C45.5628 72.999 45.4135 72.271 45.4135 71.711C45.4135 69.6577 46.2908 67.959 48.0455 66.615C49.8375 65.271 52.1895 64.599 55.1015 64.599C57.9761 64.599 60.1228 65.1964 61.5415 66.391C62.9975 67.5857 63.9121 69.023 64.2855 70.703C64.6588 72.383 64.8455 74.3617 64.8455 76.639V86.495ZM53.4775 87.727C55.0828 87.727 56.4641 86.8684 57.6215 85.151C58.8161 83.4337 59.5255 80.9137 59.7495 77.591L50.3415 79.495C50.0055 80.3164 49.8375 81.4177 49.8375 82.799C49.8375 84.2924 50.1361 85.487 50.7335 86.383C51.3681 87.279 52.2828 87.727 53.4775 87.727ZM109.734 86.495C109.734 87.4657 109.921 88.119 110.294 88.455C110.705 88.791 111.377 88.959 112.31 88.959V90.415H101.782V88.959C102.715 88.959 103.369 88.791 103.742 88.455C104.153 88.119 104.358 87.4657 104.358 86.495V74.903C104.358 72.327 104.078 70.479 103.518 69.359C102.958 68.239 101.894 67.679 100.326 67.679C98.4966 67.679 96.9846 68.6497 95.7899 70.591C94.6326 72.5324 94.0539 75.7804 94.0539 80.335V86.495C94.0539 87.4657 94.2406 88.119 94.6139 88.455C95.0246 88.791 95.6966 88.959 96.6299 88.959V90.415H86.1019V88.959C87.0352 88.959 87.6886 88.791 88.0619 88.455C88.4726 88.119 88.6779 87.4657 88.6779 86.495V74.903C88.6779 72.3644 88.3979 70.535 87.8379 69.415C87.2779 68.2577 86.2139 67.679 84.6459 67.679C80.6886 67.679 78.7099 71.8977 78.7099 80.335V86.495C78.7099 87.4657 78.8966 88.119 79.2699 88.455C79.6806 88.791 80.3526 88.959 81.2859 88.959V90.415H70.7579V88.959C71.6912 88.959 72.3446 88.791 72.7179 88.455C73.1286 88.119 73.3339 87.4657 73.3339 86.495V69.023C73.3339 68.0524 73.1286 67.399 72.7179 67.063C72.3446 66.727 71.6912 66.559 70.7579 66.559V65.103H78.7099V71.655H78.8219C79.0459 69.7884 79.7739 68.1457 81.0059 66.727C82.2752 65.3084 84.1232 64.599 86.5499 64.599C90.9552 64.599 93.4192 67.0257 93.9419 71.879H94.1659C94.4272 69.8257 95.2112 68.1084 96.5179 66.727C97.8246 65.3084 99.6352 64.599 101.95 64.599C107.139 64.599 109.734 67.6977 109.734 73.895V86.495ZM138.027 83.303C137.392 85.2444 136.31 86.9804 134.779 88.511C133.248 90.0417 131.046 90.807 128.171 90.807C124.363 90.807 121.358 89.687 119.155 87.447C116.952 85.1697 115.851 81.8844 115.851 77.591C115.851 73.3724 116.878 70.1617 118.931 67.959C121.022 65.719 123.878 64.599 127.499 64.599C130.784 64.599 133.304 65.495 135.059 67.287C136.851 69.0417 137.747 71.487 137.747 74.623C137.747 75.855 137.71 76.7697 137.635 77.367L121.003 77.871C121.078 81.0444 121.843 83.471 123.299 85.151C124.792 86.831 126.846 87.671 129.459 87.671C132.856 87.671 135.339 86.0657 136.907 82.855L138.027 83.303ZM127.667 67.287C125.763 67.287 124.214 67.9964 123.019 69.415C121.862 70.7964 121.208 72.999 121.059 76.023L132.427 75.127C132.614 74.3057 132.707 73.4844 132.707 72.663C132.707 71.1697 132.24 69.9004 131.307 68.855C130.411 67.8097 129.198 67.287 127.667 67.287ZM182.47 66.559C181.499 66.559 180.715 66.727 180.118 67.063C179.558 67.399 179.147 68.015 178.886 68.911L173.286 90.415H166.174L162.086 77.143L156.99 90.415H149.878L144.054 68.911C143.83 67.9777 143.419 67.3617 142.822 67.063C142.225 66.727 141.441 66.559 140.47 66.559V65.103H148.422L154.47 87.783L160.574 72.159L159.566 68.855C159.305 67.959 158.875 67.3617 158.278 67.063C157.681 66.727 156.878 66.559 155.87 66.559V65.103H163.822L170.71 87.615L175.526 68.911C175.601 68.463 175.638 68.183 175.638 68.071C175.638 67.4737 175.358 67.0817 174.798 66.895C174.238 66.671 173.249 66.559 171.83 66.559V65.103H182.47V66.559ZM194.574 64.599C198.382 64.599 201.35 65.775 203.478 68.127C205.606 70.479 206.67 73.671 206.67 77.703C206.67 81.735 205.606 84.927 203.478 87.279C201.35 89.631 198.382 90.807 194.574 90.807C190.766 90.807 187.798 89.631 185.67 87.279C183.542 84.927 182.478 81.735 182.478 77.703C182.478 73.671 183.542 70.479 185.67 68.127C187.798 65.775 190.766 64.599 194.574 64.599ZM194.574 88.119C196.776 88.119 198.382 87.1857 199.39 85.319C200.435 83.415 200.958 80.8764 200.958 77.703C200.958 74.5297 200.435 72.0097 199.39 70.143C198.382 68.239 196.776 67.287 194.574 67.287C192.371 67.287 190.747 68.239 189.702 70.143C188.694 72.0097 188.19 74.5297 188.19 77.703C188.19 80.8764 188.694 83.415 189.702 85.319C190.747 87.1857 192.371 88.119 194.574 88.119ZM225.32 64.767C226.365 64.767 227.317 64.9724 228.176 65.383C229.072 65.7564 229.744 66.2977 230.192 67.007L228.344 72.159L227.728 71.991C227.765 71.1697 227.467 70.4417 226.832 69.807C226.197 69.1724 225.339 68.855 224.256 68.855C222.352 68.855 220.784 69.9377 219.552 72.103C218.357 74.231 217.76 77.8337 217.76 82.911V86.495C217.76 87.4657 217.947 88.119 218.32 88.455C218.731 88.791 219.403 88.959 220.336 88.959V90.415H209.808V88.959C210.741 88.959 211.395 88.791 211.768 88.455C212.179 88.119 212.384 87.4657 212.384 86.495V69.023C212.384 68.0524 212.179 67.399 211.768 67.063C211.395 66.727 210.741 66.559 209.808 66.559V65.103H217.76V74.063H217.872C218.32 71.4497 219.123 69.247 220.28 67.455C221.437 65.663 223.117 64.767 225.32 64.767ZM253.676 87.111C254.161 87.895 254.759 88.399 255.468 88.623C256.177 88.847 257.017 88.959 257.988 88.959V90.415H250.428L242.308 78.543L239.34 81.791V86.495C239.34 87.4657 239.527 88.119 239.9 88.455C240.311 88.791 240.983 88.959 241.916 88.959V90.415H231.388V88.959C232.321 88.959 232.975 88.791 233.348 88.455C233.759 88.119 233.964 87.4657 233.964 86.495V58.663C233.964 57.6924 233.759 57.039 233.348 56.703C232.975 56.367 232.321 56.199 231.388 56.199V54.743H239.34V77.591L248.076 68.015C248.561 67.455 248.804 67.1004 248.804 66.951C248.804 66.7644 248.58 66.6524 248.132 66.615C247.721 66.5777 246.863 66.559 245.556 66.559V65.103H257.092V66.559C254.479 66.559 252.556 67.231 251.324 68.575L243.372 77.311L247.348 77.479L253.676 87.111Z" fill="#D9D9D9"/>
<path d="M54.5717 129.791C53.4797 129.791 52.6537 130.239 52.1217 130.967V127.173H50.6097V136.973H52.1217V135.965C52.6537 136.707 53.4797 137.155 54.5717 137.155C56.4757 137.155 58.0577 135.545 58.0577 133.473C58.0577 131.387 56.4757 129.791 54.5717 129.791ZM54.3337 135.713C53.0737 135.713 52.1217 134.775 52.1217 133.473C52.1217 132.171 53.0737 131.233 54.3337 131.233C55.5937 131.233 56.5457 132.171 56.5457 133.473C56.5457 134.775 55.5937 135.713 54.3337 135.713ZM64.2726 129.973L62.4806 135.055L60.3946 129.973H58.7426L61.7106 136.847L61.6406 136.987C61.2906 137.911 60.7586 138.415 59.7786 138.359V139.773C61.3886 139.871 62.5366 138.975 63.1946 137.197L65.8826 129.973H64.2726ZM75.8601 137.155C77.6661 137.155 79.2621 136.231 80.0741 134.803L78.6741 134.005C78.1701 134.971 77.0921 135.587 75.8601 135.587C73.7461 135.587 72.3461 134.089 72.3461 132.073C72.3461 130.057 73.7461 128.559 75.8601 128.559C77.0921 128.559 78.1561 129.175 78.6741 130.141L80.0741 129.329C79.2481 127.901 77.6521 126.991 75.8601 126.991C72.8781 126.991 70.7361 129.231 70.7361 132.073C70.7361 134.915 72.8781 137.155 75.8601 137.155ZM87.3976 136.973H89.1616L86.9356 133.165C88.0836 132.703 88.8816 131.583 88.8816 130.323C88.8816 128.573 87.4816 127.173 85.7316 127.173H81.8116V136.973H83.4216V133.403H85.3256L87.3976 136.973ZM83.4216 128.685H85.7316C86.5856 128.685 87.2716 129.399 87.2716 130.323C87.2716 131.233 86.5856 131.961 85.7316 131.961H83.4216V128.685ZM92.4076 135.433V132.787H96.3276V131.261H92.4076V128.713H96.6776V127.173H90.7976V136.973H96.7476V135.433H92.4076ZM102.471 127.173H98.6214V136.973H102.471C105.173 136.973 107.161 134.803 107.161 132.073C107.161 129.329 105.173 127.173 102.471 127.173ZM102.471 135.433H100.231V128.713H102.471C104.333 128.713 105.607 130.127 105.607 132.073C105.607 134.005 104.333 135.433 102.471 135.433ZM116.499 128.447V126.991C114.399 126.851 113.335 127.943 113.335 129.833V129.973H112.271V131.429H113.335V136.973H114.847V131.429H116.499V129.973H114.847V129.833C114.847 128.755 115.435 128.349 116.499 128.447ZM119.296 131.149V129.973H117.784V136.973H119.296V133.445C119.296 131.877 120.458 131.415 121.452 131.485V129.847C120.57 129.847 119.716 130.197 119.296 131.149ZM125.945 137.155C128.003 137.155 129.641 135.545 129.641 133.473C129.641 131.387 128.003 129.791 125.945 129.791C123.901 129.791 122.249 131.387 122.249 133.473C122.249 135.545 123.901 137.155 125.945 137.155ZM125.945 135.685C124.713 135.685 123.761 134.747 123.761 133.473C123.761 132.199 124.713 131.261 125.945 131.261C127.177 131.261 128.129 132.199 128.129 133.473C128.129 134.747 127.177 135.685 125.945 135.685ZM135.09 129.791C134.138 129.791 133.382 130.141 132.92 130.869V129.973H131.408V136.973H132.92V133.221C132.92 131.793 133.704 131.205 134.698 131.205C135.65 131.205 136.266 131.765 136.266 132.829V136.973H137.778V132.675C137.778 130.855 136.658 129.791 135.09 129.791ZM143.712 131.429V129.973H141.976V128.013L140.464 128.461V129.973H139.176V131.429H140.464V134.789C140.464 136.609 141.388 137.253 143.712 136.973V135.615C142.564 135.671 141.976 135.685 141.976 134.789V131.429H143.712ZM146.386 134.117H151.958C151.986 133.921 152.014 133.697 152.014 133.487C152.014 131.471 150.586 129.791 148.5 129.791C146.302 129.791 144.804 131.401 144.804 133.473C144.804 135.573 146.302 137.155 148.612 137.155C149.984 137.155 151.034 136.581 151.678 135.629L150.432 134.901C150.096 135.391 149.466 135.769 148.626 135.769C147.506 135.769 146.624 135.209 146.386 134.117ZM146.372 132.885C146.582 131.835 147.352 131.163 148.486 131.163C149.396 131.163 150.278 131.681 150.488 132.885H146.372ZM157.427 129.791C156.475 129.791 155.719 130.141 155.257 130.869V129.973H153.745V136.973H155.257V133.221C155.257 131.793 156.041 131.205 157.035 131.205C157.987 131.205 158.603 131.765 158.603 132.829V136.973H160.115V132.675C160.115 130.855 158.995 129.791 157.427 129.791ZM167.687 127.173V130.967C167.155 130.239 166.329 129.791 165.237 129.791C163.333 129.791 161.751 131.387 161.751 133.473C161.751 135.545 163.333 137.155 165.237 137.155C166.329 137.155 167.155 136.707 167.687 135.965V136.973H169.199V127.173H167.687ZM165.475 135.713C164.215 135.713 163.263 134.775 163.263 133.473C163.263 132.171 164.215 131.233 165.475 131.233C166.735 131.233 167.687 132.171 167.687 133.473C167.687 134.775 166.735 135.713 165.475 135.713ZM179.167 131.429V129.973H177.431V128.013L175.919 128.461V129.973H174.631V131.429H175.919V134.789C175.919 136.609 176.843 137.253 179.167 136.973V135.615C178.019 135.671 177.431 135.685 177.431 134.789V131.429H179.167ZM181.842 134.117H187.414C187.442 133.921 187.47 133.697 187.47 133.487C187.47 131.471 186.042 129.791 183.956 129.791C181.758 129.791 180.26 131.401 180.26 133.473C180.26 135.573 181.758 137.155 184.068 137.155C185.44 137.155 186.49 136.581 187.134 135.629L185.888 134.901C185.552 135.391 184.922 135.769 184.082 135.769C182.962 135.769 182.08 135.209 181.842 134.117ZM181.828 132.885C182.038 131.835 182.808 131.163 183.942 131.163C184.852 131.163 185.734 131.681 185.944 132.885H181.828ZM194.703 129.973V130.967C194.171 130.239 193.345 129.791 192.253 129.791C190.349 129.791 188.767 131.387 188.767 133.473C188.767 135.545 190.349 137.155 192.253 137.155C193.345 137.155 194.171 136.707 194.703 135.965V136.973H196.215V129.973H194.703ZM192.491 135.713C191.231 135.713 190.279 134.775 190.279 133.473C190.279 132.171 191.231 131.233 192.491 131.233C193.751 131.233 194.703 132.171 194.703 133.473C194.703 134.775 193.751 135.713 192.491 135.713ZM206.021 129.791C205.083 129.791 204.341 130.169 203.879 130.897C203.473 130.197 202.801 129.791 201.891 129.791C201.023 129.791 200.337 130.127 199.889 130.813V129.973H198.377V136.973H199.889V133.053C199.889 131.779 200.589 131.205 201.443 131.205C202.269 131.205 202.759 131.751 202.759 132.731V136.973H204.271V133.053C204.271 131.779 204.901 131.205 205.797 131.205C206.623 131.205 207.155 131.751 207.155 132.731V136.973H208.667V132.633C208.667 130.883 207.603 129.791 206.021 129.791Z" fill="#3D3D3D"/>
</svg>
