<svg width="80" height="6" viewBox="0 0 80 6" fill="none" xmlns="http://www.w3.org/2000/svg">
<path opacity="0.7" d="M0.294874 5L1.71409 0.661785H2.4082L3.82742 5H3.03415L2.1665 2.0872C2.15617 2.05415 2.14378 2.00973 2.12932 1.95395C2.11692 1.89818 2.10453 1.8393 2.09213 1.77733C2.07974 1.71535 2.06941 1.65751 2.06115 1.6038C2.05082 1.65751 2.03946 1.71535 2.02706 1.77733C2.01467 1.8393 2.00227 1.89818 1.98988 1.95395C1.97748 2.00973 1.96612 2.05415 1.95579 2.0872L1.08815 5H0.294874ZM1.2121 4.04559L1.41041 3.37627H2.71188L2.9102 4.04559H1.2121ZM5.68177 5V0.661785H6.77252C7.1361 0.661785 7.44391 0.723759 7.69594 0.847708C7.95003 0.969592 8.15558 1.13486 8.31258 1.3435C8.47165 1.55009 8.58734 1.78249 8.65964 2.04072C8.73194 2.29688 8.7681 2.56027 8.7681 2.83089C8.7681 3.07879 8.73401 3.32979 8.66584 3.58388C8.59767 3.83798 8.48508 4.07245 8.32808 4.28729C8.17314 4.50214 7.96656 4.67463 7.70833 4.80478C7.4501 4.93493 7.1299 5 6.74773 5H5.68177ZM6.41926 4.30589H6.8221C7.04314 4.30589 7.22906 4.2625 7.37987 4.17574C7.53067 4.08691 7.65152 3.97019 7.74242 3.82558C7.83331 3.68098 7.89839 3.52191 7.93764 3.34838C7.97895 3.17485 7.99961 3.00236 7.99961 2.83089C7.99961 2.64703 7.97792 2.46834 7.93454 2.29481C7.89322 2.11922 7.82815 1.96118 7.73932 1.82071C7.65049 1.67817 7.53584 1.56558 7.39536 1.48295C7.25488 1.39825 7.08652 1.3559 6.89027 1.3559H6.41926V4.30589ZM12.1594 5.07437C11.8475 5.07437 11.5707 4.99587 11.329 4.83887C11.0893 4.68186 10.9055 4.46082 10.7774 4.17574L11.4095 3.87206C11.4653 3.97949 11.5273 4.07038 11.5954 4.14475C11.6657 4.21912 11.7462 4.27593 11.8371 4.31518C11.9301 4.35443 12.0396 4.37406 12.1656 4.37406C12.2834 4.37406 12.3959 4.3503 12.5034 4.30279C12.6129 4.25321 12.7017 4.16438 12.7699 4.0363C12.838 3.90822 12.8721 3.72539 12.8721 3.48782V0.661785H13.6034V3.52501C13.6034 3.83075 13.559 4.08484 13.4702 4.28729C13.3813 4.48768 13.2657 4.64571 13.1231 4.7614C12.9806 4.87502 12.8246 4.95558 12.6552 5.0031C12.4858 5.05061 12.3205 5.07437 12.1594 5.07437ZM15.4702 5L16.8894 0.661785H17.5835L19.0027 5H18.2094L17.3418 2.0872C17.3315 2.05415 17.3191 2.00973 17.3046 1.95395C17.2922 1.89818 17.2798 1.8393 17.2674 1.77733C17.255 1.71535 17.2447 1.65751 17.2364 1.6038C17.2261 1.65751 17.2147 1.71535 17.2023 1.77733C17.1899 1.8393 17.1776 1.89818 17.1652 1.95395C17.1528 2.00973 17.1414 2.05415 17.1311 2.0872L16.2634 5H15.4702ZM16.3874 4.04559L16.5857 3.37627H17.8872L18.0855 4.04559H16.3874ZM22.3692 5.06817C22.0552 5.06817 21.7887 5.00413 21.5698 4.87605C21.3508 4.7459 21.1741 4.57341 21.0399 4.35856C20.9056 4.14165 20.8075 3.90099 20.7455 3.63656C20.6835 3.37007 20.6525 3.10151 20.6525 2.83089C20.6525 2.5706 20.6835 2.30927 20.7455 2.04691C20.8095 1.78249 20.9097 1.54079 21.0461 1.32181C21.1824 1.10284 21.359 0.927242 21.576 0.79503C21.7949 0.660752 22.0594 0.593613 22.3692 0.593613C22.613 0.593613 22.8237 0.638028 23.0014 0.726858C23.1811 0.813622 23.3298 0.926209 23.4476 1.06462C23.5653 1.20303 23.6542 1.34764 23.7141 1.49844L23.0571 1.81451C22.9745 1.65338 22.8805 1.52633 22.7752 1.43337C22.6719 1.34041 22.5366 1.29392 22.3692 1.29392C22.1936 1.29392 22.0449 1.34041 21.923 1.43337C21.8011 1.52633 21.702 1.64925 21.6255 1.80212C21.5512 1.95499 21.4974 2.12128 21.4644 2.30101C21.4313 2.48074 21.4148 2.65736 21.4148 2.83089C21.4148 3.01475 21.4334 3.19757 21.4706 3.37937C21.5098 3.56116 21.5677 3.72642 21.6441 3.87516C21.7226 4.0239 21.8218 4.14372 21.9416 4.23461C22.0635 4.32344 22.206 4.36786 22.3692 4.36786C22.5366 4.36786 22.675 4.31621 22.7845 4.21292C22.8939 4.10757 22.9869 3.97329 23.0633 3.81009L23.7327 4.06418C23.6542 4.25631 23.5529 4.4288 23.429 4.58167C23.3071 4.73248 23.1584 4.85126 22.9828 4.93803C22.8072 5.02479 22.6027 5.06817 22.3692 5.06817ZM25.9155 5V0.661785H28.6981V1.3621H26.653V2.40947H27.9854V3.10978H26.653V4.29969H28.8283V5H25.9155ZM30.9739 5V0.661785H31.6742L33.0253 3.33908C33.0438 3.37214 33.0697 3.41965 33.1027 3.48162C33.1358 3.5436 33.1616 3.59524 33.1802 3.63656C33.1781 3.58285 33.175 3.52914 33.1709 3.47543C33.1688 3.42172 33.1678 3.37627 33.1678 3.33908V0.661785H33.8495V5H33.1802L31.8044 2.31031C31.7858 2.27519 31.7599 2.22664 31.7269 2.16467C31.6938 2.10269 31.6659 2.05208 31.6432 2.01283C31.6536 2.05828 31.6587 2.10889 31.6587 2.16467C31.6608 2.22044 31.6618 2.26899 31.6618 2.31031V5H30.9739ZM37.0983 5V1.36829H35.8402V0.661785H39.1001V1.36829H37.8358V5H37.0983ZM46.1492 5V0.661785H47.6118C47.963 0.661785 48.2398 0.718595 48.4422 0.832215C48.6447 0.943769 48.7883 1.08838 48.873 1.26604C48.9577 1.44163 49 1.62652 49 1.82071C49 2.01283 48.9535 2.18842 48.8606 2.34749C48.7697 2.50449 48.6282 2.62638 48.436 2.71314C48.6777 2.79371 48.8564 2.92902 48.9721 3.11907C49.0899 3.30913 49.1487 3.51261 49.1487 3.72952C49.1487 3.88033 49.124 4.03113 49.0744 4.18194C49.0248 4.33274 48.9432 4.47012 48.8296 4.59407C48.718 4.71595 48.5703 4.81408 48.3865 4.88845C48.2026 4.96282 47.9754 5 47.7047 5H46.1492ZM46.8867 4.31828H47.7543C47.9258 4.31828 48.059 4.28936 48.1541 4.23152C48.2491 4.17161 48.3152 4.09724 48.3524 4.00841C48.3916 3.91751 48.4112 3.82662 48.4112 3.73572C48.4112 3.6283 48.3885 3.52604 48.3431 3.42895C48.2997 3.32979 48.2171 3.24922 48.0952 3.18725C47.9754 3.12321 47.8018 3.09119 47.5746 3.09119H46.8867V4.31828ZM46.8867 2.41566H47.5126C47.7667 2.41566 47.9547 2.36608 48.0766 2.26692C48.2005 2.1657 48.2625 2.03349 48.2625 1.87029C48.2625 1.78559 48.246 1.70296 48.2129 1.62239C48.1819 1.54182 48.121 1.47572 48.0301 1.42407C47.9392 1.37036 47.806 1.3435 47.6304 1.3435H46.8867V2.41566ZM52.6454 5.07437C52.3851 5.07437 52.1434 5.01963 51.9203 4.91014C51.6993 4.80065 51.5206 4.61989 51.3842 4.36786C51.25 4.11583 51.1828 3.77497 51.1828 3.34528V0.661785H51.9141V3.34528C51.9141 3.61177 51.9451 3.81939 52.0071 3.96812C52.0711 4.11686 52.1579 4.22222 52.2674 4.28419C52.3789 4.3441 52.5049 4.37406 52.6454 4.37406C52.7838 4.37406 52.9078 4.3441 53.0173 4.28419C53.1288 4.22222 53.2166 4.11686 53.2807 3.96812C53.3447 3.81939 53.3767 3.61177 53.3767 3.34528V0.661785H54.1142V3.34528C54.1142 3.76877 54.0471 4.10757 53.9128 4.36166C53.7785 4.61369 53.5998 4.79548 53.3767 4.90704C53.1536 5.01859 52.9098 5.07437 52.6454 5.07437ZM57.332 5V1.36829H56.0739V0.661785H59.3338V1.36829H58.0695V5H57.332ZM62.3904 5V1.36829H61.1323V0.661785H64.3922V1.36829H63.1279V5H62.3904ZM67.8207 5.07437C67.5294 5.07437 67.2795 5.01343 67.0708 4.89154C66.8642 4.7676 66.6948 4.60026 66.5626 4.38955C66.4304 4.17884 66.3333 3.9392 66.2713 3.67065C66.2094 3.40209 66.1784 3.12217 66.1784 2.83089C66.1784 2.53961 66.2094 2.25969 66.2713 1.99114C66.3333 1.72258 66.4304 1.48295 66.5626 1.27223C66.6948 1.06152 66.8642 0.895222 67.0708 0.773339C67.2795 0.64939 67.5294 0.587415 67.8207 0.587415C68.112 0.587415 68.3619 0.64939 68.5706 0.773339C68.7792 0.895222 68.9497 1.06152 69.0819 1.27223C69.2141 1.48295 69.3112 1.72258 69.3732 1.99114C69.4372 2.25969 69.4692 2.53961 69.4692 2.83089C69.4692 3.12217 69.4372 3.40209 69.3732 3.67065C69.3112 3.9392 69.2141 4.17884 69.0819 4.38955C68.9497 4.60026 68.7792 4.7676 68.5706 4.89154C68.3619 5.01343 68.112 5.07437 67.8207 5.07437ZM67.8207 4.37406C67.9736 4.37406 68.1058 4.33068 68.2173 4.24391C68.3289 4.15715 68.4198 4.04043 68.49 3.89376C68.5623 3.74708 68.615 3.58182 68.6481 3.39796C68.6832 3.2141 68.7007 3.02508 68.7007 2.83089C68.7007 2.62431 68.6832 2.42909 68.6481 2.24523C68.615 2.05931 68.5634 1.89508 68.4931 1.75254C68.4229 1.60793 68.332 1.49431 68.2204 1.41168C68.1089 1.32904 67.9756 1.28773 67.8207 1.28773C67.6658 1.28773 67.5325 1.33111 67.421 1.41787C67.3094 1.50257 67.2185 1.61826 67.1483 1.76493C67.078 1.9116 67.0254 2.07687 66.9902 2.26073C66.9572 2.44458 66.9407 2.63464 66.9407 2.83089C66.9407 3.03541 66.9572 3.23063 66.9902 3.41655C67.0254 3.60041 67.078 3.76464 67.1483 3.90925C67.2185 4.05386 67.3094 4.16748 67.421 4.25011C67.5325 4.33274 67.6658 4.37406 67.8207 4.37406ZM71.4413 5V0.661785H72.1416L73.4927 3.33908C73.5113 3.37214 73.5371 3.41965 73.5701 3.48162C73.6032 3.5436 73.629 3.59524 73.6476 3.63656C73.6455 3.58285 73.6424 3.52914 73.6383 3.47543C73.6362 3.42172 73.6352 3.37627 73.6352 3.33908V0.661785H74.3169V5H73.6476L72.2718 2.31031C72.2532 2.27519 72.2274 2.22664 72.1943 2.16467C72.1612 2.10269 72.1334 2.05208 72.1106 2.01283C72.121 2.05828 72.1261 2.10889 72.1261 2.16467C72.1282 2.22044 72.1292 2.26899 72.1292 2.31031V5H71.4413ZM77.9871 5.07437C77.7516 5.07437 77.5306 5.02892 77.324 4.93803C77.1195 4.84506 76.9408 4.71492 76.7879 4.54759C76.635 4.38025 76.5204 4.184 76.444 3.95883L77.1133 3.71093C77.2062 3.90925 77.3364 4.07038 77.5037 4.19433C77.6731 4.31828 77.8549 4.38025 78.0491 4.38025C78.235 4.38025 78.3869 4.33274 78.5046 4.23771C78.6224 4.14269 78.6812 4.00428 78.6812 3.82248C78.6812 3.70473 78.6399 3.60041 78.5573 3.50951C78.4747 3.41655 78.3652 3.33185 78.2288 3.25542C78.0945 3.17898 77.9479 3.10565 77.7888 3.03541C77.6504 2.9755 77.511 2.90836 77.3705 2.83399C77.2321 2.75962 77.104 2.67182 76.9862 2.5706C76.8706 2.46937 76.7766 2.35059 76.7043 2.21425C76.634 2.0779 76.5989 1.9178 76.5989 1.73394C76.5989 1.5253 76.6536 1.33421 76.7631 1.16068C76.8726 0.987151 77.0276 0.848741 77.2279 0.74545C77.4283 0.640094 77.6649 0.587415 77.9375 0.587415C78.2639 0.587415 78.5439 0.675213 78.7773 0.850807C79.0128 1.0264 79.1688 1.24641 79.2452 1.51084L78.5821 1.73394C78.5201 1.60586 78.4313 1.49844 78.3156 1.41168C78.1999 1.32491 78.0594 1.28153 77.8942 1.28153C77.7392 1.28153 77.608 1.32078 77.5006 1.39928C77.3953 1.47778 77.3426 1.5852 77.3426 1.72155C77.3426 1.81658 77.3725 1.89921 77.4325 1.96945C77.4944 2.03968 77.5843 2.10786 77.702 2.17396C77.8219 2.24007 77.9685 2.31444 78.1421 2.39707C78.2825 2.46318 78.4271 2.53755 78.5759 2.62018C78.7246 2.70075 78.863 2.79474 78.9911 2.90216C79.1213 3.00959 79.2256 3.1356 79.3041 3.28021C79.3847 3.42481 79.4249 3.59318 79.4249 3.7853C79.4249 4.06005 79.3578 4.29349 79.2235 4.48561C79.0913 4.67773 78.9157 4.82441 78.6967 4.92563C78.4798 5.02479 78.2433 5.07437 77.9871 5.07437Z" fill="white"/>
</svg>
