<svg width="70" height="6" viewBox="0 0 70 6" fill="none" xmlns="http://www.w3.org/2000/svg">
<path opacity="0.7" d="M2.19394 5.06817C1.87994 5.06817 1.61345 5.00413 1.39447 4.87605C1.17549 4.7459 0.998867 4.57341 0.864589 4.35856C0.730311 4.14165 0.632185 3.90099 0.57021 3.63656C0.508236 3.37007 0.477249 3.10151 0.477249 2.83089C0.477249 2.5706 0.508236 2.30927 0.57021 2.04691C0.634251 1.78249 0.734443 1.54079 0.870787 1.32181C1.00713 1.10284 1.18376 0.927242 1.40067 0.79503C1.61965 0.660752 1.88407 0.593613 2.19394 0.593613C2.43771 0.593613 2.64842 0.638028 2.82608 0.726858C3.00581 0.813622 3.15455 0.926209 3.2723 1.06462C3.39005 1.20303 3.47888 1.34764 3.53879 1.49844L2.88186 1.81451C2.79923 1.65338 2.70523 1.52633 2.59988 1.43337C2.49658 1.34041 2.36127 1.29392 2.19394 1.29392C2.01835 1.29392 1.86961 1.34041 1.74773 1.43337C1.62584 1.52633 1.52668 1.64925 1.45025 1.80212C1.37588 1.95499 1.32217 2.12128 1.28911 2.30101C1.25606 2.48074 1.23953 2.65736 1.23953 2.83089C1.23953 3.01475 1.25813 3.19757 1.29531 3.37937C1.33456 3.56116 1.39241 3.72642 1.46884 3.87516C1.54734 4.0239 1.6465 4.14372 1.76632 4.23461C1.8882 4.32344 2.03074 4.36786 2.19394 4.36786C2.36127 4.36786 2.49968 4.31621 2.60917 4.21292C2.71866 4.10757 2.81162 3.97329 2.88806 3.81009L3.55738 4.06418C3.47888 4.25631 3.37766 4.4288 3.25371 4.58167C3.13182 4.73248 2.98308 4.85126 2.80749 4.93803C2.6319 5.02479 2.42738 5.06817 2.19394 5.06817ZM7.178 5.07437C6.88672 5.07437 6.63676 5.01343 6.42811 4.89154C6.22153 4.7676 6.05213 4.60026 5.91992 4.38955C5.78771 4.17884 5.69061 3.9392 5.62864 3.67065C5.56666 3.40209 5.53568 3.12217 5.53568 2.83089C5.53568 2.53961 5.56666 2.25969 5.62864 1.99114C5.69061 1.72258 5.78771 1.48295 5.91992 1.27223C6.05213 1.06152 6.22153 0.895222 6.42811 0.773339C6.63676 0.64939 6.88672 0.587415 7.178 0.587415C7.46928 0.587415 7.71924 0.64939 7.92789 0.773339C8.13654 0.895222 8.30697 1.06152 8.43918 1.27223C8.57139 1.48295 8.66849 1.72258 8.73046 1.99114C8.7945 2.25969 8.82652 2.53961 8.82652 2.83089C8.82652 3.12217 8.7945 3.40209 8.73046 3.67065C8.66849 3.9392 8.57139 4.17884 8.43918 4.38955C8.30697 4.60026 8.13654 4.7676 7.92789 4.89154C7.71924 5.01343 7.46928 5.07437 7.178 5.07437ZM7.178 4.37406C7.33087 4.37406 7.46308 4.33068 7.57464 4.24391C7.68619 4.15715 7.77709 4.04043 7.84732 3.89376C7.91963 3.74708 7.97231 3.58182 8.00536 3.39796C8.04048 3.2141 8.05804 3.02508 8.05804 2.83089C8.05804 2.62431 8.04048 2.42909 8.00536 2.24523C7.97231 2.05931 7.92066 1.89508 7.85042 1.75254C7.78019 1.60793 7.68929 1.49431 7.57774 1.41168C7.46618 1.32904 7.33294 1.28773 7.178 1.28773C7.02306 1.28773 6.88982 1.33111 6.77826 1.41787C6.66671 1.50257 6.57581 1.61826 6.50558 1.76493C6.43534 1.9116 6.38266 2.07687 6.34754 2.26073C6.31449 2.44458 6.29796 2.63464 6.29796 2.83089C6.29796 3.03541 6.31449 3.23063 6.34754 3.41655C6.38266 3.60041 6.43534 3.76464 6.50558 3.90925C6.57581 4.05386 6.66671 4.16748 6.77826 4.25011C6.88982 4.33274 7.02306 4.37406 7.178 4.37406ZM10.7986 5V0.661785H11.4989L12.85 3.33908C12.8686 3.37214 12.8944 3.41965 12.9274 3.48162C12.9605 3.5436 12.9863 3.59524 13.0049 3.63656C13.0028 3.58285 12.9997 3.52914 12.9956 3.47543C12.9935 3.42172 12.9925 3.37627 12.9925 3.33908V0.661785H13.6742V5H13.0049L11.6291 2.31031C11.6105 2.27519 11.5847 2.22664 11.5516 2.16467C11.5186 2.10269 11.4907 2.05208 11.4679 2.01283C11.4783 2.05828 11.4834 2.10889 11.4834 2.16467C11.4855 2.22044 11.4865 2.26899 11.4865 2.31031V5H10.7986ZM15.857 5V0.661785H18.7822V1.3621H16.5945V2.40947H18.1873V3.10978H16.5945V5H15.857ZM21.9814 5V0.661785H22.7189V5H21.9814ZM21.0766 5V4.34927H23.63V5H21.0766ZM21.0766 1.31252V0.661785H23.63V1.31252H21.0766ZM27.4799 5.07437C27.1865 5.07437 26.9314 5.01239 26.7145 4.88845C26.4996 4.76243 26.322 4.59303 26.1815 4.38025C26.0431 4.16541 25.9398 3.92474 25.8716 3.65825C25.8035 3.3897 25.7694 3.11391 25.7694 2.83089C25.7694 2.56027 25.8045 2.29275 25.8747 2.02832C25.945 1.76183 26.0514 1.52013 26.1939 1.30322C26.3364 1.08631 26.5141 0.912781 26.7269 0.782635C26.9417 0.652489 27.1927 0.587415 27.4799 0.587415C27.7257 0.587415 27.9323 0.629765 28.0996 0.714463C28.269 0.797096 28.4105 0.905551 28.5241 1.03983C28.6378 1.17204 28.7359 1.31252 28.8185 1.46126L28.1678 1.8331C28.0914 1.68643 27.9984 1.55938 27.8889 1.45196C27.7815 1.34247 27.6451 1.28773 27.4799 1.28773C27.3063 1.28773 27.1597 1.33524 27.0399 1.43027C26.92 1.52323 26.8229 1.64718 26.7486 1.80212C26.6742 1.95499 26.6205 2.12232 26.5874 2.30411C26.5544 2.48384 26.5379 2.65943 26.5379 2.83089C26.5379 3.02714 26.5565 3.2172 26.5936 3.40106C26.6329 3.58492 26.6907 3.75018 26.7672 3.89685C26.8436 4.04353 26.9407 4.16025 27.0585 4.24701C27.1783 4.33171 27.3187 4.37406 27.4799 4.37406C27.7092 4.37406 27.8806 4.29762 27.9943 4.14475C28.11 3.98982 28.1678 3.79769 28.1678 3.56839V3.47543H27.4117V2.78131H28.9239V3.38247C28.9239 3.74811 28.8598 4.05695 28.7318 4.30898C28.6057 4.56101 28.4333 4.7521 28.2143 4.88225C27.9974 5.01033 27.7526 5.07437 27.4799 5.07437ZM36.0908 5V0.661785H37.5534C37.9045 0.661785 38.1814 0.718595 38.3838 0.832215C38.5863 0.943769 38.7298 1.08838 38.8145 1.26604C38.8992 1.44163 38.9416 1.62652 38.9416 1.82071C38.9416 2.01283 38.8951 2.18842 38.8021 2.34749C38.7112 2.50449 38.5697 2.62638 38.3776 2.71314C38.6193 2.79371 38.798 2.92902 38.9137 3.11907C39.0314 3.30913 39.0903 3.51261 39.0903 3.72952C39.0903 3.88033 39.0655 4.03113 39.016 4.18194C38.9664 4.33274 38.8848 4.47012 38.7712 4.59407C38.6596 4.71595 38.5119 4.81408 38.328 4.88845C38.1442 4.96282 37.9169 5 37.6463 5H36.0908ZM36.8282 4.31828H37.6959C37.8674 4.31828 38.0006 4.28936 38.0956 4.23152C38.1907 4.17161 38.2568 4.09724 38.2939 4.00841C38.3332 3.91751 38.3528 3.82662 38.3528 3.73572C38.3528 3.6283 38.3301 3.52604 38.2847 3.42895C38.2413 3.32979 38.1586 3.24922 38.0368 3.18725C37.9169 3.12321 37.7434 3.09119 37.5162 3.09119H36.8282V4.31828ZM36.8282 2.41566H37.4542C37.7083 2.41566 37.8963 2.36608 38.0182 2.26692C38.1421 2.1657 38.2041 2.03349 38.2041 1.87029C38.2041 1.78559 38.1876 1.70296 38.1545 1.62239C38.1235 1.54182 38.0626 1.47572 37.9717 1.42407C37.8808 1.37036 37.7475 1.3435 37.5719 1.3435H36.8282V2.41566ZM42.587 5.07437C42.3267 5.07437 42.085 5.01963 41.8619 4.91014C41.6408 4.80065 41.4622 4.61989 41.3258 4.36786C41.1915 4.11583 41.1244 3.77497 41.1244 3.34528V0.661785H41.8557V3.34528C41.8557 3.61177 41.8867 3.81939 41.9487 3.96812C42.0127 4.11686 42.0995 4.22222 42.2089 4.28419C42.3205 4.3441 42.4465 4.37406 42.587 4.37406C42.7254 4.37406 42.8493 4.3441 42.9588 4.28419C43.0704 4.22222 43.1582 4.11686 43.2222 3.96812C43.2863 3.81939 43.3183 3.61177 43.3183 3.34528V0.661785H44.0558V3.34528C44.0558 3.76877 43.9886 4.10757 43.8544 4.36166C43.7201 4.61369 43.5414 4.79548 43.3183 4.90704C43.0952 5.01859 42.8514 5.07437 42.587 5.07437ZM47.2736 5V1.36829H46.0155V0.661785H49.2753V1.36829H48.0111V5H47.2736ZM52.332 5V1.36829H51.0739V0.661785H54.3338V1.36829H53.0695V5H52.332ZM57.7623 5.07437C57.471 5.07437 57.221 5.01343 57.0124 4.89154C56.8058 4.7676 56.6364 4.60026 56.5042 4.38955C56.372 4.17884 56.2749 3.9392 56.2129 3.67065C56.1509 3.40209 56.1199 3.12217 56.1199 2.83089C56.1199 2.53961 56.1509 2.25969 56.2129 1.99114C56.2749 1.72258 56.372 1.48295 56.5042 1.27223C56.6364 1.06152 56.8058 0.895222 57.0124 0.773339C57.221 0.64939 57.471 0.587415 57.7623 0.587415C58.0535 0.587415 58.3035 0.64939 58.5122 0.773339C58.7208 0.895222 58.8912 1.06152 59.0234 1.27223C59.1557 1.48295 59.2528 1.72258 59.3147 1.99114C59.3788 2.25969 59.4108 2.53961 59.4108 2.83089C59.4108 3.12217 59.3788 3.40209 59.3147 3.67065C59.2528 3.9392 59.1557 4.17884 59.0234 4.38955C58.8912 4.60026 58.7208 4.7676 58.5122 4.89154C58.3035 5.01343 58.0535 5.07437 57.7623 5.07437ZM57.7623 4.37406C57.9151 4.37406 58.0473 4.33068 58.1589 4.24391C58.2705 4.15715 58.3614 4.04043 58.4316 3.89376C58.5039 3.74708 58.5566 3.58182 58.5896 3.39796C58.6247 3.2141 58.6423 3.02508 58.6423 2.83089C58.6423 2.62431 58.6247 2.42909 58.5896 2.24523C58.5566 2.05931 58.5049 1.89508 58.4347 1.75254C58.3645 1.60793 58.2736 1.49431 58.162 1.41168C58.0504 1.32904 57.9172 1.28773 57.7623 1.28773C57.6073 1.28773 57.4741 1.33111 57.3625 1.41787C57.251 1.50257 57.1601 1.61826 57.0898 1.76493C57.0196 1.9116 56.9669 2.07687 56.9318 2.26073C56.8988 2.44458 56.8822 2.63464 56.8822 2.83089C56.8822 3.03541 56.8988 3.23063 56.9318 3.41655C56.9669 3.60041 57.0196 3.76464 57.0898 3.90925C57.1601 4.05386 57.251 4.16748 57.3625 4.25011C57.4741 4.33274 57.6073 4.37406 57.7623 4.37406ZM61.3829 5V0.661785H62.0832L63.4342 3.33908C63.4528 3.37214 63.4787 3.41965 63.5117 3.48162C63.5448 3.5436 63.5706 3.59524 63.5892 3.63656C63.5871 3.58285 63.584 3.52914 63.5799 3.47543C63.5778 3.42172 63.5768 3.37627 63.5768 3.33908V0.661785H64.2585V5H63.5892L62.2133 2.31031C62.1948 2.27519 62.1689 2.22664 62.1359 2.16467C62.1028 2.10269 62.0749 2.05208 62.0522 2.01283C62.0625 2.05828 62.0677 2.10889 62.0677 2.16467C62.0698 2.22044 62.0708 2.26899 62.0708 2.31031V5H61.3829ZM67.9287 5.07437C67.6932 5.07437 67.4722 5.02892 67.2656 4.93803C67.0611 4.84506 66.8824 4.71492 66.7295 4.54759C66.5766 4.38025 66.462 4.184 66.3855 3.95883L67.0549 3.71093C67.1478 3.90925 67.278 4.07038 67.4453 4.19433C67.6147 4.31828 67.7965 4.38025 67.9907 4.38025C68.1766 4.38025 68.3284 4.33274 68.4462 4.23771C68.5639 4.14269 68.6228 4.00428 68.6228 3.82248C68.6228 3.70473 68.5815 3.60041 68.4989 3.50951C68.4162 3.41655 68.3067 3.33185 68.1704 3.25542C68.0361 3.17898 67.8895 3.10565 67.7304 3.03541C67.592 2.9755 67.4525 2.90836 67.3121 2.83399C67.1736 2.75962 67.0456 2.67182 66.9278 2.5706C66.8121 2.46937 66.7181 2.35059 66.6458 2.21425C66.5756 2.0779 66.5405 1.9178 66.5405 1.73394C66.5405 1.5253 66.5952 1.33421 66.7047 1.16068C66.8142 0.987151 66.9691 0.848741 67.1695 0.74545C67.3699 0.640094 67.6064 0.587415 67.8791 0.587415C68.2055 0.587415 68.4854 0.675213 68.7189 0.850807C68.9544 1.0264 69.1103 1.24641 69.1868 1.51084L68.5237 1.73394C68.4617 1.60586 68.3729 1.49844 68.2572 1.41168C68.1415 1.32491 68.001 1.28153 67.8357 1.28153C67.6808 1.28153 67.5496 1.32078 67.4422 1.39928C67.3368 1.47778 67.2842 1.5852 67.2842 1.72155C67.2842 1.81658 67.3141 1.89921 67.374 1.96945C67.436 2.03968 67.5259 2.10786 67.6436 2.17396C67.7634 2.24007 67.9101 2.31444 68.0836 2.39707C68.2241 2.46318 68.3687 2.53755 68.5175 2.62018C68.6662 2.70075 68.8046 2.79474 68.9327 2.90216C69.0628 3.00959 69.1672 3.1356 69.2457 3.28021C69.3262 3.42481 69.3665 3.59318 69.3665 3.7853C69.3665 4.06005 69.2994 4.29349 69.1651 4.48561C69.0329 4.67773 68.8573 4.82441 68.6383 4.92563C68.4214 5.02479 68.1849 5.07437 67.9287 5.07437Z" fill="white"/>
</svg>
