<svg width="120" height="5" viewBox="0 0 120 5" fill="none" xmlns="http://www.w3.org/2000/svg">
<path opacity="0.7" d="M0.244581 4.85913V0.520915H0.944893L2.29594 3.19821C2.31453 3.23127 2.34035 3.27878 2.37341 3.34076C2.40646 3.40273 2.43228 3.45438 2.45087 3.49569C2.44881 3.44198 2.44571 3.38827 2.44158 3.33456C2.43951 3.28085 2.43848 3.2354 2.43848 3.19821V0.520915H3.1202V4.85913H2.45087L1.07504 2.16944C1.05645 2.13432 1.03062 2.08577 0.997571 2.0238C0.964518 1.96182 0.93663 1.91121 0.913906 1.87196C0.924235 1.91741 0.929399 1.96802 0.929399 2.0238C0.931465 2.07957 0.932498 2.12812 0.932498 2.16944V4.85913H0.244581ZM6.74082 4.9335C6.44954 4.9335 6.19957 4.87256 5.99092 4.75068C5.78434 4.62673 5.61495 4.4594 5.48273 4.24868C5.35052 4.03797 5.25343 3.79833 5.19145 3.52978C5.12948 3.26122 5.09849 2.9813 5.09849 2.69002C5.09849 2.39874 5.12948 2.11882 5.19145 1.85027C5.25343 1.58171 5.35052 1.34208 5.48273 1.13136C5.61495 0.920651 5.78434 0.754353 5.99092 0.63247C6.19957 0.508521 6.44954 0.446546 6.74082 0.446546C7.0321 0.446546 7.28206 0.508521 7.49071 0.63247C7.69936 0.754353 7.86979 0.920651 8.002 1.13136C8.13421 1.34208 8.2313 1.58171 8.29328 1.85027C8.35732 2.11882 8.38934 2.39874 8.38934 2.69002C8.38934 2.9813 8.35732 3.26122 8.29328 3.52978C8.2313 3.79833 8.13421 4.03797 8.002 4.24868C7.86979 4.4594 7.69936 4.62673 7.49071 4.75068C7.28206 4.87256 7.0321 4.9335 6.74082 4.9335ZM6.74082 4.23319C6.89369 4.23319 7.0259 4.18981 7.13745 4.10304C7.24901 4.01628 7.3399 3.89956 7.41014 3.75289C7.48244 3.60621 7.53512 3.44095 7.56818 3.25709C7.60329 3.07323 7.62085 2.88421 7.62085 2.69002C7.62085 2.48344 7.60329 2.28822 7.56818 2.10436C7.53512 1.91844 7.48348 1.75421 7.41324 1.61167C7.343 1.46706 7.25211 1.35344 7.14055 1.27081C7.029 1.18817 6.89575 1.14686 6.74082 1.14686C6.58588 1.14686 6.45263 1.19024 6.34108 1.277C6.22953 1.3617 6.13863 1.47739 6.06839 1.62406C5.99816 1.77073 5.94548 1.936 5.91036 2.11986C5.87731 2.30372 5.86078 2.49377 5.86078 2.69002C5.86078 2.89454 5.87731 3.08976 5.91036 3.27568C5.94548 3.45954 5.99816 3.62377 6.06839 3.76838C6.13863 3.91299 6.22953 4.02661 6.34108 4.10924C6.45263 4.19187 6.58588 4.23319 6.74082 4.23319ZM10.3614 4.85913V0.520915H11.0617L12.4128 3.19821C12.4314 3.23127 12.4572 3.27878 12.4903 3.34076C12.5233 3.40273 12.5491 3.45438 12.5677 3.49569C12.5657 3.44198 12.5626 3.38827 12.5584 3.33456C12.5564 3.28085 12.5553 3.2354 12.5553 3.19821V0.520915H13.2371V4.85913H12.5677L11.1919 2.16944C11.1733 2.13432 11.1475 2.08577 11.1144 2.0238C11.0814 1.96182 11.0535 1.91121 11.0308 1.87196C11.0411 1.91741 11.0463 1.96802 11.0463 2.0238C11.0483 2.07957 11.0494 2.12812 11.0494 2.16944V4.85913H10.3614ZM20.4783 4.85913V0.520915H23.4035V1.22123H21.2158V2.2686H22.8085V2.96891H21.2158V4.85913H20.4783ZM25.5367 4.85913V0.520915H26.2742V4.15262H28.276V4.85913H25.5367ZM32.033 4.9335C31.7417 4.9335 31.4917 4.87256 31.2831 4.75068C31.0765 4.62673 30.9071 4.4594 30.7749 4.24868C30.6427 4.03797 30.5456 3.79833 30.4836 3.52978C30.4216 3.26122 30.3906 2.9813 30.3906 2.69002C30.3906 2.39874 30.4216 2.11882 30.4836 1.85027C30.5456 1.58171 30.6427 1.34208 30.7749 1.13136C30.9071 0.920651 31.0765 0.754353 31.2831 0.63247C31.4917 0.508521 31.7417 0.446546 32.033 0.446546C32.3242 0.446546 32.5742 0.508521 32.7828 0.63247C32.9915 0.754353 33.1619 0.920651 33.2941 1.13136C33.4263 1.34208 33.5234 1.58171 33.5854 1.85027C33.6495 2.11882 33.6815 2.39874 33.6815 2.69002C33.6815 2.9813 33.6495 3.26122 33.5854 3.52978C33.5234 3.79833 33.4263 4.03797 33.2941 4.24868C33.1619 4.4594 32.9915 4.62673 32.7828 4.75068C32.5742 4.87256 32.3242 4.9335 32.033 4.9335ZM32.033 4.23319C32.1858 4.23319 32.318 4.18981 32.4296 4.10304C32.5411 4.01628 32.632 3.89956 32.7023 3.75289C32.7746 3.60621 32.8273 3.44095 32.8603 3.25709C32.8954 3.07323 32.913 2.88421 32.913 2.69002C32.913 2.48344 32.8954 2.28822 32.8603 2.10436C32.8273 1.91844 32.7756 1.75421 32.7054 1.61167C32.6351 1.46706 32.5442 1.35344 32.4327 1.27081C32.3211 1.18817 32.1879 1.14686 32.033 1.14686C31.878 1.14686 31.7448 1.19024 31.6332 1.277C31.5217 1.3617 31.4308 1.47739 31.3605 1.62406C31.2903 1.77073 31.2376 1.936 31.2025 2.11986C31.1694 2.30372 31.1529 2.49377 31.1529 2.69002C31.1529 2.89454 31.1694 3.08976 31.2025 3.27568C31.2376 3.45954 31.2903 3.62377 31.3605 3.76838C31.4308 3.91299 31.5217 4.02661 31.6332 4.10924C31.7448 4.19187 31.878 4.23319 32.033 4.23319ZM35.3251 4.85913L36.7443 0.520915H37.4384L38.8577 4.85913H38.0644L37.1967 1.94633C37.1864 1.91328 37.174 1.86886 37.1596 1.81308C37.1472 1.75731 37.1348 1.69843 37.1224 1.63646C37.11 1.57448 37.0996 1.51664 37.0914 1.46293C37.081 1.51664 37.0697 1.57448 37.0573 1.63646C37.0449 1.69843 37.0325 1.75731 37.0201 1.81308C37.0077 1.86886 36.9964 1.91328 36.986 1.94633L36.1184 4.85913H35.3251ZM36.2423 3.90472L36.4406 3.2354H37.7421L37.9404 3.90472H36.2423ZM41.778 4.85913V1.22742H40.5199V0.520915H43.7797V1.22742H42.5155V4.85913H41.778ZM46.8364 4.85913V0.520915H47.5739V4.85913H46.8364ZM45.9316 4.85913V4.2084H48.4849V4.85913H45.9316ZM45.9316 1.17165V0.520915H48.4849V1.17165H45.9316ZM50.8288 4.85913V0.520915H51.5292L52.8802 3.19821C52.8988 3.23127 52.9246 3.27878 52.9577 3.34076C52.9907 3.40273 53.0165 3.45438 53.0351 3.49569C53.0331 3.44198 53.03 3.38827 53.0258 3.33456C53.0238 3.28085 53.0227 3.2354 53.0227 3.19821V0.520915H53.7045V4.85913H53.0351L51.6593 2.16944C51.6407 2.13432 51.6149 2.08577 51.5818 2.0238C51.5488 1.96182 51.5209 1.91121 51.4982 1.87196C51.5085 1.91741 51.5137 1.96802 51.5137 2.0238C51.5157 2.07957 51.5168 2.12812 51.5168 2.16944V4.85913H50.8288ZM57.3933 4.9335C57.0999 4.9335 56.8448 4.87153 56.6279 4.74758C56.413 4.62156 56.2354 4.45216 56.0949 4.23939C55.9565 4.02454 55.8532 3.78387 55.785 3.51738C55.7168 3.24883 55.6828 2.97304 55.6828 2.69002C55.6828 2.4194 55.7179 2.15188 55.7881 1.88745C55.8584 1.62096 55.9647 1.37926 56.1073 1.16235C56.2498 0.945441 56.4275 0.771912 56.6403 0.641766C56.8551 0.511619 57.1061 0.446546 57.3933 0.446546C57.6391 0.446546 57.8457 0.488896 58.013 0.573594C58.1824 0.656227 58.3239 0.764682 58.4375 0.89896C58.5511 1.03117 58.6493 1.17165 58.7319 1.32039L58.0812 1.69223C58.0047 1.54556 57.9118 1.41851 57.8023 1.31109C57.6949 1.2016 57.5585 1.14686 57.3933 1.14686C57.2197 1.14686 57.0731 1.19437 56.9532 1.2894C56.8334 1.38236 56.7363 1.50631 56.662 1.66125C56.5876 1.81412 56.5339 1.98145 56.5008 2.16324C56.4678 2.34297 56.4512 2.51856 56.4512 2.69002C56.4512 2.88628 56.4698 3.07633 56.507 3.26019C56.5463 3.44405 56.6041 3.60931 56.6805 3.75598C56.757 3.90266 56.8541 4.01938 56.9718 4.10614C57.0916 4.19084 57.2321 4.23319 57.3933 4.23319C57.6226 4.23319 57.794 4.15675 57.9076 4.00388C58.0233 3.84895 58.0812 3.65683 58.0812 3.42752V3.33456H57.3251V2.64044H58.8373V3.2416C58.8373 3.60725 58.7732 3.91609 58.6451 4.16812C58.5191 4.42014 58.3466 4.61123 58.1277 4.74138C57.9107 4.86946 57.6659 4.9335 57.3933 4.9335ZM67.0701 4.85913V1.22742H65.812V0.520915H69.0719V1.22742H67.8076V4.85913H67.0701ZM72.1285 4.85913V0.520915H72.866V4.85913H72.1285ZM71.2237 4.85913V4.2084H73.777V4.85913H71.2237ZM71.2237 1.17165V0.520915H73.777V1.17165H71.2237ZM76.121 4.85913V0.520915H76.8585V4.15262H78.8603V4.85913H76.121ZM82.2454 4.85913V1.22742H80.9873V0.520915H84.2471V1.22742H82.9829V4.85913H82.2454ZM91.2963 4.85913V0.520915H92.7589C93.11 0.520915 93.3869 0.577725 93.5893 0.691346C93.7918 0.8029 93.9353 0.947507 94.02 1.12517C94.1047 1.30076 94.1471 1.48565 94.1471 1.67984C94.1471 1.87196 94.1006 2.04755 94.0076 2.20662C93.9168 2.36362 93.7752 2.48551 93.5831 2.57227C93.8248 2.65284 94.0035 2.78815 94.1192 2.9782C94.237 3.16826 94.2958 3.37174 94.2958 3.58865C94.2958 3.73946 94.271 3.89026 94.2215 4.04107C94.1719 4.19187 94.0903 4.32925 93.9767 4.4532C93.8651 4.57508 93.7174 4.67321 93.5335 4.74758C93.3497 4.82195 93.1224 4.85913 92.8518 4.85913H91.2963ZM92.0338 4.17741H92.9014C93.0729 4.17741 93.2061 4.14849 93.3011 4.09065C93.3962 4.03074 93.4623 3.95637 93.4995 3.86754C93.5387 3.77664 93.5583 3.68575 93.5583 3.59485C93.5583 3.48743 93.5356 3.38517 93.4902 3.28808C93.4468 3.18892 93.3641 3.10835 93.2423 3.04638C93.1224 2.98234 92.9489 2.95032 92.7217 2.95032H92.0338V4.17741ZM92.0338 2.27479H92.6597C92.9138 2.27479 93.1018 2.22521 93.2237 2.12606C93.3476 2.02483 93.4096 1.89262 93.4096 1.72942C93.4096 1.64472 93.3931 1.56209 93.36 1.48152C93.329 1.40095 93.2681 1.33485 93.1772 1.2832C93.0863 1.22949 92.953 1.20264 92.7775 1.20264H92.0338V2.27479ZM97.7925 4.9335C97.5322 4.9335 97.2905 4.87876 97.0674 4.76927C96.8464 4.65978 96.6677 4.47902 96.5313 4.22699C96.397 3.97496 96.3299 3.6341 96.3299 3.20441V0.520915H97.0612V3.20441C97.0612 3.4709 97.0922 3.67852 97.1542 3.82726C97.2182 3.97599 97.305 4.08135 97.4145 4.14333C97.526 4.20323 97.652 4.23319 97.7925 4.23319C97.9309 4.23319 98.0549 4.20323 98.1643 4.14333C98.2759 4.08135 98.3637 3.97599 98.4277 3.82726C98.4918 3.67852 98.5238 3.4709 98.5238 3.20441V0.520915H99.2613V3.20441C99.2613 3.6279 99.1942 3.9667 99.0599 4.22079C98.9256 4.47282 98.7469 4.65461 98.5238 4.76617C98.3007 4.87772 98.0569 4.9335 97.7925 4.9335ZM102.479 4.85913V1.22742H101.221V0.520915H104.481V1.22742H103.217V4.85913H102.479ZM107.538 4.85913V1.22742H106.279V0.520915H109.539V1.22742H108.275V4.85913H107.538ZM112.968 4.9335C112.676 4.9335 112.427 4.87256 112.218 4.75068C112.011 4.62673 111.842 4.4594 111.71 4.24868C111.577 4.03797 111.48 3.79833 111.418 3.52978C111.356 3.26122 111.325 2.9813 111.325 2.69002C111.325 2.39874 111.356 2.11882 111.418 1.85027C111.48 1.58171 111.577 1.34208 111.71 1.13136C111.842 0.920651 112.011 0.754353 112.218 0.63247C112.427 0.508521 112.676 0.446546 112.968 0.446546C113.259 0.446546 113.509 0.508521 113.718 0.63247C113.926 0.754353 114.097 0.920651 114.229 1.13136C114.361 1.34208 114.458 1.58171 114.52 1.85027C114.584 2.11882 114.616 2.39874 114.616 2.69002C114.616 2.9813 114.584 3.26122 114.52 3.52978C114.458 3.79833 114.361 4.03797 114.229 4.24868C114.097 4.4594 113.926 4.62673 113.718 4.75068C113.509 4.87256 113.259 4.9335 112.968 4.9335ZM112.968 4.23319C113.121 4.23319 113.253 4.18981 113.364 4.10304C113.476 4.01628 113.567 3.89956 113.637 3.75289C113.709 3.60621 113.762 3.44095 113.795 3.25709C113.83 3.07323 113.848 2.88421 113.848 2.69002C113.848 2.48344 113.83 2.28822 113.795 2.10436C113.762 1.91844 113.71 1.75421 113.64 1.61167C113.57 1.46706 113.479 1.35344 113.368 1.27081C113.256 1.18817 113.123 1.14686 112.968 1.14686C112.813 1.14686 112.68 1.19024 112.568 1.277C112.456 1.3617 112.366 1.47739 112.295 1.62406C112.225 1.77073 112.172 1.936 112.137 2.11986C112.104 2.30372 112.088 2.49377 112.088 2.69002C112.088 2.89454 112.104 3.08976 112.137 3.27568C112.172 3.45954 112.225 3.62377 112.295 3.76838C112.366 3.91299 112.456 4.02661 112.568 4.10924C112.68 4.19187 112.813 4.23319 112.968 4.23319ZM116.588 4.85913V0.520915H117.289L118.64 3.19821C118.658 3.23127 118.684 3.27878 118.717 3.34076C118.75 3.40273 118.776 3.45438 118.795 3.49569C118.793 3.44198 118.79 3.38827 118.785 3.33456C118.783 3.28085 118.782 3.2354 118.782 3.19821V0.520915H119.464V4.85913H118.795L117.419 2.16944C117.4 2.13432 117.374 2.08577 117.341 2.0238C117.308 1.96182 117.28 1.91121 117.258 1.87196C117.268 1.91741 117.273 1.96802 117.273 2.0238C117.275 2.07957 117.276 2.12812 117.276 2.16944V4.85913H116.588Z" fill="white"/>
</svg>
