<svg width="50" height="6" viewBox="0 0 50 6" fill="none" xmlns="http://www.w3.org/2000/svg">
<path opacity="0.7" d="M1.21726 4.93726L0.578919 0.59904H1.24205L1.58291 3.18338C1.58704 3.21436 1.59427 3.26394 1.6046 3.33212C1.61493 3.39822 1.62216 3.44987 1.62629 3.48705C1.63249 3.44987 1.64178 3.40029 1.65418 3.33831C1.66864 3.27427 1.68 3.22056 1.68826 3.17718L2.20885 0.59904H2.60549L3.13227 3.16479C3.14466 3.22263 3.15603 3.27634 3.16635 3.32592C3.17668 3.37343 3.18598 3.42095 3.19424 3.46846C3.20457 3.40855 3.21284 3.35691 3.21903 3.31352C3.22523 3.26808 3.23143 3.22056 3.23763 3.17098L3.52271 0.59904H4.23541L3.59088 4.93726H3.00832L2.45675 2.28475C2.44435 2.22484 2.43299 2.17009 2.42266 2.12051C2.4144 2.06887 2.40717 2.01826 2.40097 1.96868C2.39477 2.01826 2.38651 2.06784 2.37618 2.11742C2.36792 2.16493 2.35759 2.21864 2.34519 2.27855L1.79982 4.93726H1.21726ZM7.09375 4.93726V0.59904H7.83124V4.93726H7.09375ZM6.18892 4.93726V4.28652H8.74227V4.93726H6.18892ZM6.18892 1.24977V0.59904H8.74227V1.24977H6.18892ZM11.0862 4.93726V0.59904H11.7865L13.1376 3.27634C13.1562 3.30939 13.182 3.35691 13.215 3.41888C13.2481 3.48086 13.2739 3.5325 13.2925 3.57382C13.2904 3.52011 13.2873 3.46639 13.2832 3.41268C13.2811 3.35897 13.2801 3.31352 13.2801 3.27634V0.59904H13.9618V4.93726H13.2925L11.9167 2.24756C11.8981 2.21244 11.8723 2.1639 11.8392 2.10192C11.8061 2.03995 11.7783 1.98934 11.7555 1.95008C11.7659 1.99553 11.771 2.04615 11.771 2.10192C11.7731 2.1577 11.7741 2.20625 11.7741 2.24756V4.93726H11.0862ZM21.2031 4.93726V0.59904H22.6657C23.0169 0.59904 23.2937 0.65585 23.4961 0.769471C23.6986 0.881025 23.8421 1.02563 23.9268 1.20329C24.0115 1.37889 24.0539 1.56378 24.0539 1.75796C24.0539 1.95008 24.0074 2.12568 23.9145 2.28475C23.8236 2.44175 23.682 2.56363 23.4899 2.6504C23.7316 2.73096 23.9103 2.86627 24.026 3.05633C24.1438 3.24638 24.2026 3.44987 24.2026 3.66678C24.2026 3.81758 24.1778 3.96839 24.1283 4.11919C24.0787 4.27 23.9971 4.40737 23.8835 4.53132C23.7719 4.65321 23.6242 4.75133 23.4403 4.8257C23.2565 4.90007 23.0292 4.93726 22.7586 4.93726H21.2031ZM21.9406 4.25554H22.8082C22.9797 4.25554 23.1129 4.22661 23.2079 4.16877C23.303 4.10886 23.3691 4.03449 23.4063 3.94566C23.4455 3.85477 23.4651 3.76387 23.4651 3.67298C23.4651 3.56555 23.4424 3.4633 23.397 3.3662C23.3536 3.26704 23.2709 3.18648 23.1491 3.1245C23.0292 3.06046 22.8557 3.02844 22.6285 3.02844H21.9406V4.25554ZM21.9406 2.35292H22.5665C22.8206 2.35292 23.0086 2.30334 23.1305 2.20418C23.2544 2.10296 23.3164 1.97074 23.3164 1.80754C23.3164 1.72285 23.2999 1.64021 23.2668 1.55965C23.2358 1.47908 23.1749 1.41297 23.084 1.36133C22.9931 1.30762 22.8599 1.28076 22.6843 1.28076H21.9406V2.35292ZM27.6993 5.01163C27.439 5.01163 27.1973 4.95688 26.9742 4.84739C26.7532 4.7379 26.5745 4.55715 26.4381 4.30512C26.3038 4.05309 26.2367 3.71223 26.2367 3.28254V0.59904H26.968V3.28254C26.968 3.54903 26.999 3.75664 27.061 3.90538C27.125 4.05412 27.2118 4.15948 27.3213 4.22145C27.4328 4.28136 27.5588 4.31131 27.6993 4.31131C27.8377 4.31131 27.9617 4.28136 28.0711 4.22145C28.1827 4.15948 28.2705 4.05412 28.3345 3.90538C28.3986 3.75664 28.4306 3.54903 28.4306 3.28254V0.59904H29.1681V3.28254C29.1681 3.70603 29.101 4.04482 28.9667 4.29892C28.8324 4.55095 28.6537 4.73274 28.4306 4.84429C28.2075 4.95585 27.9637 5.01163 27.6993 5.01163ZM32.3859 4.93726V1.30555H31.1278V0.59904H34.3877V1.30555H33.1234V4.93726H32.3859ZM37.4443 4.93726V1.30555H36.1862V0.59904H39.4461V1.30555H38.1818V4.93726H37.4443ZM42.8746 5.01163C42.5833 5.01163 42.3333 4.95068 42.1247 4.8288C41.9181 4.70485 41.7487 4.53752 41.6165 4.32681C41.4843 4.11609 41.3872 3.87646 41.3252 3.6079C41.2632 3.33935 41.2323 3.05943 41.2323 2.76815C41.2323 2.47687 41.2632 2.19695 41.3252 1.92839C41.3872 1.65984 41.4843 1.4202 41.6165 1.20949C41.7487 0.998776 41.9181 0.832478 42.1247 0.710595C42.3333 0.586646 42.5833 0.524671 42.8746 0.524671C43.1659 0.524671 43.4158 0.586646 43.6245 0.710595C43.8331 0.832478 44.0036 0.998776 44.1358 1.20949C44.268 1.4202 44.3651 1.65984 44.427 1.92839C44.4911 2.19695 44.5231 2.47687 44.5231 2.76815C44.5231 3.05943 44.4911 3.33935 44.427 3.6079C44.3651 3.87646 44.268 4.11609 44.1358 4.32681C44.0036 4.53752 43.8331 4.70485 43.6245 4.8288C43.4158 4.95068 43.1659 5.01163 42.8746 5.01163ZM42.8746 4.31131C43.0275 4.31131 43.1597 4.26793 43.2712 4.18117C43.3828 4.0944 43.4737 3.97768 43.5439 3.83101C43.6162 3.68434 43.6689 3.51907 43.7019 3.33521C43.7371 3.15136 43.7546 2.96234 43.7546 2.76815C43.7546 2.56157 43.7371 2.36635 43.7019 2.18249C43.6689 1.99657 43.6172 1.83233 43.547 1.68979C43.4768 1.54518 43.3859 1.43156 43.2743 1.34893C43.1628 1.2663 43.0295 1.22498 42.8746 1.22498C42.7196 1.22498 42.5864 1.26837 42.4748 1.35513C42.3633 1.43983 42.2724 1.55551 42.2022 1.70219C42.1319 1.84886 42.0792 2.01413 42.0441 2.19798C42.0111 2.38184 41.9945 2.5719 41.9945 2.76815C41.9945 2.97266 42.0111 3.16788 42.0441 3.35381C42.0792 3.53766 42.1319 3.7019 42.2022 3.8465C42.2724 3.99111 42.3633 4.10473 42.4748 4.18736C42.5864 4.27 42.7196 4.31131 42.8746 4.31131ZM46.4952 4.93726V0.59904H47.1955L48.5466 3.27634C48.5651 3.30939 48.591 3.35691 48.624 3.41888C48.6571 3.48086 48.6829 3.5325 48.7015 3.57382C48.6994 3.52011 48.6963 3.46639 48.6922 3.41268C48.6901 3.35897 48.6891 3.31352 48.6891 3.27634V0.59904H49.3708V4.93726H48.7015L47.3257 2.24756C47.3071 2.21244 47.2812 2.1639 47.2482 2.10192C47.2151 2.03995 47.1872 1.98934 47.1645 1.95008C47.1749 1.99553 47.18 2.04615 47.18 2.10192C47.1821 2.1577 47.1831 2.20625 47.1831 2.24756V4.93726H46.4952Z" fill="white"/>
</svg>
