<svg width="40" height="5" viewBox="0 0 40 5" fill="none" xmlns="http://www.w3.org/2000/svg">
<path opacity="0.7" d="M0.522825 4.75366V0.415447H1.98542C2.33661 0.415447 2.61343 0.472257 2.81588 0.585877C3.01833 0.697431 3.16191 0.842038 3.2466 1.0197C3.3313 1.19529 3.37365 1.38018 3.37365 1.57437C3.37365 1.76649 3.32717 1.94209 3.23421 2.10115C3.14331 2.25816 3.00181 2.38004 2.80968 2.4668C3.05138 2.54737 3.23008 2.68268 3.34576 2.87274C3.46352 3.06279 3.52239 3.26627 3.52239 3.48318C3.52239 3.63399 3.4976 3.78479 3.44802 3.9356C3.39844 4.0864 3.31684 4.22378 3.20322 4.34773C3.09167 4.46961 2.94396 4.56774 2.7601 4.64211C2.57625 4.71648 2.34901 4.75366 2.07839 4.75366H0.522825ZM1.26032 4.07194H2.12796C2.29943 4.07194 2.43267 4.04302 2.5277 3.98518C2.62273 3.92527 2.68883 3.8509 2.72602 3.76207C2.76527 3.67117 2.78489 3.58028 2.78489 3.48938C2.78489 3.38196 2.76217 3.2797 2.71672 3.18261C2.67334 3.08345 2.59071 3.00288 2.46882 2.94091C2.34901 2.87687 2.17548 2.84485 1.94824 2.84485H1.26032V4.07194ZM1.26032 2.16933H1.88626C2.14036 2.16933 2.32835 2.11975 2.45023 2.02059C2.57418 1.91936 2.63616 1.78715 2.63616 1.62395C2.63616 1.53925 2.61963 1.45662 2.58658 1.37605C2.55559 1.29548 2.49465 1.22938 2.40375 1.17773C2.31286 1.12402 2.17961 1.09717 2.00402 1.09717H1.26032V2.16933ZM5.82915 4.75366L5.19081 0.415447H5.85394L6.1948 2.99978C6.19893 3.03077 6.20616 3.08035 6.21649 3.14852C6.22682 3.21463 6.23405 3.26627 6.23818 3.30346C6.24438 3.26627 6.25368 3.21669 6.26607 3.15472C6.28053 3.09068 6.29189 3.03697 6.30016 2.99359L6.82074 0.415447H7.21738L7.74416 2.98119C7.75656 3.03903 7.76792 3.09275 7.77825 3.14232C7.78858 3.18984 7.79787 3.23735 7.80614 3.28487C7.81647 3.22496 7.82473 3.17331 7.83093 3.12993C7.83712 3.08448 7.84332 3.03697 7.84952 2.98739L8.1346 0.415447H8.84731L8.20277 4.75366H7.62021L7.06864 2.10115C7.05625 2.04124 7.04488 1.9865 7.03455 1.93692C7.02629 1.88528 7.01906 1.83466 7.01286 1.78508C7.00667 1.83466 6.9984 1.88424 6.98807 1.93382C6.97981 1.98134 6.96948 2.03505 6.95709 2.09496L6.41171 4.75366H5.82915ZM15.6981 4.75366V0.415447H17.2289C17.5883 0.415447 17.8734 0.481553 18.0841 0.613765C18.2969 0.745977 18.4487 0.915374 18.5396 1.12196C18.6326 1.32647 18.6791 1.53925 18.6791 1.76029C18.6791 1.91523 18.6522 2.07223 18.5985 2.2313C18.5448 2.3883 18.4601 2.53291 18.3444 2.66512C18.2287 2.79733 18.079 2.90372 17.8951 2.98429C17.7112 3.06486 17.4892 3.10514 17.2289 3.10514H16.4356V4.75366H15.6981ZM16.4356 2.41103H17.2661C17.4272 2.41103 17.5563 2.37901 17.6534 2.31497C17.7505 2.24886 17.8207 2.16623 17.8641 2.06707C17.9075 1.96584 17.9292 1.86358 17.9292 1.76029C17.9292 1.66733 17.9096 1.57127 17.8703 1.47211C17.8311 1.37089 17.7629 1.28516 17.6658 1.21492C17.5708 1.14468 17.4375 1.10956 17.2661 1.10956H16.4356V2.41103ZM20.7565 4.75366V0.415447H21.494V4.04715H23.4958V4.75366H20.7565ZM27.2528 4.82803C26.9925 4.82803 26.7508 4.77329 26.5277 4.6638C26.3066 4.55431 26.1279 4.37355 25.9916 4.12152C25.8573 3.86949 25.7902 3.52863 25.7902 3.09894V0.415447H26.5215V3.09894C26.5215 3.36543 26.5525 3.57305 26.6144 3.72179C26.6785 3.87053 26.7652 3.97588 26.8747 4.03786C26.9863 4.09777 27.1123 4.12772 27.2528 4.12772C27.3912 4.12772 27.5151 4.09777 27.6246 4.03786C27.7362 3.97588 27.824 3.87053 27.888 3.72179C27.952 3.57305 27.9841 3.36543 27.9841 3.09894V0.415447H28.7216V3.09894C28.7216 3.52244 28.6544 3.86123 28.5201 4.11532C28.3859 4.36735 28.2072 4.54915 27.9841 4.6607C27.761 4.77225 27.5172 4.82803 27.2528 4.82803ZM30.8734 4.75366V0.415447H31.5737L32.9247 3.09275C32.9433 3.1258 32.9692 3.17331 33.0022 3.23529C33.0353 3.29726 33.0611 3.34891 33.0797 3.39022C33.0776 3.33651 33.0745 3.2828 33.0704 3.22909C33.0683 3.17538 33.0673 3.12993 33.0673 3.09275V0.415447H33.749V4.75366H33.0797L31.7038 2.06397C31.6853 2.02885 31.6594 1.9803 31.6264 1.91833C31.5933 1.85635 31.5654 1.80574 31.5427 1.76649C31.553 1.81194 31.5582 1.86255 31.5582 1.91833C31.5603 1.97411 31.5613 2.02265 31.5613 2.06397V4.75366H30.8734ZM36.6073 3.16092V2.13214L37.9584 0.415447H38.8198L36.6073 3.16092ZM35.9318 4.75366V0.415447H36.6693V4.75366H35.9318ZM38.2373 4.75366L37.0288 2.49159L37.5246 1.87185L39.0987 4.75366H38.2373Z" fill="white"/>
</svg>
