<svg width="100" height="6" viewBox="0 0 100 6" fill="none" xmlns="http://www.w3.org/2000/svg">
<path opacity="0.7" d="M0.678541 5V0.661785H3.60374V1.3621H1.41604V2.40947H3.00878V3.10978H1.41604V5H0.678541ZM5.73697 5V0.661785H6.47446V4.29349H8.47624V5H5.73697ZM12.2332 5.07437C11.9419 5.07437 11.692 5.01343 11.4833 4.89154C11.2767 4.7676 11.1073 4.60026 10.9751 4.38955C10.8429 4.17884 10.7458 3.9392 10.6838 3.67065C10.6219 3.40209 10.5909 3.12217 10.5909 2.83089C10.5909 2.53961 10.6219 2.25969 10.6838 1.99114C10.7458 1.72258 10.8429 1.48295 10.9751 1.27223C11.1073 1.06152 11.2767 0.895222 11.4833 0.773339C11.692 0.64939 11.9419 0.587415 12.2332 0.587415C12.5245 0.587415 12.7744 0.64939 12.9831 0.773339C13.1917 0.895222 13.3622 1.06152 13.4944 1.27223C13.6266 1.48295 13.7237 1.72258 13.7857 1.99114C13.8497 2.25969 13.8817 2.53961 13.8817 2.83089C13.8817 3.12217 13.8497 3.40209 13.7857 3.67065C13.7237 3.9392 13.6266 4.17884 13.4944 4.38955C13.3622 4.60026 13.1917 4.7676 12.9831 4.89154C12.7744 5.01343 12.5245 5.07437 12.2332 5.07437ZM12.2332 4.37406C12.3861 4.37406 12.5183 4.33068 12.6298 4.24391C12.7414 4.15715 12.8323 4.04043 12.9025 3.89376C12.9748 3.74708 13.0275 3.58182 13.0606 3.39796C13.0957 3.2141 13.1132 3.02508 13.1132 2.83089C13.1132 2.62431 13.0957 2.42909 13.0606 2.24523C13.0275 2.05931 12.9759 1.89508 12.9056 1.75254C12.8354 1.60793 12.7445 1.49431 12.6329 1.41168C12.5214 1.32904 12.3881 1.28773 12.2332 1.28773C12.0783 1.28773 11.945 1.33111 11.8335 1.41787C11.7219 1.50257 11.631 1.61826 11.5608 1.76493C11.4905 1.9116 11.4379 2.07687 11.4027 2.26073C11.3697 2.44458 11.3532 2.63464 11.3532 2.83089C11.3532 3.03541 11.3697 3.23063 11.4027 3.41655C11.4379 3.60041 11.4905 3.76464 11.5608 3.90925C11.631 4.05386 11.7219 4.16748 11.8335 4.25011C11.945 4.33274 12.0783 4.37406 12.2332 4.37406ZM15.5254 5L16.9446 0.661785H17.6387L19.0579 5H18.2646L17.397 2.0872C17.3867 2.05415 17.3743 2.00973 17.3598 1.95395C17.3474 1.89818 17.335 1.8393 17.3226 1.77733C17.3102 1.71535 17.2999 1.65751 17.2916 1.6038C17.2813 1.65751 17.2699 1.71535 17.2575 1.77733C17.2451 1.8393 17.2328 1.89818 17.2204 1.95395C17.208 2.00973 17.1966 2.05415 17.1863 2.0872L16.3186 5H15.5254ZM16.4426 4.04559L16.6409 3.37627H17.9424L18.1407 4.04559H16.4426ZM21.9782 5V1.36829H20.7201V0.661785H23.98V1.36829H22.7157V5H21.9782ZM27.0366 5V0.661785H27.7741V5H27.0366ZM26.1318 5V4.34927H28.6852V5H26.1318ZM26.1318 1.31252V0.661785H28.6852V1.31252H26.1318ZM31.0291 5V0.661785H31.7294L33.0805 3.33908C33.0991 3.37214 33.1249 3.41965 33.1579 3.48162C33.191 3.5436 33.2168 3.59524 33.2354 3.63656C33.2333 3.58285 33.2302 3.52914 33.2261 3.47543C33.224 3.42172 33.223 3.37627 33.223 3.33908V0.661785H33.9047V5H33.2354L31.8596 2.31031C31.841 2.27519 31.8151 2.22664 31.7821 2.16467C31.749 2.10269 31.7212 2.05208 31.6984 2.01283C31.7088 2.05828 31.7139 2.10889 31.7139 2.16467C31.716 2.22044 31.717 2.26899 31.717 2.31031V5H31.0291ZM37.5935 5.07437C37.3002 5.07437 37.045 5.01239 36.8281 4.88845C36.6133 4.76243 36.4356 4.59303 36.2951 4.38025C36.1567 4.16541 36.0534 3.92474 35.9853 3.65825C35.9171 3.3897 35.883 3.11391 35.883 2.83089C35.883 2.56027 35.9181 2.29275 35.9884 2.02832C36.0586 1.76183 36.165 1.52013 36.3075 1.30322C36.4501 1.08631 36.6277 0.912781 36.8405 0.782635C37.0554 0.652489 37.3064 0.587415 37.5935 0.587415C37.8393 0.587415 38.0459 0.629765 38.2133 0.714463C38.3827 0.797096 38.5242 0.905551 38.6378 1.03983C38.7514 1.17204 38.8495 1.31252 38.9322 1.46126L38.2814 1.8331C38.205 1.68643 38.112 1.55938 38.0025 1.45196C37.8951 1.34247 37.7588 1.28773 37.5935 1.28773C37.42 1.28773 37.2733 1.33524 37.1535 1.43027C37.0337 1.52323 36.9366 1.64718 36.8622 1.80212C36.7878 1.95499 36.7341 2.12232 36.7011 2.30411C36.668 2.48384 36.6515 2.65943 36.6515 2.83089C36.6515 3.02714 36.6701 3.2172 36.7073 3.40106C36.7465 3.58492 36.8044 3.75018 36.8808 3.89685C36.9572 4.04353 37.0543 4.16025 37.1721 4.24701C37.2919 4.33171 37.4324 4.37406 37.5935 4.37406C37.8228 4.37406 37.9943 4.29762 38.1079 4.14475C38.2236 3.98982 38.2814 3.79769 38.2814 3.56839V3.47543H37.5253V2.78131H39.0375V3.38247C39.0375 3.74811 38.9735 4.05695 38.8454 4.30898C38.7194 4.56101 38.5469 4.7521 38.3279 4.88225C38.111 5.01033 37.8662 5.07437 37.5935 5.07437ZM47.2703 5V1.36829H46.0123V0.661785H49.2721V1.36829H48.0078V5H47.2703ZM52.3288 5V0.661785H53.0663V5H52.3288ZM51.4239 5V4.34927H53.9773V5H51.4239ZM51.4239 1.31252V0.661785H53.9773V1.31252H51.4239ZM56.3212 5V0.661785H57.0587V4.29349H59.0605V5H56.3212ZM62.4456 5V1.36829H61.1875V0.661785H64.4474V1.36829H63.1831V5H62.4456ZM71.4965 5V0.661785H72.9591C73.3103 0.661785 73.5871 0.718595 73.7896 0.832215C73.992 0.943769 74.1356 1.08838 74.2203 1.26604C74.305 1.44163 74.3473 1.62652 74.3473 1.82071C74.3473 2.01283 74.3009 2.18842 74.2079 2.34749C74.117 2.50449 73.9755 2.62638 73.7834 2.71314C74.0251 2.79371 74.2038 2.92902 74.3195 3.11907C74.4372 3.30913 74.4961 3.51261 74.4961 3.72952C74.4961 3.88033 74.4713 4.03113 74.4217 4.18194C74.3721 4.33274 74.2905 4.47012 74.1769 4.59407C74.0654 4.71595 73.9177 4.81408 73.7338 4.88845C73.5499 4.96282 73.3227 5 73.0521 5H71.4965ZM72.234 4.31828H73.1017C73.2731 4.31828 73.4064 4.28936 73.5014 4.23152C73.5964 4.17161 73.6625 4.09724 73.6997 4.00841C73.739 3.91751 73.7586 3.82662 73.7586 3.73572C73.7586 3.6283 73.7359 3.52604 73.6904 3.42895C73.647 3.32979 73.5644 3.24922 73.4425 3.18725C73.3227 3.12321 73.1492 3.09119 72.9219 3.09119H72.234V4.31828ZM72.234 2.41566H72.86C73.1141 2.41566 73.302 2.36608 73.4239 2.26692C73.5479 2.1657 73.6098 2.03349 73.6098 1.87029C73.6098 1.78559 73.5933 1.70296 73.5603 1.62239C73.5293 1.54182 73.4683 1.47572 73.3774 1.42407C73.2865 1.37036 73.1533 1.3435 72.9777 1.3435H72.234V2.41566ZM77.9928 5.07437C77.7325 5.07437 77.4908 5.01963 77.2677 4.91014C77.0466 4.80065 76.8679 4.61989 76.7316 4.36786C76.5973 4.11583 76.5302 3.77497 76.5302 3.34528V0.661785H77.2615V3.34528C77.2615 3.61177 77.2924 3.81939 77.3544 3.96812C77.4185 4.11686 77.5052 4.22222 77.6147 4.28419C77.7263 4.3441 77.8523 4.37406 77.9928 4.37406C78.1312 4.37406 78.2551 4.3441 78.3646 4.28419C78.4762 4.22222 78.564 4.11686 78.628 3.96812C78.692 3.81939 78.7241 3.61177 78.7241 3.34528V0.661785H79.4615V3.34528C79.4615 3.76877 79.3944 4.10757 79.2601 4.36166C79.1259 4.61369 78.9472 4.79548 78.7241 4.90704C78.5009 5.01859 78.2572 5.07437 77.9928 5.07437ZM82.6793 5V1.36829H81.4212V0.661785H84.6811V1.36829H83.4168V5H82.6793ZM87.7378 5V1.36829H86.4797V0.661785H89.7395V1.36829H88.4753V5H87.7378ZM93.168 5.07437C92.8768 5.07437 92.6268 5.01343 92.4181 4.89154C92.2116 4.7676 92.0422 4.60026 91.9099 4.38955C91.7777 4.17884 91.6806 3.9392 91.6187 3.67065C91.5567 3.40209 91.5257 3.12217 91.5257 2.83089C91.5257 2.53961 91.5567 2.25969 91.6187 1.99114C91.6806 1.72258 91.7777 1.48295 91.9099 1.27223C92.0422 1.06152 92.2116 0.895222 92.4181 0.773339C92.6268 0.64939 92.8768 0.587415 93.168 0.587415C93.4593 0.587415 93.7093 0.64939 93.9179 0.773339C94.1266 0.895222 94.297 1.06152 94.4292 1.27223C94.5614 1.48295 94.6585 1.72258 94.7205 1.99114C94.7845 2.25969 94.8166 2.53961 94.8166 2.83089C94.8166 3.12217 94.7845 3.40209 94.7205 3.67065C94.6585 3.9392 94.5614 4.17884 94.4292 4.38955C94.297 4.60026 94.1266 4.7676 93.9179 4.89154C93.7093 5.01343 93.4593 5.07437 93.168 5.07437ZM93.168 4.37406C93.3209 4.37406 93.4531 4.33068 93.5647 4.24391C93.6762 4.15715 93.7671 4.04043 93.8374 3.89376C93.9097 3.74708 93.9623 3.58182 93.9954 3.39796C94.0305 3.2141 94.0481 3.02508 94.0481 2.83089C94.0481 2.62431 94.0305 2.42909 93.9954 2.24523C93.9623 2.05931 93.9107 1.89508 93.8405 1.75254C93.7702 1.60793 93.6793 1.49431 93.5678 1.41168C93.4562 1.32904 93.323 1.28773 93.168 1.28773C93.0131 1.28773 92.8798 1.33111 92.7683 1.41787C92.6567 1.50257 92.5658 1.61826 92.4956 1.76493C92.4254 1.9116 92.3727 2.07687 92.3376 2.26073C92.3045 2.44458 92.288 2.63464 92.288 2.83089C92.288 3.03541 92.3045 3.23063 92.3376 3.41655C92.3727 3.60041 92.4254 3.76464 92.4956 3.90925C92.5658 4.05386 92.6567 4.16748 92.7683 4.25011C92.8798 4.33274 93.0131 4.37406 93.168 4.37406ZM96.7886 5V0.661785H97.489L98.84 3.33908C98.8586 3.37214 98.8844 3.41965 98.9175 3.48162C98.9505 3.5436 98.9763 3.59524 98.9949 3.63656C98.9929 3.58285 98.9898 3.52914 98.9856 3.47543C98.9836 3.42172 98.9825 3.37627 98.9825 3.33908V0.661785H99.6643V5H98.9949L97.6191 2.31031C97.6005 2.27519 97.5747 2.22664 97.5416 2.16467C97.5086 2.10269 97.4807 2.05208 97.458 2.01283C97.4683 2.05828 97.4735 2.10889 97.4735 2.16467C97.4755 2.22044 97.4766 2.26899 97.4766 2.31031V5H96.7886Z" fill="white"/>
</svg>
