<svg width="55" height="6" viewBox="0 0 55 6" fill="none" xmlns="http://www.w3.org/2000/svg">
<path opacity="0.7" d="M2.51021 5.2438C2.27471 5.2438 2.05367 5.19836 1.84709 5.10746C1.64257 5.0145 1.46388 4.88435 1.31101 4.71702C1.15814 4.54969 1.04348 4.35344 0.967048 4.12826L1.63637 3.88036C1.72933 4.07868 1.85948 4.23982 2.02681 4.36377C2.19621 4.48771 2.378 4.54969 2.57219 4.54969C2.75811 4.54969 2.90995 4.50217 3.0277 4.40715C3.14545 4.31212 3.20433 4.17371 3.20433 3.99192C3.20433 3.87417 3.16301 3.76984 3.08038 3.67895C2.99775 3.58598 2.88826 3.50129 2.75191 3.42485C2.61764 3.34842 2.47096 3.27508 2.31189 3.20484C2.17349 3.14493 2.03404 3.07779 1.89357 3.00342C1.75516 2.92906 1.62708 2.84126 1.50932 2.74003C1.39364 2.63881 1.29964 2.52002 1.22734 2.38368C1.1571 2.24734 1.12198 2.08723 1.12198 1.90338C1.12198 1.69473 1.17673 1.50364 1.28622 1.33011C1.39571 1.15658 1.55064 1.01817 1.75103 0.914884C1.95141 0.809527 2.18795 0.756849 2.46063 0.756849C2.78703 0.756849 3.06695 0.844646 3.30039 1.02024C3.53589 1.19583 3.69186 1.41584 3.7683 1.68027L3.10517 1.90338C3.04319 1.7753 2.95436 1.66787 2.83868 1.58111C2.72299 1.49435 2.58252 1.45096 2.41725 1.45096C2.26232 1.45096 2.13114 1.49021 2.02371 1.56871C1.91836 1.64722 1.86568 1.75464 1.86568 1.89098C1.86568 1.98601 1.89563 2.06864 1.95554 2.13888C2.01752 2.20912 2.10738 2.27729 2.22513 2.3434C2.34495 2.4095 2.49162 2.48387 2.66515 2.5665C2.80563 2.63261 2.95023 2.70698 3.09897 2.78961C3.24771 2.87018 3.38612 2.96417 3.5142 3.0716C3.64435 3.17902 3.74867 3.30503 3.82717 3.44964C3.90774 3.59425 3.94802 3.76261 3.94802 3.95473C3.94802 4.22949 3.88088 4.46292 3.7466 4.65505C3.61439 4.84717 3.4388 4.99384 3.21982 5.09506C3.00291 5.19422 2.76637 5.2438 2.51021 5.2438ZM7.59343 5.23761C7.27943 5.23761 7.01294 5.17357 6.79396 5.04548C6.57498 4.91534 6.39835 4.74284 6.26408 4.528C6.1298 4.31109 6.03167 4.07042 5.9697 3.80599C5.90772 3.5395 5.87674 3.27095 5.87674 3.00033C5.87674 2.74003 5.90772 2.47871 5.9697 2.21635C6.03374 1.95192 6.13393 1.71022 6.27027 1.49125C6.40662 1.27227 6.58325 1.09668 6.80016 0.964463C7.01913 0.830185 7.28356 0.763046 7.59343 0.763046C7.8372 0.763046 8.04791 0.807461 8.22557 0.896291C8.4053 0.983056 8.55403 1.09564 8.67179 1.23405C8.78954 1.37246 8.87837 1.51707 8.93828 1.66787L8.28135 1.98394C8.19871 1.82281 8.10472 1.69576 7.99936 1.6028C7.89607 1.50984 7.76076 1.46336 7.59343 1.46336C7.41784 1.46336 7.2691 1.50984 7.14721 1.6028C7.02533 1.69576 6.92617 1.81868 6.84974 1.97155C6.77537 2.12442 6.72166 2.29072 6.6886 2.47044C6.65555 2.65017 6.63902 2.8268 6.63902 3.00033C6.63902 3.18418 6.65761 3.36701 6.6948 3.5488C6.73405 3.73059 6.79189 3.89586 6.86833 4.0446C6.94683 4.19334 7.04599 4.31315 7.16581 4.40405C7.28769 4.49288 7.43023 4.53729 7.59343 4.53729C7.76076 4.53729 7.89917 4.48565 8.00866 4.38236C8.11815 4.277 8.21111 4.14272 8.28754 3.97952L8.95687 4.23362C8.87837 4.42574 8.77714 4.59824 8.65319 4.75111C8.53131 4.90191 8.38257 5.02069 8.20698 5.10746C8.03138 5.19422 7.82687 5.23761 7.59343 5.23761ZM10.8112 5.16943L12.2304 0.831218H12.9245L14.3438 5.16943H13.5505L12.6828 2.25663C12.6725 2.22358 12.6601 2.17916 12.6457 2.12339C12.6333 2.06761 12.6209 2.00873 12.6085 1.94676C12.5961 1.88478 12.5858 1.82694 12.5775 1.77323C12.5672 1.82694 12.5558 1.88478 12.5434 1.94676C12.531 2.00873 12.5186 2.06761 12.5062 2.12339C12.4938 2.17916 12.4825 2.22358 12.4721 2.25663L11.6045 5.16943H10.8112ZM11.7284 4.21503L11.9268 3.5457H13.2282L13.4265 4.21503H11.7284ZM16.1981 5.16943V0.831218H16.8984L18.2495 3.50852C18.2681 3.54157 18.2939 3.58908 18.3269 3.65106C18.36 3.71303 18.3858 3.76468 18.4044 3.80599C18.4023 3.75228 18.3992 3.69857 18.3951 3.64486C18.393 3.59115 18.392 3.5457 18.392 3.50852V0.831218H19.0737V5.16943H18.4044L17.0286 2.47974C17.01 2.44462 16.9841 2.39607 16.9511 2.3341C16.918 2.27213 16.8902 2.22151 16.8674 2.18226C16.8778 2.22771 16.8829 2.27832 16.8829 2.3341C16.885 2.38988 16.886 2.43842 16.886 2.47974V5.16943H16.1981ZM26.315 5.16943V0.831218H27.7776C28.1287 0.831218 28.4056 0.888028 28.608 1.00165C28.8105 1.1132 28.954 1.25781 29.0387 1.43547C29.1234 1.61106 29.1658 1.79595 29.1658 1.99014C29.1658 2.18226 29.1193 2.35786 29.0263 2.51692C28.9354 2.67393 28.7939 2.79581 28.6018 2.88257C28.8435 2.96314 29.0222 3.09845 29.1379 3.28851C29.2556 3.47856 29.3145 3.68205 29.3145 3.89896C29.3145 4.04976 29.2897 4.20057 29.2402 4.35137C29.1906 4.50217 29.109 4.63955 28.9954 4.7635C28.8838 4.88538 28.7361 4.98351 28.5522 5.05788C28.3684 5.13225 28.1411 5.16943 27.8705 5.16943H26.315ZM27.0525 4.48771H27.9201C28.0916 4.48771 28.2248 4.45879 28.3198 4.40095C28.4149 4.34104 28.481 4.26667 28.5182 4.17784C28.5574 4.08695 28.577 3.99605 28.577 3.90515C28.577 3.79773 28.5543 3.69547 28.5089 3.59838C28.4655 3.49922 28.3828 3.41865 28.261 3.35668C28.1411 3.29264 27.9676 3.26062 27.7404 3.26062H27.0525V4.48771ZM27.0525 2.5851H27.6784C27.9325 2.5851 28.1205 2.53552 28.2424 2.43636C28.3663 2.33513 28.4283 2.20292 28.4283 2.03972C28.4283 1.95502 28.4118 1.87239 28.3787 1.79182C28.3477 1.71126 28.2868 1.64515 28.1959 1.5935C28.105 1.53979 27.9717 1.51294 27.7961 1.51294H27.0525V2.5851ZM32.8112 5.2438C32.5509 5.2438 32.3092 5.18906 32.0861 5.07957C31.8651 4.97008 31.6864 4.78932 31.55 4.53729C31.4157 4.28526 31.3486 3.9444 31.3486 3.51471V0.831218H32.0799V3.51471C32.0799 3.7812 32.1109 3.98882 32.1729 4.13756C32.2369 4.2863 32.3237 4.39165 32.4332 4.45363C32.5447 4.51354 32.6707 4.54349 32.8112 4.54349C32.9496 4.54349 33.0736 4.51354 33.183 4.45363C33.2946 4.39165 33.3824 4.2863 33.4464 4.13756C33.5105 3.98882 33.5425 3.7812 33.5425 3.51471V0.831218H34.28V3.51471C34.28 3.93821 34.2129 4.277 34.0786 4.5311C33.9443 4.78313 33.7656 4.96492 33.5425 5.07647C33.3194 5.18803 33.0756 5.2438 32.8112 5.2438ZM37.4978 5.16943V1.53773H36.2397V0.831218H39.4996V1.53773H38.2353V5.16943H37.4978ZM42.5562 5.16943V1.53773H41.2981V0.831218H44.558V1.53773H43.2937V5.16943H42.5562ZM47.9865 5.2438C47.6952 5.2438 47.4452 5.18286 47.2366 5.06098C47.03 4.93703 46.8606 4.7697 46.7284 4.55898C46.5962 4.34827 46.4991 4.10864 46.4371 3.84008C46.3751 3.57152 46.3441 3.29161 46.3441 3.00033C46.3441 2.70905 46.3751 2.42913 46.4371 2.16057C46.4991 1.89202 46.5962 1.65238 46.7284 1.44167C46.8606 1.23095 47.03 1.06466 47.2366 0.942772C47.4452 0.818823 47.6952 0.756849 47.9865 0.756849C48.2778 0.756849 48.5277 0.818823 48.7364 0.942772C48.945 1.06466 49.1154 1.23095 49.2477 1.44167C49.3799 1.65238 49.477 1.89202 49.5389 2.16057C49.603 2.42913 49.635 2.70905 49.635 3.00033C49.635 3.29161 49.603 3.57152 49.5389 3.84008C49.477 4.10864 49.3799 4.34827 49.2477 4.55898C49.1154 4.7697 48.945 4.93703 48.7364 5.06098C48.5277 5.18286 48.2778 5.2438 47.9865 5.2438ZM47.9865 4.54349C48.1393 4.54349 48.2716 4.50011 48.3831 4.41334C48.4947 4.32658 48.5856 4.20986 48.6558 4.06319C48.7281 3.91652 48.7808 3.75125 48.8138 3.56739C48.849 3.38354 48.8665 3.19451 48.8665 3.00033C48.8665 2.79374 48.849 2.59852 48.8138 2.41467C48.7808 2.22874 48.7291 2.06451 48.6589 1.92197C48.5887 1.77736 48.4978 1.66374 48.3862 1.58111C48.2747 1.49848 48.1414 1.45716 47.9865 1.45716C47.8315 1.45716 47.6983 1.50054 47.5867 1.58731C47.4752 1.67201 47.3843 1.78769 47.3141 1.93436C47.2438 2.08104 47.1911 2.2463 47.156 2.43016C47.123 2.61402 47.1064 2.80407 47.1064 3.00033C47.1064 3.20484 47.123 3.40006 47.156 3.58598C47.1911 3.76984 47.2438 3.93408 47.3141 4.07868C47.3843 4.22329 47.4752 4.33691 47.5867 4.41954C47.6983 4.50217 47.8315 4.54349 47.9865 4.54349ZM51.6071 5.16943V0.831218H52.3074L53.6584 3.50852C53.677 3.54157 53.7029 3.58908 53.7359 3.65106C53.769 3.71303 53.7948 3.76468 53.8134 3.80599C53.8113 3.75228 53.8082 3.69857 53.8041 3.64486C53.802 3.59115 53.801 3.5457 53.801 3.50852V0.831218H54.4827V5.16943H53.8134L52.4376 2.47974C52.419 2.44462 52.3931 2.39607 52.3601 2.3341C52.327 2.27213 52.2991 2.22151 52.2764 2.18226C52.2867 2.22771 52.2919 2.27832 52.2919 2.3341C52.294 2.38988 52.295 2.43842 52.295 2.47974V5.16943H51.6071Z" fill="white"/>
</svg>
