<svg width="65" height="6" viewBox="0 0 65 6" fill="none" xmlns="http://www.w3.org/2000/svg">
<path opacity="0.7" d="M2.51021 5.2438C2.27471 5.2438 2.05367 5.19836 1.84709 5.10746C1.64257 5.0145 1.46388 4.88435 1.31101 4.71702C1.15814 4.54969 1.04348 4.35344 0.967048 4.12826L1.63637 3.88036C1.72933 4.07868 1.85948 4.23982 2.02681 4.36377C2.19621 4.48771 2.378 4.54969 2.57219 4.54969C2.75811 4.54969 2.90995 4.50217 3.0277 4.40715C3.14545 4.31212 3.20433 4.17371 3.20433 3.99192C3.20433 3.87417 3.16301 3.76984 3.08038 3.67895C2.99775 3.58598 2.88826 3.50129 2.75191 3.42485C2.61764 3.34842 2.47096 3.27508 2.31189 3.20484C2.17349 3.14493 2.03404 3.07779 1.89357 3.00342C1.75516 2.92906 1.62708 2.84126 1.50932 2.74003C1.39364 2.63881 1.29964 2.52002 1.22734 2.38368C1.1571 2.24734 1.12198 2.08723 1.12198 1.90338C1.12198 1.69473 1.17673 1.50364 1.28622 1.33011C1.39571 1.15658 1.55064 1.01817 1.75103 0.914884C1.95141 0.809527 2.18795 0.756849 2.46063 0.756849C2.78703 0.756849 3.06695 0.844646 3.30039 1.02024C3.53589 1.19583 3.69186 1.41584 3.7683 1.68027L3.10517 1.90338C3.04319 1.7753 2.95436 1.66787 2.83868 1.58111C2.72299 1.49435 2.58252 1.45096 2.41725 1.45096C2.26232 1.45096 2.13114 1.49021 2.02371 1.56871C1.91836 1.64722 1.86568 1.75464 1.86568 1.89098C1.86568 1.98601 1.89563 2.06864 1.95554 2.13888C2.01752 2.20912 2.10738 2.27729 2.22513 2.3434C2.34495 2.4095 2.49162 2.48387 2.66515 2.5665C2.80563 2.63261 2.95023 2.70698 3.09897 2.78961C3.24771 2.87018 3.38612 2.96417 3.5142 3.0716C3.64435 3.17902 3.74867 3.30503 3.82717 3.44964C3.90774 3.59425 3.94802 3.76261 3.94802 3.95473C3.94802 4.22949 3.88088 4.46292 3.7466 4.65505C3.61439 4.84717 3.4388 4.99384 3.21982 5.09506C3.00291 5.19422 2.76637 5.2438 2.51021 5.2438ZM7.14721 5.16943V1.53773H5.88913V0.831218H9.14899V1.53773H7.88471V5.16943H7.14721ZM11.1397 5.16943V0.831218H12.6395C12.9968 0.831218 13.2788 0.893193 13.4854 1.01714C13.692 1.14109 13.8387 1.30326 13.9254 1.50364C14.0143 1.70403 14.0587 1.91784 14.0587 2.14508C14.0587 2.30621 14.0318 2.46321 13.9781 2.61608C13.9244 2.76689 13.8438 2.90427 13.7364 3.02821C13.629 3.1501 13.4937 3.25029 13.3305 3.32879C13.1693 3.40729 12.9803 3.45481 12.7634 3.47133H11.8772V5.16943H11.1397ZM13.2344 5.16943L12.3482 3.38457L13.1353 3.304L14.0525 5.16943H13.2344ZM11.8772 2.77722H12.6519C12.8171 2.77722 12.9473 2.74726 13.0423 2.68735C13.1373 2.62745 13.2045 2.54998 13.2437 2.45495C13.283 2.35992 13.3026 2.2587 13.3026 2.15128C13.3026 2.05418 13.284 1.95812 13.2468 1.86309C13.2096 1.766 13.1435 1.68543 13.0485 1.62139C12.9555 1.55735 12.8233 1.52533 12.6519 1.52533H11.8772V2.77722ZM17.6359 5.2438C17.3446 5.2438 17.0947 5.18286 16.886 5.06098C16.6794 4.93703 16.51 4.7697 16.3778 4.55898C16.2456 4.34827 16.1485 4.10864 16.0866 3.84008C16.0246 3.57152 15.9936 3.29161 15.9936 3.00033C15.9936 2.70905 16.0246 2.42913 16.0866 2.16057C16.1485 1.89202 16.2456 1.65238 16.3778 1.44167C16.51 1.23095 16.6794 1.06466 16.886 0.942772C17.0947 0.818823 17.3446 0.756849 17.6359 0.756849C17.9272 0.756849 18.1772 0.818823 18.3858 0.942772C18.5945 1.06466 18.7649 1.23095 18.8971 1.44167C19.0293 1.65238 19.1264 1.89202 19.1884 2.16057C19.2524 2.42913 19.2844 2.70905 19.2844 3.00033C19.2844 3.29161 19.2524 3.57152 19.1884 3.84008C19.1264 4.10864 19.0293 4.34827 18.8971 4.55898C18.7649 4.7697 18.5945 4.93703 18.3858 5.06098C18.1772 5.18286 17.9272 5.2438 17.6359 5.2438ZM17.6359 4.54349C17.7888 4.54349 17.921 4.50011 18.0326 4.41334C18.1441 4.32658 18.235 4.20986 18.3052 4.06319C18.3775 3.91652 18.4302 3.75125 18.4633 3.56739C18.4984 3.38354 18.516 3.19451 18.516 3.00033C18.516 2.79374 18.4984 2.59852 18.4633 2.41467C18.4302 2.22874 18.3786 2.06451 18.3083 1.92197C18.2381 1.77736 18.1472 1.66374 18.0356 1.58111C17.9241 1.49848 17.7909 1.45716 17.6359 1.45716C17.481 1.45716 17.3477 1.50054 17.2362 1.58731C17.1246 1.67201 17.0337 1.78769 16.9635 1.93436C16.8933 2.08104 16.8406 2.2463 16.8055 2.43016C16.7724 2.61402 16.7559 2.80407 16.7559 3.00033C16.7559 3.20484 16.7724 3.40006 16.8055 3.58598C16.8406 3.76984 16.8933 3.93408 16.9635 4.07868C17.0337 4.22329 17.1246 4.33691 17.2362 4.41954C17.3477 4.50217 17.481 4.54349 17.6359 4.54349ZM21.9321 3.57669V2.54791L23.2831 0.831218H24.1445L21.9321 3.57669ZM21.2565 5.16943V0.831218H21.994V5.16943H21.2565ZM23.562 5.16943L22.3535 2.90736L22.8493 2.28762L24.4234 5.16943H23.562ZM26.315 5.16943V0.831218H29.0976V1.53153H27.0525V2.5789H28.3849V3.27921H27.0525V4.46912H29.2278V5.16943H26.315ZM36.4318 5.16943V0.831218H37.8944C38.2456 0.831218 38.5224 0.888028 38.7249 1.00165C38.9273 1.1132 39.0709 1.25781 39.1556 1.43547C39.2403 1.61106 39.2826 1.79595 39.2826 1.99014C39.2826 2.18226 39.2362 2.35786 39.1432 2.51692C39.0523 2.67393 38.9108 2.79581 38.7187 2.88257C38.9604 2.96314 39.1391 3.09845 39.2548 3.28851C39.3725 3.47856 39.4314 3.68205 39.4314 3.89896C39.4314 4.04976 39.4066 4.20057 39.357 4.35137C39.3074 4.50217 39.2258 4.63955 39.1122 4.7635C39.0007 4.88538 38.853 4.98351 38.6691 5.05788C38.4852 5.13225 38.258 5.16943 37.9874 5.16943H36.4318ZM37.1693 4.48771H38.037C38.2084 4.48771 38.3417 4.45879 38.4367 4.40095C38.5317 4.34104 38.5978 4.26667 38.635 4.17784C38.6743 4.08695 38.6939 3.99605 38.6939 3.90515C38.6939 3.79773 38.6712 3.69547 38.6257 3.59838C38.5823 3.49922 38.4997 3.41865 38.3778 3.35668C38.258 3.29264 38.0845 3.26062 37.8572 3.26062H37.1693V4.48771ZM37.1693 2.5851H37.7953C38.0493 2.5851 38.2373 2.53552 38.3592 2.43636C38.4832 2.33513 38.5451 2.20292 38.5451 2.03972C38.5451 1.95502 38.5286 1.87239 38.4956 1.79182C38.4646 1.71126 38.4036 1.64515 38.3127 1.5935C38.2218 1.53979 38.0886 1.51294 37.913 1.51294H37.1693V2.5851ZM42.928 5.2438C42.6678 5.2438 42.4261 5.18906 42.2029 5.07957C41.9819 4.97008 41.8032 4.78932 41.6669 4.53729C41.5326 4.28526 41.4655 3.9444 41.4655 3.51471V0.831218H42.1967V3.51471C42.1967 3.7812 42.2277 3.98882 42.2897 4.13756C42.3538 4.2863 42.4405 4.39165 42.55 4.45363C42.6616 4.51354 42.7876 4.54349 42.928 4.54349C43.0665 4.54349 43.1904 4.51354 43.2999 4.45363C43.4114 4.39165 43.4992 4.2863 43.5633 4.13756C43.6273 3.98882 43.6593 3.7812 43.6593 3.51471V0.831218H44.3968V3.51471C44.3968 3.93821 44.3297 4.277 44.1954 4.5311C44.0611 4.78313 43.8825 4.96492 43.6593 5.07647C43.4362 5.18803 43.1925 5.2438 42.928 5.2438ZM47.6146 5.16943V1.53773H46.3565V0.831218H49.6164V1.53773H48.3521V5.16943H47.6146ZM52.6731 5.16943V1.53773H51.415V0.831218H54.6748V1.53773H53.4105V5.16943H52.6731ZM58.1033 5.2438C57.812 5.2438 57.5621 5.18286 57.3534 5.06098C57.1469 4.93703 56.9775 4.7697 56.8452 4.55898C56.713 4.34827 56.6159 4.10864 56.554 3.84008C56.492 3.57152 56.461 3.29161 56.461 3.00033C56.461 2.70905 56.492 2.42913 56.554 2.16057C56.6159 1.89202 56.713 1.65238 56.8452 1.44167C56.9775 1.23095 57.1469 1.06466 57.3534 0.942772C57.5621 0.818823 57.812 0.756849 58.1033 0.756849C58.3946 0.756849 58.6446 0.818823 58.8532 0.942772C59.0619 1.06466 59.2323 1.23095 59.3645 1.44167C59.4967 1.65238 59.5938 1.89202 59.6558 2.16057C59.7198 2.42913 59.7518 2.70905 59.7518 3.00033C59.7518 3.29161 59.7198 3.57152 59.6558 3.84008C59.5938 4.10864 59.4967 4.34827 59.3645 4.55898C59.2323 4.7697 59.0619 4.93703 58.8532 5.06098C58.6446 5.18286 58.3946 5.2438 58.1033 5.2438ZM58.1033 4.54349C58.2562 4.54349 58.3884 4.50011 58.5 4.41334C58.6115 4.32658 58.7024 4.20986 58.7727 4.06319C58.845 3.91652 58.8976 3.75125 58.9307 3.56739C58.9658 3.38354 58.9834 3.19451 58.9834 3.00033C58.9834 2.79374 58.9658 2.59852 58.9307 2.41467C58.8976 2.22874 58.846 2.06451 58.7757 1.92197C58.7055 1.77736 58.6146 1.66374 58.5031 1.58111C58.3915 1.49848 58.2583 1.45716 58.1033 1.45716C57.9484 1.45716 57.8151 1.50054 57.7036 1.58731C57.592 1.67201 57.5011 1.78769 57.4309 1.93436C57.3607 2.08104 57.308 2.2463 57.2729 2.43016C57.2398 2.61402 57.2233 2.80407 57.2233 3.00033C57.2233 3.20484 57.2398 3.40006 57.2729 3.58598C57.308 3.76984 57.3607 3.93408 57.4309 4.07868C57.5011 4.22329 57.592 4.33691 57.7036 4.41954C57.8151 4.50217 57.9484 4.54349 58.1033 4.54349ZM61.7239 5.16943V0.831218H62.4243L63.7753 3.50852C63.7939 3.54157 63.8197 3.58908 63.8528 3.65106C63.8858 3.71303 63.9116 3.76468 63.9302 3.80599C63.9282 3.75228 63.9251 3.69857 63.9209 3.64486C63.9189 3.59115 63.9178 3.5457 63.9178 3.50852V0.831218H64.5996V5.16943H63.9302L62.5544 2.47974C62.5358 2.44462 62.51 2.39607 62.4769 2.3341C62.4439 2.27213 62.416 2.22151 62.3933 2.18226C62.4036 2.22771 62.4088 2.27832 62.4088 2.3341C62.4108 2.38988 62.4119 2.43842 62.4119 2.47974V5.16943H61.7239Z" fill="white"/>
</svg>
