<svg width="356" height="786" viewBox="0 0 356 786" fill="none" xmlns="http://www.w3.org/2000/svg">
<mask id="mask0_1509_583" style="mask-type:alpha" maskUnits="userSpaceOnUse" x="0" y="0" width="356" height="693">
<rect width="355" height="692.412" transform="matrix(1 0 0 -1 0.565613 692.413)" fill="#D9D9D9"/>
</mask>
<g mask="url(#mask0_1509_583)">
<path d="M32.5574 40.6492H323.626L355.333 0.232277H0.851013L32.5574 40.6492Z" fill="#0D0D0D" stroke="#434343" stroke-width="0.455374"/>
<path d="M32.5574 692.632H323.626L355.333 785.791H0.851013L32.5574 692.632Z" fill="#0D0D0D" stroke="#434343" stroke-width="0.455374"/>
<path fill-rule="evenodd" clip-rule="evenodd" d="M32.5576 40.7031L32.5575 692.754L0.851091 785.827L0.8511 0.232298L32.5576 40.7031ZM323.626 40.7031L323.626 692.754L355.333 785.827V0.232298L323.626 40.7031Z" fill="#0D0D0D"/>
<path d="M32.5575 692.754L32.773 692.828L32.7852 692.792V692.754H32.5575ZM32.5576 40.703H32.7853V40.6244L32.7368 40.5626L32.5576 40.703ZM0.851105 785.827H0.623418L1.06663 785.901L0.851105 785.827ZM0.851113 0.232178L1.03035 0.09176L0.623426 -0.42764V0.232178L0.851113 0.232178ZM323.626 692.754H323.399V692.792L323.411 692.828L323.626 692.754ZM323.626 40.703L323.447 40.5626L323.398 40.6244V40.703H323.626ZM355.333 785.827L355.117 785.901L355.56 785.827H355.333ZM355.333 0.232178H355.56V-0.42764L355.153 0.09176L355.333 0.232178ZM32.7852 692.754L32.7853 40.703H32.3299L32.3298 692.754H32.7852ZM1.06663 785.901L32.773 692.828L32.3419 692.681L0.63558 785.754L1.06663 785.901ZM0.623426 0.232178L0.623418 785.827H1.07879L1.0788 0.232178L0.623426 0.232178ZM32.7368 40.5626L1.03035 0.09176L0.671881 0.372595L32.3784 40.8434L32.7368 40.5626ZM323.854 692.754L323.854 40.703H323.398L323.399 692.754H323.854ZM355.548 785.754L323.842 692.681L323.411 692.828L355.117 785.901L355.548 785.754ZM355.105 0.232178V785.827H355.56V0.232178H355.105ZM323.805 40.8434L355.512 0.372595L355.153 0.09176L323.447 40.5626L323.805 40.8434Z" fill="#434343"/>
</g>
<mask id="mask1_1509_583" style="mask-type:alpha" maskUnits="userSpaceOnUse" x="0" y="692" width="356" height="94">
<rect x="0.565613" y="692" width="355" height="94" fill="#D9D9D9"/>
</mask>
<g mask="url(#mask1_1509_583)">
<path d="M32.5573 692.22H323.626L355.333 785.768H0.850952L32.5573 692.22Z" fill="#0D0D0D" stroke="#434343" stroke-width="0.455374"/>
<g clip-path="url(#clip0_1509_583)">
<path d="M84.5255 733.612L68.7059 732.084L72.0471 743.962L77.0096 742.732L84.5255 733.612Z" fill="#0D0D0D" stroke="#0D0D0D" stroke-width="0.455374" stroke-linecap="round" stroke-linejoin="round"/>
<path d="M72.0475 726.386L54.6145 724.858V742.435L72.0475 743.962V726.386Z" fill="#0D0D0D" stroke="#363636" stroke-width="0.455374" stroke-linecap="round" stroke-linejoin="round"/>
<path d="M72.0471 726.386L79.5552 717.266V734.842L72.0471 743.963V726.386Z" fill="#0D0D0D" stroke="#363636" stroke-width="0.455374" stroke-linecap="round" stroke-linejoin="round"/>
<path d="M79.5556 717.266L63.1681 715.685L54.6145 724.859L72.0475 726.386L79.5556 717.266Z" fill="#0D0D0D" stroke="#363636" stroke-width="0.455374" stroke-linecap="round" stroke-linejoin="round"/>
<path d="M99.4122 740.822L113.731 747.407L99.2682 753.93H92.2147L77.8804 747.353L99.4122 740.822Z" fill="#0D0D0D" stroke="#0D0D0D" stroke-width="0.455374" stroke-linecap="round" stroke-linejoin="round"/>
<path d="M77.8501 730.587L77.8804 747.346L92.2147 753.931L92.1769 737.156L77.8501 730.587Z" fill="#0D0D0D" stroke="#363636" stroke-width="0.455374" stroke-linecap="round" stroke-linejoin="round"/>
<path d="M92.3208 724.056L106.648 730.64L92.1769 737.156L77.8501 730.587L92.3208 724.056Z" fill="#0D0D0D" stroke="#363636" stroke-width="0.455374" stroke-linecap="round" stroke-linejoin="round"/>
<path d="M92.2142 753.931L106.677 747.4L106.647 730.64L92.1763 737.156L92.2142 753.931Z" fill="#0D0D0D" stroke="#363636" stroke-width="0.455374" stroke-linecap="round" stroke-linejoin="round"/>
<path d="M288.247 751.067C295.83 751.067 301.977 748.752 301.977 745.897C301.977 743.041 295.83 740.726 288.247 740.726C280.664 740.726 274.517 743.041 274.517 745.897C274.517 748.752 280.664 751.067 288.247 751.067Z" fill="#0D0D0D" stroke="#0D0D0D" stroke-width="0.455374" stroke-linecap="round" stroke-linejoin="round"/>
<path d="M254.702 726.729L234.692 735.927L254.9 745.035L264.751 745.026L284.77 735.846L254.702 726.729Z" fill="#0D0D0D" stroke="#0D0D0D" stroke-width="0.455374" stroke-linecap="round" stroke-linejoin="round"/>
<path d="M284.815 712.433L284.77 735.838L264.751 745.036L264.796 721.614L284.815 712.433Z" fill="#0D0D0D" stroke="#363636" stroke-width="0.455374" stroke-linecap="round" stroke-linejoin="round"/>
<path d="M264.599 703.308L244.598 712.506L264.797 721.614L284.816 712.433L264.599 703.308Z" fill="#0D0D0D" stroke="#363636" stroke-width="0.455374" stroke-linecap="round" stroke-linejoin="round"/>
<path d="M264.752 745.027L244.553 735.91L244.598 712.506L264.797 721.613L264.752 745.027Z" fill="#0D0D0D" stroke="#363636" stroke-width="0.455374" stroke-linecap="round" stroke-linejoin="round"/>
<path d="M285.427 750.886C282.186 751.419 278.863 750.786 276.039 749.098C273.215 747.41 271.07 744.774 269.978 741.652C269.934 741.525 269.898 741.389 269.853 741.262C269.645 740.612 269.486 739.948 269.376 739.275C268.875 736.204 269.397 733.053 270.861 730.314C272.325 727.574 274.648 725.401 277.466 724.133C280.285 722.866 283.441 722.575 286.441 723.308C289.44 724.04 292.115 725.753 294.046 728.181C294.244 728.426 294.424 728.671 294.604 728.925C295.955 730.876 296.793 733.14 297.042 735.507C297.29 737.873 296.939 740.264 296.023 742.457C295.106 744.65 293.654 746.573 291.801 748.047C289.948 749.521 287.755 750.498 285.427 750.886V750.886Z" fill="#0D0D0D" stroke="#363636" stroke-width="0.455374" stroke-linecap="round" stroke-linejoin="round"/>
</g>
<path fill-rule="evenodd" clip-rule="evenodd" d="M32.5576 37.5707L32.5574 692.343L0.85107 785.805L0.851079 -3.06903L32.5576 37.5707ZM323.626 37.5707L323.626 692.343L355.333 785.805V-3.06903L323.626 37.5707Z" fill="#0D0D0D"/>
<path d="M32.5574 692.343L32.7731 692.416L32.7851 692.381V692.343H32.5574ZM32.5576 37.5705H32.7852V37.4922L32.7371 37.4305L32.5576 37.5705ZM0.851074 785.805H0.623387L1.06669 785.878L0.851074 785.805ZM0.851083 -3.06921L1.0306 -3.20927L0.623396 -3.7312V-3.06921L0.851083 -3.06921ZM323.626 692.343H323.399V692.381L323.411 692.416L323.626 692.343ZM323.626 37.5705L323.447 37.4305L323.398 37.4922V37.5705H323.626ZM355.333 785.805L355.117 785.878L355.56 785.805H355.333ZM355.333 -3.06921H355.56V-3.7312L355.153 -3.20927L355.333 -3.06921ZM32.7851 692.343L32.7852 37.5705H32.3299L32.3297 692.343H32.7851ZM1.06669 785.878L32.7731 692.416L32.3418 692.27L0.635457 785.731L1.06669 785.878ZM0.623396 -3.06921L0.623387 785.805H1.07876L1.07877 -3.06921L0.623396 -3.06921ZM32.7371 37.4305L1.0306 -3.20927L0.671567 -2.92916L32.378 37.7106L32.7371 37.4305ZM323.854 692.343L323.854 37.5705H323.398L323.399 692.343H323.854ZM355.548 785.731L323.842 692.27L323.411 692.416L355.117 785.878L355.548 785.731ZM355.105 -3.06921V785.805H355.56V-3.06921H355.105ZM323.806 37.7106L355.512 -2.92916L355.153 -3.20927L323.447 37.4305L323.806 37.7106Z" fill="#434343"/>
</g>
<defs>
<clipPath id="clip0_1509_583">
<rect width="258.493" height="57.0479" fill="white" transform="translate(48.8455 703.081)"/>
</clipPath>
</defs>
</svg>
